<?xml version="1.0" encoding="utf-8"?>
<!-- Generator: Adobe Illustrator 24.1.1, SVG Export Plug-In . SVG Version: 6.00 Build 0)  -->
<svg version="1.1" id="Layer_1" xmlns="http://www.w3.org/2000/svg" xmlns:xlink="http://www.w3.org/1999/xlink" x="0px" y="0px"
	 viewBox="0 0 400 400" style="enable-background:new 0 0 400 400;" xml:space="preserve">
<circle fill="#000000" cx="199.4" cy="200" r="191.1"/>
<circle fill="#FFFFFF" class="st0" cx="199.4" cy="200.7" r="170.9"/>
<circle fill="#000000" cx="199.4" cy="200.7" r="149.8"/>
<g class="st1">
	<path fill="#FFFFFF" d="M179.9,232.9c-0.9-5.9-0.6-11.3,0.6-16.1c1.3-4.9,3.2-9.4,5.6-13.5c2.4-4.2,5.2-8,8.2-11.4
		c3-3.5,5.9-6.8,8.7-10c2.8-3.2,5.1-6.3,6.9-9.4c1.8-3,2.7-6.2,2.7-9.5c0-5.4-1.6-9.4-4.8-12.2c-3.2-2.8-7.4-4.2-12.6-4.2
		c-4.9,0-9.1,1.1-12.9,3.4c-3.7,2.3-7.3,5.1-10.8,8.6l-21.1-19.2c6.1-7.1,13.3-12.8,21.7-17.2c8.4-4.3,17.7-6.5,28-6.5
		c6.9,0,13.4,0.9,19.4,2.6c6,1.7,11.2,4.4,15.6,8.1c4.4,3.6,7.9,8.3,10.4,13.9c2.5,5.6,3.8,12.3,3.8,19.9c0,5.4-1,10.2-2.9,14.4
		c-1.9,4.2-4.3,8.2-7.2,11.8c-2.9,3.6-5.9,7.1-9.1,10.5c-3.2,3.4-6.2,6.9-8.8,10.5c-2.7,3.6-4.8,7.5-6.4,11.6
		c-1.6,4.1-2.1,8.7-1.6,13.9H179.9z M196.5,296.1c-6.6,0-12-2.3-16.4-6.9c-4.3-4.6-6.5-10.3-6.5-17c0-6.9,2.2-12.7,6.5-17.3
		c4.3-4.6,9.8-6.9,16.4-6.9c6.6,0,12.1,2.3,16.5,6.9c4.4,4.6,6.6,10.4,6.6,17.3c0,6.8-2.2,12.4-6.6,17
		C208.6,293.8,203.1,296.1,196.5,296.1z"/>
</g>
</svg>
