<?xml version="1.0" encoding="utf-8"?>
<!-- Generator: Adobe Illustrator 24.1.1, SVG Export Plug-In . SVG Version: 6.00 Build 0)  -->
<svg version="1.1"
	 id="Layer_1" xmlns:cc="http://creativecommons.org/ns#" xmlns:dc="http://purl.org/dc/elements/1.1/" xmlns:rdf="http://www.w3.org/1999/02/22-rdf-syntax-ns#"
	 xmlns="http://www.w3.org/2000/svg" xmlns:xlink="http://www.w3.org/1999/xlink" x="0px" y="0px" viewBox="0 0 152.5 152.6"
	 style="enable-background:new 0 0 152.5 152.6;" xml:space="preserve">
<style type="text/css">
	.st0{fill:#006BB6;}
	.st1{fill:#FFFFFF;}
	.st2{fill:#ED174C;}
</style>
<path class="st0" d="M1.6,91.9c8.6,41.2,49.1,67.7,90.3,59.1c19.9-4,37.3-15.9,48.2-32.9c10.9-17,14.8-37.6,10.8-57.4
	c-8.6-41.2-49-67.7-90.3-59.1C19.5,10.2-7,50.6,1.6,91.9C1.6,91.9,1.6,91.9,1.6,91.9"/>
<path class="st1" d="M102.3,16.9c0.3,3-1.1,5.9-4.1,8.6C83.8,15,70.2,9.9,56.8,9.8c-2.8,0-5.6,0.2-8.4,0.6c4.3-1.8,8.7-3.2,13.2-4.1
	c11.8-2.5,23.9-1.9,35.4,1.6C99.6,10.3,102,13.4,102.3,16.9"/>
<path class="st1" d="M87.3,140.1c15-13.8,22-43.4,26.2-61.1l0.6-2.7c2.1-9,5.9-15.7,10-19.7c15.1,23.4,13.1,47.6,9.2,62.8
	c-13.5,17.9-34.7,28.5-57.2,28.5C80.3,145.8,84,143.2,87.3,140.1"/>
<path class="st1" d="M114.7,39.7c6.1-5.1,11-9,14.5-11.6c7.6,8.3,13.1,18.2,16.1,29c-2.8-3.8-6.4-7.4-10.3-8.2
	c-3.4-0.7-6.8,0.3-10,2.6C121.8,47.3,118.4,43.4,114.7,39.7"/>
<path class="st1" d="M6.2,73.1c6.9-18.6,32.4-26.3,42-29.1l0.4-0.1c4.2-1.1,8.6-2,12.9-2.6c12.3-2.1,27.6-4.7,36.8-11.6
	c4,3.1,7.8,6.3,11.5,9.8c-20.8,17.7-53,47.4-87.3,83.8C14.4,114.1,8.8,103,6.3,90.9c-1-4.8-1.5-9.7-1.5-14.6
	C5.6,74.5,6.2,73.1,6.2,73.1"/>
<path class="st1" d="M112.3,37.4c-3.6-3.5-7.5-6.8-11.5-9.9c3.5-3.4,5.1-7.1,4.7-11c-0.2-2.3-1.1-4.6-2.4-6.5
	c8.8,3.6,16.9,8.9,23.6,15.7C123.2,28.4,118.3,32.3,112.3,37.4"/>
<path class="st1" d="M95.5,27.6c-8.6,6-22.9,8.4-34.6,10.3c-4.5,0.7-8.9,1.6-13.3,2.7l-0.4,0.1C38,43.5,14.9,50.4,5.3,67.1
	c1.4-10.7,5.2-20.9,11.1-30c5.1-7.8,11.6-14.6,19.2-20C52.6,10,71.6,10.5,95.5,27.6"/>
<path class="st1" d="M134.2,52.2c5,1,10.3,9.4,12.9,14.2c2.2,15.6-0.8,31.5-8.7,45.2c0.4-2.4,0.7-5,0.9-7.6c1.4-17.5-3-35-12.6-49.7
	C129.3,52.5,131.9,51.8,134.2,52.2"/>
<path class="st1" d="M112.2,41.9c3.7,3.6,7.1,7.6,10.1,11.8c-4.9,4.7-9,12.4-11.3,21.8l-0.6,2.8c-4.1,17.3-10.9,46.3-25.2,59.4
	c-4.8,4.5-10.5,7.9-16.8,9.7c-11.1-1.3-21.8-5.1-31.2-11.3c-4.5-3-8.7-6.4-12.5-10.3C59.3,89,91.6,59.3,112.2,41.9"/>
<path class="st1" d="M96.1,97.6L98,97c1.2-0.3,1.9-0.7,1.9-2.4c0-1.4-0.4-4-2.1-4c-1.8,0-1.8,3.1-1.8,4.7L96.1,97.6z"/>
<path class="st1" d="M72.8,96.5c0-6.1-0.2-11.4-4.4-11.4c-3.4,0-4,5.3-4,11.4c0,6.1-0.2,11.4,4,11.4
	C71.9,107.9,72.8,102.6,72.8,96.5"/>
<path class="st1" d="M96.1,97.6L98,97c1.2-0.3,1.9-0.7,1.9-2.4c0-1.4-0.4-4-2.1-4c-1.8,0-1.8,3.1-1.8,4.7L96.1,97.6z"/>
<path class="st1" d="M64,82.5L64,82.5c2.1-3.1,5.8-4.6,9.5-4.6c8.4,0,13.6,7.3,13.6,17c0,11.5-7.8,18.4-17.5,18.4
	c-14.9,0-20.3-12-20.3-25.9c0-16,6.9-29.2,24.2-29.2c6.8,0,12.3,4.4,12.3,11c0.1,3.4-2.6,6.3-6,6.4c-0.2,0-0.3,0-0.5,0
	c-4.7,0-6.1-3.9-6.8-7.3c-0.3-1.5,0.3-4.7-2.1-4.7c-5,0-5.8,9.9-6.1,13.5L64,82.5z"/>
<path class="st1" d="M72.8,96.5c0-6.1-0.2-11.4-4.4-11.4c-3.4,0-4,5.3-4,11.4c0,6.1-0.2,11.4,4,11.4
	C71.9,107.9,72.8,102.6,72.8,96.5"/>
<path class="st1" d="M120.9,85.6c-1.5,0-2.9,0.6-3.8,1.8c-0.1-0.2-0.2-0.5-0.3-0.6l-0.8-1.6l-11.4,3.4v6.3h2.1c0.2,0,0.3,0,0.3,0
	c0.3,0.9,0.4,1.8,0.3,2.7v7.3l-2.1,0.3v6.9H121V105l-2.1-0.3v-2.1c0-1.7,0.2-3.3,0.6-4.9c0.7,0.2,1.4,0.3,2.1,0.3
	c2.8,0,4.8-2.6,4.8-6.2C126.4,88.1,124.2,85.6,120.9,85.6z"/>
<path class="st1" d="M140.8,92.9c-0.1-0.3-0.2-0.7-0.2-1c0-1.9-0.8-6.2-7.7-6.2c-3.8,0-11.3,2.9-11.3,9.8c-0.1,2.1,0.6,4.1,1.8,5.7
	c-1.6,1-2.5,2.8-2.4,4.7c0,2.4,1.2,6.6,9.5,6.6c7.1,0,11.1-3.7,11.1-10.1C141.6,96.3,141.1,94.3,140.8,92.9z"/>
<path class="st1" d="M57.2,56.2c-0.4-0.5-1.1-0.8-1.7-0.8c-1,0-1.9,0.6-2.9,1.7c-3.4,3.6-8.2,5.6-13.2,5.5c-6.9,0-14.1-3.2-19.9-8.7
	c-0.4-0.4-1.1-0.7-1.7-0.7c-2.8,0-3.6,4.5-3.6,4.6v22.6l1.8,0.3c6,1,12.2,0.8,18.1-0.6c-5.8,5.2-18.9,19.3-18.7,32.8
	c0,2.5,1.6,2.7,2.2,2.7c0.6,0,1.3-0.3,1.7-0.7c0.1-0.1,0.2-0.2,0.3-0.3c2.5-1.5,5.4-2.3,8.3-2.2c2.6,0,5.3,0.5,7.7,1.6
	c0.4,0.2,0.9,0.4,1.4,0.4c0.6,0,1.2-0.3,1.7-0.7c0.5-0.7,0.8-1.6,0.6-2.4c-1-9.8,1.2-20.4,5.3-26.6l0.6-0.9
	c3.6-5.2,10.9-16.2,12.3-25.2C57.9,57.7,57.7,56.8,57.2,56.2z"/>
<path class="st1" d="M109.8,99.4l-0.1-1.7c-0.1-1.1-0.2-2.2-0.5-3.2l-0.1-2l-0.4,0.6c-1.5-4.5-5.7-7.5-10.4-7.5
	c-7.3,0-12.4,5.8-12.4,14.1c0,6.4,3.7,12.8,12,12.8c4.6,0.1,9-2.3,11.4-6.3l0.3-0.5l-0.2-6.1L109.8,99.4z M100.9,103.4
	c-0.7,0-1.4-0.4-1.7-1.1l4-1.1C102.6,102.1,101.8,102.8,100.9,103.4L100.9,103.4z"/>
<path class="st1" d="M82.5,79.4c-0.4-0.6-0.9-1.3-1.3-1.8c4-0.7,6.9-4.3,6.8-8.3c0-7.5-6.2-13.1-14.4-13.1
	c-16.5,0-26.4,11.7-26.4,31.3c0,17.8,8.2,28,22.4,28c11.5,0,19.6-8.4,19.6-20.5C89.2,88.9,85.2,83.2,82.5,79.4z"/>
<path class="st0" d="M100.9,105.5c-2.6,0-4.1-2.3-4.3-4.7l11-3c-0.3-5.4-3.4-10.1-9.3-10.1c-6.2,0-10.3,4.8-10.3,12
	c0,5.6,3.2,10.7,9.9,10.7c3.9,0.1,7.5-1.9,9.6-5.2l-2.2-2.6C104.3,104.2,103,105.5,100.9,105.5z M96.1,95.4c0-1.6,0-4.7,1.8-4.7
	c1.7,0,2.1,2.6,2.1,4c0.2,1.2-0.7,2.2-1.8,2.4c0,0-0.1,0-0.1,0l-1.9,0.5L96.1,95.4z"/>
<path class="st0" d="M119,109.8h-11.6v-2.9l2.1-0.3v-9.1c0-3.2-0.4-4.8-2.7-4.8v-2.6l8.2-2.4c0.9,1.9,1.3,3.9,1.4,6h0.1
	c0.8-2.5,1.9-6,4.5-6c2.4,0,3.4,1.8,3.4,4c0,2.3-1,4.1-2.7,4.1c-1-0.1-1.9-0.3-2.7-0.7c-1.5-0.5-2,6-2,7.4v4l2.1,0.3L119,109.8
	L119,109.8z"/>
<path class="st0" d="M138.5,91.9c0,1.8-1.6,2.7-3.2,2.7c-2-0.1-3.5-1.6-3.8-3.6c-0.8,0-1.5,0.4-1.5,1.9c0,3.4,9.5,1,9.5,9.5
	c0,6.4-4.6,8-9,8c-2.7,0-7.4-0.3-7.4-4.5c0-1.9,1-3.3,2.9-3.3c2.9,0,3.4,2.6,3.9,4.5c0.1,0.4,0.5,0.6,1,0.6c1.5,0,2.6-0.6,2.6-1.6
	c0-3.8-9.7-2.3-9.7-10.7c0-5.3,6.2-7.6,9.2-7.6C136.4,87.8,138.5,89,138.5,91.9"/>
<path class="st0" d="M73.6,77.9c-3.7,0-7.5,1.5-9.5,4.6h-0.1l0.4-5.3c0.2-3.6,1-13.5,6.1-13.5c2.4,0,1.9,3.2,2.1,4.7
	c0.6,3.4,2.1,7.3,6.8,7.3c3.4,0.2,6.4-2.5,6.5-6c0-0.2,0-0.3,0-0.5c0-6.6-5.5-11-12.3-11c-17.3,0-24.2,13.2-24.2,29.2
	c0,13.9,5.4,25.9,20.3,25.9c9.7,0,17.5-6.9,17.5-18.4C87.2,85.2,82,77.9,73.6,77.9z M68.4,107.9c-4.1,0-4-5.3-4-11.4
	s0.6-11.4,4-11.4c4.2,0,4.4,5.3,4.4,11.4C72.8,102.6,72,107.9,68.4,107.9z"/>
<path class="st2" d="M16.4,58v20.6c11.5,1.7,25.3,0.6,35.1-13.7c0.4-0.6,0.6-0.2,0.4,0.3c-2.7,5.5-9.2,10.7-14.7,15
	c-5.3,4.2-19.7,19.2-19.5,32.5c0,1,0,0.7,1,0.1c4.4-3.2,12.9-3.3,18.1-0.8c0.7,0.3,0.8,0.2,0.7-0.7c-1-10.3,1.3-21.5,5.7-28
	c3-4.5,11.2-16.1,12.6-25.2c0.2-1-0.3-0.8-1.5,0.5c-9.2,9.8-25.9,9.5-36.7-0.8C16.8,57.1,16.5,57.4,16.4,58"/>
<circle class="st1" cx="36.5" cy="45.6" r="19.8"/>
<polygon class="st0" points="36.5,26.5 37.1,28.6 39.4,28.6 37.5,29.9 38.2,32 36.5,30.7 34.7,32 35.3,29.9 33.5,28.6 35.8,28.6 "/>
<polygon class="st0" points="49.6,34.2 50.3,36.3 52.5,36.3 50.7,37.6 51.3,39.7 49.6,38.4 47.8,39.7 48.5,37.6 46.7,36.3 
	48.9,36.3 "/>
<polygon class="st0" points="43.9,28.3 44.6,30.4 46.9,30.4 45,31.7 45.7,33.8 44,32.5 42.2,33.8 42.9,31.7 41,30.4 43.3,30.4 "/>
<polygon class="st0" points="51.8,41.4 52.4,43.5 54.7,43.5 52.8,44.9 53.5,46.9 51.8,45.7 50,46.9 50.7,44.9 48.9,43.5 51.1,43.5 
	"/>
<polygon class="st0" points="50.8,49.1 51.5,51.2 53.7,51.2 51.9,52.5 52.6,54.6 50.8,53.3 49.1,54.6 49.7,52.5 47.9,51.2 
	50.2,51.2 "/>
<polygon class="st0" points="46.6,55.2 47.2,57.3 49.5,57.3 47.7,58.6 48.3,60.7 46.6,59.5 44.8,60.7 45.5,58.6 43.7,57.3 
	45.9,57.3 "/>
<polygon class="st0" points="39.9,58.6 40.6,60.7 42.8,60.7 41,62.1 41.7,64.1 39.9,62.9 38.2,64.1 38.8,62.1 37,60.7 39.2,60.7 "/>
<polygon class="st0" points="23.1,33.5 22.4,35.6 20.2,35.6 21.9,36.9 21.3,39 23,37.7 24.8,39 24.1,36.9 26,35.6 23.7,35.6 "/>
<polygon class="st0" points="28.5,28.3 27.9,30.4 25.6,30.4 27.4,31.7 26.8,33.8 28.5,32.5 30.3,33.8 29.7,31.7 31.5,30.4 
	29.2,30.4 "/>
<polygon class="st0" points="20.5,40.5 19.8,42.6 17.6,42.6 19.4,43.9 18.7,46 20.5,44.7 22.2,46 21.6,43.9 23.4,42.6 21.2,42.6 "/>
<polygon class="st0" points="21.2,48.2 20.5,50.3 18.2,50.3 20.1,51.6 19.4,53.6 21.1,52.4 22.9,53.6 22.2,51.6 24,50.3 21.8,50.3 
	"/>
<polygon class="st0" points="25.4,54.4 24.7,56.5 22.5,56.5 24.3,57.8 23.6,59.9 25.4,58.6 27.2,59.9 26.5,57.8 28.3,56.5 
	26.1,56.5 "/>
<polygon class="st0" points="32,58.4 31.4,60.5 29.1,60.5 31,61.8 30.3,63.9 32,62.6 33.8,63.9 33.1,61.8 35,60.5 32.7,60.5 "/>
</svg>
