<?xml version="1.0" encoding="utf-8"?>
<!-- Generator: Adobe Illustrator 24.1.1, SVG Export Plug-In . SVG Version: 6.00 Build 0)  -->
<svg version="1.1"
	 id="Layer_1" xmlns:cc="http://creativecommons.org/ns#" xmlns:dc="http://purl.org/dc/elements/1.1/" xmlns:rdf="http://www.w3.org/1999/02/22-rdf-syntax-ns#"
	 xmlns="http://www.w3.org/2000/svg" xmlns:xlink="http://www.w3.org/1999/xlink" x="0px" y="0px" viewBox="0 0 220.5 286.2"
	 style="enable-background:new 0 0 220.5 286.2;" xml:space="preserve">
<style type="text/css">
	.st0{fill:#00471B;}
	.st1{fill:#EEE1C6;}
	.st2{fill:#FFFFFF;}
</style>
<g>
	<path class="st0" d="M116.6,283.7c-0.5,0-0.9-0.1-1.3-0.4c-0.9-0.6-1.4-1.6-1.1-2.7l10.8-49.1l-12.7,15.6c-0.5,0.6-1.2,0.9-1.9,0.9
		c0,0,0,0,0,0c-0.7,0-1.5-0.3-1.9-0.9l-12.9-15.7l10.9,49.2c0.2,1-0.2,2.1-1.1,2.7c-0.4,0.2-0.9,0.4-1.3,0.4c-0.6,0-1.1-0.2-1.6-0.6
		l-42-34.6c-0.8-0.6-1.1-1.7-0.8-2.6l15.3-54.4c0.1-0.5,0.4-0.9,0.8-1.3L68,178.1c-0.4-0.6-0.5-1.4-0.3-2l1.6-5.4l-11.8-0.8
		c-8.7-0.6-11.8-1.8-13.7-2.8c-9-4.9-10.9-20.6-11.1-22.4l-0.6-4.8c-0.2-1.5,0.1-2.9,1-3.9c0.7-0.9,1.8-1.4,2.9-1.4
		c0.5,0,1.1,0.1,1.6,0.3l5,2C19.8,117.3-3.3,93,3.8,57.6c7.1-35.6,35.8-46.4,37-46.8c0.3-0.1,0.6-0.1,0.8-0.1c0.9,0,1.8,0.5,2.2,1.3
		c0.6,1.1,0.3,2.5-0.7,3.2c-4.8,3.5-15.4,13-21.7,31c1.9-1.8,3.7-3.3,5.6-4.7C40.3,13.7,62.7,4.7,69.4,2.6c0.3-0.1,0.5-0.1,0.8-0.1
		c1,0,1.9,0.6,2.3,1.5c0.5,1.2,0.1,2.5-1,3.2C61,13.5,52.1,22.3,45.9,32.6c9.3-2.7,15.5-2.9,17.4-2.9c0.5,0,0.8,0,0.8,0
		c1.2,0.1,2.2,1,2.3,2.3c0.1,1.2-0.7,2.4-1.9,2.7c-0.1,0-12.3,3.1-25.6,12.8C36.3,55.1,35,63.2,35,71.4c0,15.2,4.9,30.9,13.4,42.8
		c3,4.3,6.1,7.8,9.5,11c-1.8-14,0.1-41.2,29.7-53.1c0.3-0.1,0.6-0.2,0.9-0.2c0.9,0,1.8,0.5,2.2,1.3c0.6,1.1,0.2,2.5-0.8,3.2
		l-0.3,0.2C83.7,80.6,79,86,76,92.2c4.5-2.3,8.7-2.8,11.3-3.2c0,0,0.4-0.1,0.4-0.1c0.1,0,0.2,0,0.4,0c1.3,0,2.4,1,2.5,2.3
		c0.1,1-0.5,1.9-1.3,2.4c-0.1,0.1-0.2,0.1-0.3,0.2c-9.2,5.4-14.3,11.7-15.3,18.8c-1.2,9,4.6,17.2,7.5,20.7
		c10.1-10.3,15.4-30.8,15.4-31c0.3-1.1,1.3-1.9,2.4-1.9c0.1,0,0.2,0,0.3,0c1.3,0.2,2.2,1.2,2.2,2.5c0.1,19.6-5.9,32.1-10.5,38.8
		c8.4,4.9,17,5.1,18.8,5.1c0.2,0,0.5,0,0.6,0c0,0,0.1,0,0.4,0c1.8,0,10.4-0.3,18.8-5.1c-4.5-6.7-10.6-19.2-10.5-38.8
		c0-1.3,0.9-2.3,2.2-2.5c0.1,0,0.2,0,0.3,0c1.1,0,2.1,0.8,2.4,1.9c0.1,0.2,5.3,20.7,15.4,31c2.9-3.5,8.7-11.7,7.5-20.7
		c-0.9-7.1-6.1-13.4-15.3-18.8c-0.1,0-0.2-0.1-0.3-0.2c-0.8-0.5-1.4-1.4-1.3-2.4c0.1-1.3,1.2-2.3,2.5-2.3c0.1,0,0.2,0,0.3,0
		c0,0,0.6,0.1,0.6,0.1c2.6,0.3,6.7,0.9,11.2,3.1c-3-6.2-7.7-11.6-13.6-15.4l-0.3-0.2c-1.1-0.7-1.4-2.1-0.8-3.2
		c0.4-0.8,1.3-1.3,2.2-1.3c0.3,0,0.6,0.1,0.9,0.2c29.6,11.9,31.5,39.1,29.7,53.1c3.5-3.2,6.5-6.7,9.5-11
		c8.5-12.1,13.4-27.7,13.4-42.8c0-8.1-1.3-16.2-3.9-24.1c-13.3-9.7-25.5-12.8-25.6-12.8c-1.2-0.3-2-1.4-1.9-2.7
		c0.1-1.2,1.1-2.2,2.3-2.3c0,0,0.3,0,0.8,0c1.9,0,8.2,0.2,17.5,2.9c-6.2-10.2-15.1-19.1-25.6-25.4c-1.1-0.7-1.5-2-1-3.2
		c0.4-0.9,1.3-1.5,2.3-1.5c0.3,0,0.5,0,0.8,0.1c6.6,2.1,29,11,42.2,38.8c1.9,1.3,3.8,2.8,5.6,4.6c-4.6-13-12.2-24-21.7-30.9
		c-1-0.7-1.3-2.1-0.7-3.2c0.4-0.8,1.3-1.3,2.2-1.3c0.3,0,0.6,0,0.8,0.1c1.2,0.4,29.9,11.2,37,46.8c7.1,35.4-16,59.8-38.8,79.4l5-2
		c0.5-0.2,1-0.3,1.6-0.3c1.1,0,2.2,0.5,2.9,1.4c0.9,1,1.2,2.5,1,3.9l-0.6,4.8c-0.2,1.7-2.1,17.4-11.1,22.4c-2,1.1-5.2,2.2-13.6,2.8
		l-11.8,0.8l1.6,5.4c0.2,0.7,0.1,1.4-0.3,2l-7.7,12.2c0.4,0.3,0.7,0.8,0.8,1.3L161,246c0.3,1-0.1,2-0.8,2.6l-42,34.6
		C117.7,283.5,117.2,283.7,116.6,283.7z"/>
	<path class="st1" d="M70.1,5L70.1,5 M70.1,5L70.1,5c-12.5,7.6-23,18.9-29.5,31.9c12.3-4.4,20.4-4.7,22.7-4.7c0.4,0,0.6,0,0.6,0
		s-13,3.2-27.2,13.7c-2.8,8-4.3,16.7-4.3,25.6c0,15.8,5.1,32,13.9,44.3c4.9,6.9,9.7,11.7,15.6,16.2C60,127,52.5,89,88.5,74.5
		l-0.3,0.2c-8.5,5.5-14.7,14.1-17.3,24.2c6.5-6.2,13.4-6.9,17.1-7.4c-0.1,0-0.1,0.1-0.2,0.1c-33.4,19.3-6.8,45.3-6.8,45.3
		c10.5-8.9,16.7-28.6,18-34c0.1,20.9-6.8,33.4-11.6,39.5c9.5,6.6,20.1,6.9,22.4,6.9c0.3,0,0.5,0,0.5,0s0.2,0,0.5,0
		c2.3,0,12.8-0.4,22.4-6.9c-4.7-6.1-11.7-18.6-11.6-39.5c1.3,5.4,7.5,25.1,18,34c0,0,26.6-26.1-6.8-45.3c-0.1,0-0.1-0.1-0.2-0.1
		c3.7,0.5,10.6,1.1,17.1,7.4c-2.5-10.1-8.8-18.7-17.3-24.2l-0.3-0.2c36,14.4,28.5,52.5,26.6,57.4c5.9-4.4,10.7-9.2,15.6-16.2
		c8.8-12.4,13.9-28.6,13.9-44.3c0-9-1.5-17.5-4.3-25.6c-14.2-10.5-27.2-13.7-27.2-13.7s0.2,0,0.6,0c2.3,0,10.4,0.3,22.7,4.7
		c-6.4-13-16.8-24.3-29.5-31.9c9.7,3.1,29.4,13.2,41,38.1c4.7,3.2,8.7,7.2,12.9,12.5c-4.4-20.4-15-34.9-25.5-42.6
		c0,0,28.5,10.3,35.4,45c8.1,40.3-24.2,65.6-50.3,87.2l19.8-8.1c0.2-0.1,0.4-0.1,0.6-0.1c1,0,1.6,1.2,1.4,2.4l-0.6,4.9
		c-0.3,2.7-2.3,16.4-9.8,20.5c-1.6,0.9-4.4,1.9-12.6,2.5l-14.9,1l2.5,8.4l-14.6,23.4l7.5-7.9l15.3,54.4l-42,34.6l13.1-59.4
		l-19.4,23.8l-19.5-23.8l13.1,59.4l-42-34.6l15.3-54.4l7.5,7.9l-14.6-23.4l2.5-8.4l-14.9-1c-8.3-0.6-11.1-1.6-12.6-2.5
		c-7.5-4.1-9.5-17.8-9.8-20.5l-0.6-4.9c-0.2-1.3,0.4-2.4,1.4-2.4c0.2,0,0.4,0,0.6,0.1l19.8,8.1C30.4,123.6-1.8,98.4,6.3,58.1
		c6.9-34.7,35.4-45,35.4-45c-10.4,7.7-21.1,22.2-25.5,42.6c4.3-5.3,8.3-9.3,12.9-12.5C40.6,18.2,60.4,8.1,70.1,5 M132.5,91.5
		C132.5,91.5,132.5,91.5,132.5,91.5C132.5,91.5,132.5,91.5,132.5,91.5 M88,91.5L88,91.5 M88,91.5C88,91.5,88,91.5,88,91.5
		C88,91.5,88,91.5,88,91.5 M70.1,0c-0.2,0-0.3,0-0.5,0c-0.4,0-0.8,0.1-1.1,0.2c-3.8,1.2-12.5,4.6-21.8,12.1
		c-0.1-0.6-0.3-1.1-0.5-1.6c-0.9-1.7-2.6-2.6-4.4-2.6c-0.6,0-1.1,0.1-1.7,0.3C38.7,8.8,8.8,20.1,1.4,57.1
		c-6.6,33,11.8,56.5,32.5,75.4c-1,0.4-1.9,1-2.6,1.9c-1.3,1.6-1.9,3.7-1.5,5.9l0.6,4.8c0.3,3.2,2.5,18.9,12.4,24.3
		c2.2,1.2,5.5,2.5,14.7,3.1L66,173l-0.7,2.4c-0.4,1.4-0.2,2.9,0.6,4.1l6.8,10.8c-0.1,0.2-0.2,0.4-0.2,0.7l-15.3,54.4
		c-0.5,1.9,0.1,4,1.6,5.2l42,34.6c0.9,0.8,2,1.1,3.2,1.1c0.9,0,1.8-0.2,2.6-0.7c1.8-1.1,2.7-3.3,2.3-5.3l-8.6-39.1l6.3,7.7
		c0.9,1.2,2.4,1.8,3.9,1.8c0,0,0,0,0,0c1.5,0,2.9-0.7,3.9-1.8l6.1-7.4l-8.6,38.8c-0.5,2.1,0.5,4.2,2.3,5.3c0.8,0.5,1.7,0.7,2.6,0.7
		c1.1,0,2.3-0.4,3.2-1.1l42-34.6c1.5-1.3,2.2-3.3,1.6-5.2l-15.3-54.4c-0.1-0.2-0.1-0.4-0.2-0.7l6.8-10.8c0.8-1.2,1-2.7,0.6-4.1
		l-0.7-2.4l8.7-0.6c8.9-0.6,12.3-1.9,14.6-3.1c0,0,0,0,0.1,0c9.9-5.4,12-21.2,12.4-24.3l0.6-4.8c0.3-2.2-0.2-4.3-1.5-5.9
		c-0.7-0.9-1.6-1.5-2.6-1.9c20.7-18.9,39.1-42.4,32.5-75.4c-7.4-37-37.4-48.2-38.6-48.7c-0.6-0.2-1.1-0.3-1.7-0.3
		c-1.8,0-3.5,1-4.4,2.6c-0.3,0.5-0.5,1.1-0.5,1.7c-9.4-7.6-18.2-11-21.9-12.2c-0.5-0.2-1-0.2-1.5-0.2c-1.9,0-3.7,1.1-4.6,2.9
		c-1,2.3-0.2,5,2,6.3c8.3,5,15.5,11.6,21.2,19.3c-5.8-1.2-9.9-1.4-11.8-1.4c-0.6,0-0.9,0-0.9,0c-2.5,0.2-4.5,2.1-4.7,4.6
		c-0.2,2.5,1.4,4.7,3.8,5.3c0.1,0,11.5,2.9,24.1,11.9c2.4,7.3,3.6,14.9,3.6,22.5c0,14.6-4.7,29.7-13,41.4c-1.5,2.1-3,4-4.6,5.8
		c0.3-15.5-5-38.1-31.7-48.8c-0.6-0.2-1.2-0.4-1.9-0.4c-1.8,0-3.5,1-4.4,2.7c-1.2,2.3-0.5,5.1,1.7,6.5l0.3,0.2c0,0,0,0,0.1,0
		c3.6,2.3,6.7,5.2,9.2,8.5c-2-0.5-3.7-0.7-5.1-0.9l-0.5-0.1c-0.2,0-0.5,0-0.7,0c-2.6,0-4.8,2-5,4.7c-0.1,2,0.9,3.8,2.5,4.7
		c0.1,0.1,0.3,0.2,0.5,0.2c8.4,4.9,13.1,10.6,13.9,16.9c0.8,6.5-2.5,12.7-5.2,16.5c-6.9-8.5-11.5-22.4-12.8-27.7
		c-0.6-2.2-2.6-3.8-4.8-3.8c-0.2,0-0.4,0-0.6,0c-2.5,0.3-4.4,2.4-4.4,4.9c-0.1,18.1,4.9,30.5,9.4,37.9c-7,3.4-13.7,3.6-15.2,3.6
		c-0.1,0-0.2,0-0.3,0c-0.1,0-0.1,0-0.2,0c-0.1,0-0.1,0-0.2,0c0,0-0.1,0-0.3,0c-1.5,0-8.2-0.2-15.2-3.6c4.5-7.4,9.5-19.7,9.4-37.9
		c0-2.5-1.9-4.6-4.4-4.9c-0.2,0-0.4,0-0.6,0c-2.3,0-4.3,1.5-4.8,3.8c-1.3,5.3-5.9,19.2-12.9,27.7c-2.7-3.8-6-10-5.2-16.5
		c0.8-6.3,5.5-11.9,13.9-16.9c0.2-0.1,0.3-0.2,0.5-0.2C92,95,93,93.3,93,91.5c0-2.8-2.2-5-5-5h0c0,0,0,0,0,0c0,0,0,0,0,0
		c-0.2,0-0.5,0-0.7,0.1l-0.4,0c-1.3,0.2-3.1,0.4-5.2,0.9c2.5-3.3,5.6-6.2,9.2-8.6c0,0,0,0,0.1,0l0.3-0.2c2.1-1.4,2.8-4.2,1.6-6.5
		c-0.9-1.7-2.6-2.7-4.4-2.7c-0.6,0-1.3,0.1-1.9,0.4C60,80.6,54.7,103.2,55,118.7c-1.6-1.8-3.1-3.7-4.6-5.8
		c-8.2-11.6-12.9-26.7-12.9-41.4c0-7.7,1.2-15.2,3.6-22.5C53.6,39.9,65,37,65.1,37c2.4-0.6,4-2.8,3.8-5.3c-0.2-2.5-2.2-4.4-4.7-4.5
		c0,0-0.3,0-0.9,0c-1.9,0-5.9,0.2-11.7,1.4c5.6-7.6,12.9-14.2,21-19.2c1.5-0.9,2.5-2.5,2.5-4.3c0-2.7-2.1-4.9-4.8-5
		C70.3,0,70.2,0,70.1,0L70.1,0z M70.1,10L70.1,10L70.1,10L70.1,10z"/>
</g>
<path class="st1" d="M24.7,56.8c-1.3,1.3-2.5,2.7-3.7,4.1c-11.2,14.5,5.3,40.5,5.3,40.5S20.1,73.4,24.7,56.8L24.7,56.8z M196,56.8
	c4.7,16.6-1.5,44.7-1.5,44.7s16.5-26,5.2-40.5C198.5,59.5,197.2,58.1,196,56.8L196,56.8z"/>
<path class="st2" d="M41.7,144.2c0,0,1.4,12.2,6.5,15c3.5,1.9,11.8,1.7,19.3,2.3C59.3,158.4,47.3,149.7,41.7,144.2L41.7,144.2z
	 M179,144.2c-5.7,5.5-17.6,14.2-25.8,17.3c7.3-0.6,15.8-0.4,19.3-2.3C177.6,156.5,179,144.2,179,144.2L179,144.2z M134.7,162.6
	c-0.2,0-0.4,0-0.6,0.1c-4,1.8-8,3.7-10.1,4.6c-0.9,0.4-1.1,1.5-0.4,2.1c2,2,5.8,3.9,10.3,0.5c2.4-1.8,2.4-4.5,2.1-6.3
	C135.9,163.1,135.3,162.6,134.7,162.6L134.7,162.6z M86,162.7c-0.6,0-1.2,0.4-1.2,1.1c-0.3,1.7-0.3,4.4,2.1,6.3
	c4.4,3.5,8.3,1.5,10.3-0.5c0.6-0.7,0.4-1.7-0.5-2.1c-2.1-1-6.2-2.8-10.1-4.6C86.4,162.7,86.2,162.7,86,162.7L86,162.7z M105.8,172.1
	l-3.9,12.9c0,0-1.3,5.1-6.9,8.7l-2.4,10.6l5.9,8h6.3l-5.8-8.6l1-5.3c2.6,2.8,6.4,4.6,10.5,4.6c4.1,0,7.9-1.7,10.5-4.6l1,5.3
	l-5.8,8.6h6.3l5.9-8l-2.4-10.6c-5.6-3.6-6.9-8.7-6.9-8.7l-3.9-12.9l-4.5,2.2L105.8,172.1L105.8,172.1z M101.9,217.1l4,5.5h8.9l4-5.5
	H101.9L101.9,217.1z"/>
</svg>
