<?xml version="1.0" encoding="utf-8"?>
<!-- Generator: Adobe Illustrator 24.1.1, SVG Export Plug-In . SVG Version: 6.00 Build 0)  -->
<svg version="1.1" id="Layer_1" xmlns="http://www.w3.org/2000/svg" xmlns:xlink="http://www.w3.org/1999/xlink" x="0px" y="0px"
	 viewBox="0 0 1469.9 1263.8" style="enable-background:new 0 0 1469.9 1263.8;" xml:space="preserve">
<style type="text/css">
	.st0{fill:#FFB81C;}
	.st1{fill:#FDB71D;}
	.st2{fill:#6F2633;}
	.st3{fill:#041E42;}
	.st4{fill:#6F263D;}
	.st5{fill:#051442;}
</style>
<g>
	<path class="st0" d="M933.1,560.2c4.5-10.9,10.5-21,15.7-31.5c11.6-23.1,23.4-46.2,35.1-69.2c14.5-28.5,29.1-56.8,43.4-85.4
		c14.5-28.9,30-57.4,42.5-87.3c3.2-7.8,5.9-15.8,9.1-24.4c-9.4-0.6-18.2,0-27,1.8c-26,5.2-50.9,13.7-75.6,23.2
		c-28.8,11-57,23.2-84.3,37.7c-54.2,28.8-104.6,63.2-152.6,101.3c-34.8,27.6-68,56.9-98.6,89c-34.9,36.6-67.4,75.3-98.9,114.9
		c-27.8,35.1-54.3,71.1-79.2,108.3c-16.9,25.2-32.7,51.1-46.7,78c-9.7,18.7-18.6,37.7-25.5,57.7c-5,14.5-8.3,29.4-9.4,44.8
		c-1,14.3,8.4,25.2,23.1,28.5c25.2,5.6,50.5,5.7,76,3.3c32-3.1,63.3-9.8,94.5-17.3c27.8-6.7,55.3-14.4,82.6-22.5
		c27-8.1,53.9-16.4,80.6-25.6c24.9-8.6,50.1-16.5,75-25.2c26.6-9.3,53.1-19,79.6-28.7c25.5-9.3,51.1-18.6,76.5-28.3
		c26.9-10.3,53.7-21.1,80.5-31.8c23.4-9.3,46.9-18.5,70.1-28.2c27.1-11.3,53.8-23.4,80.9-34.5c28.2-11.5,53.8-27.9,80.4-42.4
		c8.4-4.6,16.7-9.2,25.7-14.2c-2.2,11.6-4.3,22.5-6.4,33.4c-3.7,18.7-7.5,37.5-11.2,56.2c-3.6,17.9-7.3,35.8-10.8,53.7
		c-3.5,17.6-6.8,35.2-10.2,52.8c-1.2,6-2.3,12.1-3.5,18.1c-1,5-3.3,8.9-7.4,12.3c-47.9,41-97.8,79.3-149.8,114.9
		c-37.1,25.3-75,49.3-113.8,72c-37.4,21.9-75.5,42.4-114.3,61.5c-29.3,14.4-59.1,27.8-89.2,40.5c-29.5,12.4-59.3,24-89.6,34.5
		c-23.5,8.2-47.2,15.6-71.2,22.4c-21.4,6.1-42.9,11.8-64.6,16.6c-24,5.3-48.2,9.7-72.5,13.4c-39.6,6.2-79.4,9-119.4,9.5
		c-28.8,0.3-57.6-0.9-86.2-4.8c-32-4.4-63.4-11.6-93.5-23.7c-39.8-16-76.9-36.7-108.5-66.1c-23.9-22.2-43-48.1-56-78.2
		c-9.8-22.7-18.9-45.7-23.1-70.2c-4.2-24.3-6.6-48.9-5.5-73.6c1-22.3,3.3-44.4,7.5-66.4c3.5-18.1,7.8-36,13.1-53.7
		c6.1-20.3,13.5-40.2,21.8-59.8c8.8-20.8,18.7-41,29.5-60.8c13.2-23.9,27.3-47.3,42.7-69.9c14.4-21.1,29.6-41.6,45.3-61.7
		c0.3-0.4,0.4-0.8,1.1-2.1c-50,12.3-99.4,24.5-149.7,36.9c2.9-6.6,6.7-11.5,10-16.6C39.4,565.5,57.2,538,75,510.4
		c17.3-26.7,34.8-53.2,51.7-80.2c7.9-12.6,20.1-20,31.1-28.8c25.8-20.8,52.7-40.2,79.9-59.1c30.8-21.4,62.1-42,93.8-61.9
		c32.3-20.3,65-39.8,98.2-58.5c26.9-15.1,54-29.7,81.4-43.8c27.4-14.1,55-27.7,82.9-40.6c26-12.1,52.3-23.5,78.8-34.4
		c29.9-12.3,60.1-24,90.6-34.7c26.5-9.3,53.2-17.7,80.2-25.5c30.3-8.7,60.9-16.5,91.8-23c22.9-4.8,46-8.9,69.2-12.1
		c44.5-6.1,89.1-8.9,134-7.6c32.8,1,65.4,4.5,97.6,11.2c29.6,6.1,58.5,14.8,86.4,26.8c50.1,21.5,94.4,51.3,132.1,90.8
		c4.8,5,11.4,9.3,13.8,15.2c2.4,6,0.7,13.8,0.7,20.8c0,27.3-0.1,54.7,0.1,82c0,3.4-1,5.3-4.1,7c-25,14.4-49.8,29-74.7,43.5
		c-22.9,13.3-45.9,26.6-68.8,39.9c-27.1,15.7-54.1,31.6-81.1,47.3c-24.9,14.5-50,28.8-74.9,43.2c-25,14.4-49.8,29-74.8,43.4
		c-19.9,11.5-40,23-59.9,34.4c-20,11.5-39.9,22.9-59.9,34.3c-11.2,6.4-22.5,12.7-33.8,18.9C936,559.9,934.6,560.8,933.1,560.2
		L933.1,560.2z M1028,475.2c3.7,0.7,5.8-2.4,8.4-3.9c27.6-16.5,55-33.2,82.5-49.8c23.7-14.3,47.4-28.5,71-42.8
		c29.2-17.6,58.3-35.4,87.4-53c23.8-14.4,47.6-28.7,71.4-43.1c27.2-16.5,54.3-33.1,81.6-49.4c3-1.8,3.8-3.5,3.7-6.6
		c-0.2-11.5-0.3-23-0.4-34.5c-0.1-9.9,0-19.8,0-30.5c-1.6,0.8-2.2,1-2.7,1.3c-11.6,7.1-23.1,14.2-34.7,21.3
		c-32.1,19.5-64.2,39-96.3,58.6c-39.9,24.4-79.8,49-119.7,73.5c-30.2,18.5-60.6,36.7-90.7,55.3c-4.2,2.6-9.5,4.2-12,9.2
		c-3.4,6.6-6.5,13.3-10,19.9c-8.5,16.3-17.2,32.5-25.7,48.8c-4.5,8.6-9.1,17.2-13.6,25.9c-0.2,0.2-0.4,0.4-0.6,0.6
		c0.2,0,0.4,0,0.6,0.1C1028.1,475.6,1028,475.4,1028,475.2z M1252,752.2c-12.1,11-24.1,22.2-36.3,33.1
		c-36.8,32.7-75.2,63.4-114.9,92.4c-32.3,23.6-65.5,46.1-99.4,67.5c-25.5,16.1-51.2,31.7-77.5,46.4c-20.6,11.5-41.5,22.8-62.5,33.7
		c-17.6,9.1-35.4,17.8-53.3,26.2c-18.7,8.8-37.7,17.1-56.7,25.3c-18.1,7.8-36.4,15-54.9,22c-18.4,7-37,13.6-55.7,19.8
		c-17.5,5.8-35.1,11.1-52.8,16.1c-21.5,6.2-43.2,11.7-65.1,16.4c-25,5.4-50.2,9.8-75.6,13.3c-32.2,4.5-64.6,6.6-97,7.6
		c-19.2,0.6-38.3-0.6-57.4-1.9c-18.8-1.2-37.4-3.7-55.9-7.4c-24.6-4.9-48.5-12.3-71.4-22.7c-20.2-9.2-39.6-19.8-57.8-32.6
		c-17.5-12.4-32.6-27.2-46.5-43.5c-0.2-0.3-0.5-0.6-0.7-0.9c-0.6,0.5-0.3,1,0.1,1.4c12.4,33.8,33.5,61.3,61,84.2
		c19.6,16.3,41.3,29.2,64.3,40.1c23.5,11.1,47.8,19.8,73.2,25.2c32.6,6.9,65.7,10.3,99.1,10.2c21.5-0.1,43,0.3,64.4-1.5
		c21.9-1.8,43.7-4.1,65.4-7.5c19.5-3.1,39-6.4,58.3-10.6c25.8-5.6,51.3-12.1,76.7-19.4c20.7-6,41.3-12.4,61.7-19.5
		c27.9-9.7,55.4-20.2,82.6-31.5c28.3-11.7,56.3-24.2,83.9-37.5c40.3-19.4,79.8-40.3,118.5-62.8c39.7-23.1,78.6-47.7,116.6-73.7
		c48.2-33.1,94.5-68.6,139.2-106.3c3.9-3.3,7.3-6.6,8-12.4c0.5-4.5,1.7-9.1,2.7-13.7c4.7-22.1,9.6-44.1,14.2-66.2
		c0.6-3.1,2.5-6.2,1.4-9.5c0.2,0,0.5,0.1,0.7,0.1c0-0.1,0-0.3,0-0.4C1252.5,751.9,1252.2,752,1252,752.2z M1232.9,738
		c-1.1,0.3-2.3,0.5-3.3,0.9c-14.9,6.4-29.8,13-44.7,19.4c-17.7,7.5-35.5,14.8-53.3,22.2c-19,7.9-38,15.7-57.1,23.5
		c-15.8,6.4-31.7,12.6-47.7,18.9c-19.5,7.6-38.9,15.2-58.5,22.6c-20.2,7.6-40.4,15.1-60.6,22.5c-20.6,7.5-41.1,15-61.8,22.3
		c-18.6,6.6-37.3,12.9-56,19.3c-22.5,7.6-44.9,15.3-67.5,22.5c-21.3,6.8-42.8,13.3-64.3,19.6c-24.6,7.1-49.3,13.7-74.2,19.3
		c-23.6,5.3-47.4,10-71.5,13.4c-31.2,4.5-62.4,7.1-94,5.9c-23.6-0.9-46.7-4.3-68.7-12.9c-17.4-6.8-32.6-16.9-44.1-31.9
		c-14.1-18.4-19.1-39.6-19.4-62.2c-0.4-33.6,8.5-65.4,20.4-96.5c11.1-29,25-56.7,40.3-83.8c19.1-33.9,40.2-66.4,62.7-98
		c30.4-42.6,63-83.3,97.3-122.7c24.5-28.1,49.3-56,76.4-81.7c33-31.5,67.5-61.4,103.5-89.5c25.4-19.8,51.4-38.6,78.9-55.5
		c19.1-11.8,38.8-22.3,58.3-33.2c25.1-14,51-26.4,77.6-37.3c28.3-11.6,57-21.8,87-28.3c27.1-5.9,54.2-10.5,82-5.5
		c12.1,2.2,23.4,6.1,33.2,13.7c15.8,12.3,21.4,29.5,22.1,48.7c0.8,22.6-4.5,44.2-11.5,65.4c-6.2,18.6-13.9,36.6-22.4,54.2
		c-2,4.1-4.7,8.1-5.8,13.2c1.2-0.4,1.8-0.6,2.4-0.9c23.4-14.4,46.8-29,70.3-43.4c35.2-21.6,70.6-42.9,105.8-64.5
		c38.6-23.6,77.1-47.4,115.7-71.1c10.3-6.3,20.8-12.4,31-18.9c1-0.7,5.6-1.2,1.8-4.7c-18.3-17-38.1-32-59.4-44.9
		c-38.5-23.2-80.1-38.4-123.9-47.8c-35.4-7.6-71.4-10.9-107.5-11.1c-34.8-0.2-69.5,2-104.1,6.5c-22.1,2.9-44.1,6.3-65.9,10.6
		c-27.5,5.5-54.8,12.1-81.8,19.6c-27.9,7.7-55.4,16.2-82.8,25.4c-23.4,7.9-46.5,16.6-69.6,25.6c-25.5,9.9-50.8,20.4-75.8,31.5
		c-25,11-49.8,22.7-74.4,34.7c-28.3,13.8-56.3,28.2-84,43.2c-29.3,15.9-58.2,32.5-86.8,49.5c-34.6,20.6-68.7,42.1-102.2,64.6
		c-40.6,27.3-80.4,55.8-118.6,86.3c-4.6,3.7-9.1,7.5-13.7,11.3c70.3-18.4,140.9-33.7,210.8-49.6c-4.6,5-9.2,10.4-14.2,15.3
		c-33.6,32.8-66.2,66.6-97.3,101.8c-27.5,31-53.8,63.1-78.4,96.5c-23.9,32.5-45.9,66.2-65.5,101.4c-11.6,20.9-22.3,42.3-31.5,64.4
		c-7.1,17-13.4,34.3-18.7,51.9c-6.3,20.7-11.1,41.8-13.2,63.3c-2.3,23.5-2.5,47.1,1.7,70.7c4.4,25,12.8,48.4,26.3,69.9
		c22.7,36,55.1,60.6,93.2,78.1c24.8,11.4,51,18.9,77.9,24c29.7,5.6,59.7,8,89.9,8c24.5,0,48.9-1.2,73.3-3.7
		c24.5-2.5,48.8-6.1,73-10.6c21.2-3.9,42.3-8.6,63.1-14.2c18.7-5.1,37.5-10.1,56-15.8c22.2-6.9,44.1-14.5,65.9-22.6
		c19.1-7.1,38.1-14.5,56.9-22.5c27.8-11.7,55.3-24.3,82.4-37.6c31.8-15.5,63-32,93.7-49.4c34.3-19.4,68-40.1,101.1-61.5
		c34.9-22.7,69.1-46.3,102.7-70.9c35.2-25.8,69.5-52.6,103.2-80.4c6.4-5.2,13.2-9.9,18.6-16.2c0.4-0.2,1.5-0.1,1.1-0.9
		C1234.1,737,1233.3,737.4,1232.9,738z M343.1,939.1c-0.4-4-0.8-7.2-0.9-10.3c-1.2-24.2,4.6-47.2,12.5-69.8
		c10.1-29,23.9-56.4,39-83.1c23.4-41.4,50.1-80.7,78.2-119c33.6-45.8,69.5-89.7,107.1-132.3c24.2-27.4,49.3-53.8,76.3-78.4
		c44.2-40.3,91.3-77.1,141.3-110.1c22.1-14.6,44.7-28.3,68-41c18.4-10,37-19.3,56.2-27.6c18.5-8,37.3-15.6,56.3-22.5
		c18.5-6.8,37.3-12.8,56.6-17.2c20.2-4.6,40.6-7.5,61.3-3c2.1,0.5,2.7,0,2.8-2c0.5-12-0.7-23.7-7.3-34.1
		c-8.4-13.1-21.7-17.5-36.2-18.6c-26.2-1.9-51.2,4.9-75.9,12.4c-29.7,9-58.4,20.5-86.8,32.9c-35.1,15.3-68.6,33.8-101.1,54.1
		c-37.6,23.5-73.6,49.4-108.2,77.2c-48.2,38.7-92.7,81.1-133.4,127.7c-42.8,49.1-83.6,99.7-121.4,152.7c-23,32.2-44.5,65.4-63.8,100
		c-14.7,26.3-28,53.4-37.7,82.1c-7.8,23-13.1,46.4-11.2,70.9C316.2,903.2,324.5,923.1,343.1,939.1z M103.7,546.2
		c4.5-1,8.2-1.8,11.9-2.7c18.1-4.4,36.1-9,54.1-13.4c18.4-4.5,36.8-8.7,55.2-13.2c2.5-0.6,4.7-1.7,6.6-4
		c18.3-21.4,37.2-42.3,56.8-62.5c3.1-3.2,6.7-5.9,9.4-10.2c-14.4,3.2-28.2,6.2-41.9,9.3c-29.9,6.9-59.8,13.8-89.8,20.7
		c-5.1,1.2-9.3,3.1-12.6,7.8c-9.8,13.9-20.2,27.4-30.3,41.1C116.8,527.8,110.6,536.7,103.7,546.2z"/>
	<path class="st1" d="M933,560.2c-0.1,0.2-0.2,0.4-0.3,0.5c0-0.1-0.1-0.3,0-0.3C932.8,560.3,933,560.3,933,560.2
		C933.1,560.2,933,560.2,933,560.2z"/>
	<path class="st2" d="M1233.3,738.5c-5.4,6.3-12.3,11-18.6,16.2c-33.7,27.7-68,54.6-103.2,80.4c-33.6,24.6-67.8,48.3-102.7,70.9
		c-33.1,21.5-66.8,42.1-101.1,61.5c-30.7,17.4-62,33.9-93.7,49.4c-27.2,13.2-54.6,25.8-82.4,37.6c-18.8,7.9-37.8,15.4-56.9,22.5
		c-21.8,8.1-43.7,15.7-65.9,22.6c-18.5,5.7-37.3,10.7-56,15.8c-20.8,5.7-41.9,10.3-63.1,14.2c-24.2,4.5-48.5,8.1-73,10.6
		c-24.4,2.5-48.8,3.7-73.3,3.7c-30.2,0-60.2-2.4-89.9-8c-26.8-5.1-53-12.6-77.9-24c-38.1-17.6-70.5-42.1-93.2-78.1
		C68.8,1012.4,60.4,989,56,964c-4.1-23.5-3.9-47.1-1.7-70.7c2.1-21.5,6.9-42.6,13.2-63.3c5.3-17.6,11.6-34.9,18.7-51.9
		c9.2-22.1,19.9-43.5,31.5-64.4c19.6-35.2,41.6-68.9,65.5-101.4c24.6-33.4,50.9-65.5,78.4-96.5c31.2-35.1,63.7-68.9,97.3-101.8
		c5-4.9,9.6-10.3,14.2-15.3c-69.9,16-140.5,31.2-210.8,49.6c4.6-3.8,9.1-7.6,13.7-11.3c38.3-30.5,78-59.1,118.6-86.3
		c33.5-22.5,67.6-43.9,102.2-64.6c28.6-17.1,57.5-33.6,86.8-49.5c27.7-15,55.7-29.4,84-43.2c24.6-12,49.4-23.7,74.4-34.7
		c25-11,50.3-21.6,75.8-31.5c23-9,46.2-17.7,69.6-25.6c27.3-9.3,54.9-17.8,82.8-25.4c27.1-7.4,54.3-14.1,81.8-19.6
		c21.8-4.3,43.8-7.7,65.9-10.6c34.6-4.5,69.2-6.7,104.1-6.5c36.2,0.2,72.1,3.5,107.5,11.1c43.8,9.3,85.4,24.6,123.9,47.8
		c21.4,12.9,41.1,27.9,59.4,44.9c3.8,3.5-0.8,4-1.8,4.7c-10.2,6.5-20.7,12.6-31,18.9c-38.6,23.7-77.1,47.5-115.7,71.1
		c-35.2,21.6-70.5,42.9-105.8,64.5c-23.5,14.4-46.8,28.9-70.3,43.4c-0.5,0.3-1.2,0.5-2.4,0.9c1.1-5.1,3.8-9,5.8-13.2
		c8.5-17.7,16.2-35.6,22.4-54.2c7-21.2,12.4-42.8,11.5-65.4c-0.7-19.1-6.3-36.3-22.1-48.7c-9.7-7.6-21.1-11.6-33.2-13.7
		c-27.8-5-54.9-0.4-82,5.5c-30,6.5-58.7,16.7-87,28.3c-26.6,10.9-52.5,23.3-77.6,37.3c-19.5,10.9-39.2,21.5-58.3,33.2
		c-27.4,16.9-53.5,35.7-78.9,55.5c-36,28.1-70.4,57.9-103.5,89.5c-27,25.8-51.8,53.6-76.4,81.7c-34.3,39.4-66.9,80.2-97.3,122.7
		c-22.6,31.6-43.7,64.1-62.7,98c-15.3,27.1-29.2,54.8-40.3,83.8c-11.9,31-20.8,62.8-20.4,96.5c0.3,22.5,5.3,43.8,19.4,62.2
		c11.5,15.1,26.7,25.1,44.1,31.9c22.1,8.6,45.1,12,68.7,12.9c31.6,1.2,62.8-1.4,94-5.9c24-3.5,47.8-8.1,71.5-13.4
		c24.9-5.6,49.6-12.2,74.2-19.3c21.5-6.2,42.9-12.7,64.3-19.6c22.6-7.2,45-14.9,67.5-22.5c18.7-6.3,37.4-12.7,56-19.3
		c20.6-7.3,41.2-14.8,61.8-22.3c20.2-7.4,40.5-14.9,60.6-22.5c19.5-7.4,39-15,58.5-22.6c15.9-6.2,31.8-12.4,47.7-18.9
		c19.1-7.7,38.1-15.6,57.1-23.5c17.8-7.4,35.6-14.7,53.3-22.2c15-6.3,29.8-12.9,44.7-19.4c1-0.5,2.2-0.6,3.3-0.9
		C1233,738.2,1233.1,738.3,1233.3,738.5z"/>
	<path class="st3" d="M61.3,1064c13.9,16.2,29,31.1,46.5,43.5c18.2,12.9,37.6,23.4,57.8,32.6c22.9,10.5,46.8,17.8,71.4,22.7
		c18.4,3.7,37,6.1,55.9,7.4c19.1,1.3,38.2,2.5,57.4,1.9c32.5-1,64.8-3.2,97-7.6c25.4-3.5,50.6-7.9,75.6-13.3
		c21.9-4.7,43.6-10.3,65.1-16.4c17.7-5.1,35.3-10.4,52.8-16.1c18.7-6.2,37.3-12.8,55.7-19.8c18.4-7,36.8-14.2,54.9-22
		c19-8.2,37.9-16.6,56.7-25.3c17.9-8.4,35.8-17.1,53.3-26.2c21-10.9,41.8-22.1,62.5-33.7c26.3-14.7,52.1-30.3,77.5-46.4
		c33.9-21.4,67-43.9,99.4-67.5c39.7-29,78.1-59.7,114.9-92.4c12.2-10.9,24.2-22,36.3-33.1l-0.1-0.1c1.1,3.4-0.8,6.4-1.4,9.5
		c-4.6,22.1-9.5,44.1-14.2,66.2c-1,4.5-2.2,9.1-2.7,13.7c-0.7,5.8-4.1,9.1-8,12.4c-44.7,37.7-91,73.2-139.2,106.3
		c-38,26-76.8,50.6-116.6,73.7c-38.7,22.5-78.2,43.5-118.5,62.8c-27.6,13.3-55.6,25.7-83.9,37.5c-27.3,11.3-54.8,21.8-82.6,31.5
		c-20.4,7.1-41,13.4-61.7,19.5c-25.3,7.4-50.9,13.9-76.7,19.4c-19.3,4.2-38.8,7.5-58.3,10.6c-21.7,3.4-43.6,5.6-65.4,7.5
		c-21.4,1.8-42.9,1.4-64.4,1.5c-33.4,0.1-66.5-3.3-99.1-10.2c-25.4-5.4-49.7-14-73.2-25.2c-23-10.9-44.7-23.7-64.3-40.1
		c-27.5-22.9-48.6-50.4-61-84.2C60.9,1064.4,61.1,1064.2,61.3,1064z"/>
	<path class="st3" d="M343.1,939.1c-18.6-16-26.9-36-28.7-59c-1.9-24.5,3.4-47.8,11.2-70.9c9.7-28.7,23-55.8,37.7-82.1
		c19.3-34.5,40.8-67.7,63.8-100c37.8-53,78.6-103.6,121.4-152.7c40.7-46.6,85.2-89,133.4-127.7c34.6-27.8,70.6-53.6,108.2-77.2
		c32.5-20.3,66-38.8,101.1-54.1c28.4-12.3,57.2-23.9,86.8-32.9c24.7-7.5,49.7-14.3,75.9-12.4c14.5,1.1,27.8,5.4,36.2,18.6
		c6.6,10.4,7.8,22.1,7.3,34.1c-0.1,2-0.6,2.5-2.8,2c-20.7-4.5-41-1.6-61.3,3c-19.3,4.4-38,10.4-56.6,17.2
		c-19,6.9-37.7,14.5-56.3,22.5c-19.2,8.3-37.8,17.6-56.2,27.6c-23.3,12.6-45.9,26.4-68,41c-50,33-97,69.8-141.3,110.1
		c-27,24.6-52.2,51-76.3,78.4c-37.6,42.6-73.4,86.6-107.1,132.3c-28.1,38.3-54.8,77.6-78.2,119c-15.1,26.7-28.9,54.1-39,83.1
		c-7.8,22.5-13.7,45.6-12.5,69.8C342.3,932,342.7,935.1,343.1,939.1z"/>
	<path class="st3" d="M1028.1,475.2c4.5-8.6,9.1-17.2,13.6-25.9c8.6-16.3,17.2-32.5,25.7-48.8c3.4-6.6,6.6-13.3,10-19.9
		c2.5-4.9,7.8-6.6,12-9.2c30.2-18.6,60.5-36.8,90.7-55.3c39.9-24.4,79.8-49,119.7-73.5c32-19.6,64.2-39,96.3-58.6
		c11.6-7.1,23.1-14.2,34.7-21.3c0.5-0.3,1.1-0.5,2.7-1.3c0,10.7,0,20.6,0,30.5c0.1,11.5,0.1,23,0.4,34.5c0.1,3.1-0.7,4.9-3.7,6.6
		c-27.3,16.3-54.4,32.9-81.6,49.4c-23.8,14.4-47.6,28.7-71.4,43.1c-29.2,17.6-58.3,35.4-87.4,53c-23.6,14.3-47.3,28.5-71,42.8
		c-27.5,16.6-54.9,33.3-82.5,49.8c-2.6,1.6-4.7,4.6-8.4,3.9C1028,475.2,1028.1,475.2,1028.1,475.2z"/>
	<path class="st3" d="M103.7,546.2c6.8-9.5,13.1-18.3,19.5-27.1c10.1-13.7,20.5-27.2,30.3-41.1c3.3-4.7,7.5-6.6,12.6-7.8
		c29.9-6.9,59.8-13.8,89.8-20.7c13.7-3.1,27.5-6.1,41.9-9.3c-2.7,4.3-6.4,7-9.4,10.2c-19.6,20.2-38.5,41.1-56.8,62.5
		c-1.9,2.3-4.1,3.4-6.6,4c-18.4,4.5-36.8,8.8-55.2,13.2c-18.1,4.4-36.1,8.9-54.1,13.4C112,544.4,108.2,545.1,103.7,546.2z"/>
	<path class="st4" d="M1232.9,738c0.4-0.6,1.2-1,1.5-0.4c0.4,0.8-0.7,0.6-1.1,0.9C1233.1,738.3,1233,738.2,1232.9,738z"/>
	<path class="st5" d="M1028,475.2c0.1,0.2,0.1,0.5,0.2,0.7c-0.2,0-0.4,0-0.6-0.1c0.2-0.2,0.4-0.4,0.6-0.6
		C1028.1,475.2,1028,475.2,1028,475.2z"/>
	<path class="st5" d="M1252,752.2c0.2-0.2,0.4-0.3,0.7-0.5c0,0.1,0,0.3,0,0.4c-0.2,0-0.5-0.1-0.7-0.1
		C1252,752.1,1252,752.2,1252,752.2z"/>
	<path class="st5" d="M60.7,1064.6c-0.4-0.4-0.7-0.9-0.1-1.4c0.2,0.3,0.5,0.6,0.7,0.9C61.1,1064.2,60.9,1064.4,60.7,1064.6z"/>
</g>
</svg>
