<?xml version="1.0" encoding="utf-8"?>
<!-- Generator: Adobe Illustrator 24.1.1, SVG Export Plug-In . SVG Version: 6.00 Build 0)  -->
<svg version="1.1"
	 id="Layer_1" xmlns:cc="http://creativecommons.org/ns#" xmlns:dc="http://purl.org/dc/elements/1.1/" xmlns:rdf="http://www.w3.org/1999/02/22-rdf-syntax-ns#"
	 xmlns="http://www.w3.org/2000/svg" xmlns:xlink="http://www.w3.org/1999/xlink" x="0px" y="0px" viewBox="0 0 242.5 269.5"
	 style="enable-background:new 0 0 242.5 269.5;" xml:space="preserve">
<style type="text/css">
	.st0{fill:#FFFFFF;}
	.st1{fill:none;stroke:#FFFFFF;stroke-width:1.44;}
	.st2{fill:#000000;}
	.st3{fill:#008248;}
	.st4{fill:none;stroke:#008248;stroke-width:0.36;}
	.st5{fill:#A63732;}
	.st6{fill:none;stroke:#A63732;stroke-width:0.36;}
	.st7{fill:#BA9653;}
	.st8{fill:none;stroke:#BA9653;stroke-width:0.36;}
	.st9{fill:#F9B282;}
	.st10{fill:none;stroke:#F9B282;stroke-width:0.36;stroke-linecap:round;}
	.st11{fill:none;stroke:#F9B282;stroke-width:0.36;}
	.st12{fill:#000000;}
	.st13{fill:none;stroke:#00A55C;stroke-width:0.36;}
	.st14{fill:#008348;}
</style>
<path class="st0" d="M75,256.6c2.3,2.6,6.7,6.6,10,8c2.6,1.3,5.4,1.8,8.3,1.6c2.4-0.2,1.9,0.7,0,1.1c-1.8,0.2-6.1,0.2-8.9-1.2
	c-2.8-1.6-7.3-4.3-10.1-8.4C73.7,256.7,74.3,255.7,75,256.6z"/>
<path class="st0" d="M241.8,126.7c0.1-61.6-46.3-113.3-107.5-119.9c-0.6-0.7-1.4-1.2-2.2-1.7c-9.7-6.2-17.6-1.6-23.3,1.1
	c-0.5,0.3-0.9,0.5-1.4,0.7C97.1,8.1,87,10.6,77.3,14.4c-1.2-1.7-2.5-3.2-4-4.7c-5.8-5.8-13.6-9.1-21.8-9c-17,0-30.8,13.8-30.8,30.8
	c0,0,0,0,0,0c0,7,2.4,13.9,6.8,19.3c-38.7,48-35,117.5,8.5,161.2c11,10.9,23.9,19.7,38.2,25.8c-0.7,6.4,0.2,10.7,1.4,12.4
	c-1.8,1.6-2.5,2.4-2.8,4.2c-2.8,3.8,4,8.6,6.8,10.8c5.8,4.4,8.8,3.6,13.2,3.5c5.5-0.2,10.7-6.7,13.7-10.9c6-0.8,7.1,0.1,7.3,0.8
	c2.7-0.4,5.4-1.2,7.9-2.3c8-3.4,5.9-7.6,5-8.3c-0.2-0.3-0.4-0.5-0.6-0.8c18.9-0.7,37.3-5.9,53.8-15.1c0.7,0.7,1.2,1.5,1.7,2.3
	c1.8,2.6,2.8,11,3.1,15.5c0.4,4.3,1.1,7.3,3.2,14.2c2.2,7,3,1.9,3,0c0.1-1.8,0.5-8.5,0.2-13.3c-0.4-4.9-0.5-11.9,0.5-14.9
	c0.8-3-0.7-3.7-1.2-4.3c-0.5-0.5,0-0.7-1.2-4.6c-0.1-0.2-0.1-0.5-0.1-0.7c6.2-4.3,12-9.1,17.3-14.4
	C229.2,189.3,241.9,158.7,241.8,126.7z"/>
<path class="st1" d="M241.8,126.7c0.1-61.6-46.3-113.3-107.5-119.9c-0.6-0.7-1.4-1.2-2.2-1.7c-9.7-6.2-17.6-1.6-23.3,1.1
	c-0.5,0.3-0.9,0.5-1.4,0.7C97.1,8.1,87,10.6,77.3,14.4c-1.2-1.7-2.5-3.2-4-4.7c-5.8-5.8-13.6-9.1-21.8-9c-17,0-30.8,13.8-30.8,30.8
	c0,0,0,0,0,0c0,7,2.4,13.9,6.8,19.3c-38.7,48-35,117.5,8.5,161.2c11,10.9,23.9,19.7,38.2,25.8c-0.7,6.4,0.2,10.7,1.4,12.4
	c-1.8,1.6-2.5,2.4-2.8,4.2c-2.8,3.8,4,8.6,6.8,10.8c5.8,4.4,8.8,3.6,13.2,3.5c5.5-0.2,10.7-6.7,13.7-10.9c6-0.8,7.1,0.1,7.3,0.8
	c2.7-0.4,5.4-1.2,7.9-2.3c8-3.4,5.9-7.6,5-8.3c-0.2-0.3-0.4-0.5-0.6-0.8c18.9-0.7,37.3-5.9,53.8-15.1c0.7,0.7,1.2,1.5,1.7,2.3
	c1.8,2.6,2.8,11,3.1,15.5c0.4,4.3,1.1,7.3,3.2,14.2c2.2,7,3,1.9,3,0c0.1-1.8,0.5-8.5,0.2-13.3c-0.4-4.9-0.5-11.9,0.5-14.9
	c0.8-3-0.7-3.7-1.2-4.3c-0.5-0.5,0-0.7-1.2-4.6c-0.1-0.2-0.1-0.5-0.1-0.7c6.2-4.3,12-9.1,17.3-14.4
	C229.2,189.3,241.9,158.7,241.8,126.7z"/>
<path class="st2" d="M241.8,126.7c0.1-61.6-46.3-113.3-107.5-119.9c-0.6-0.7-1.4-1.2-2.2-1.7c-9.7-6.2-17.6-1.6-23.3,1.1
	c-0.5,0.3-0.9,0.5-1.4,0.7C97.1,8.1,87,10.6,77.3,14.4c-1.2-1.7-2.5-3.2-4-4.7c-5.8-5.8-13.6-9.1-21.8-9c-17,0-30.8,13.8-30.8,30.8
	c0,0,0,0,0,0c0,7,2.4,13.9,6.8,19.3c-38.7,48-35,117.5,8.5,161.2c11,10.9,23.9,19.7,38.2,25.8c-0.7,6.4,0.2,10.7,1.4,12.4
	c-1.8,1.6-2.5,2.4-2.8,4.2c-2.8,3.8,4,8.6,6.8,10.8c5.8,4.4,8.8,3.6,13.2,3.5c5.5-0.2,10.7-6.7,13.7-10.9c6-0.8,7.1,0.1,7.3,0.8
	c2.7-0.4,5.4-1.2,7.9-2.3c8-3.4,5.9-7.6,5-8.3c-0.2-0.3-0.4-0.5-0.6-0.8c18.9-0.7,37.3-5.9,53.8-15.1c0.7,0.7,1.2,1.5,1.7,2.3
	c1.8,2.6,2.8,11,3.1,15.5c0.4,4.3,1.1,7.3,3.2,14.2c2.2,7,3,1.9,3,0c0.1-1.8,0.5-8.5,0.2-13.3c-0.4-4.9-0.5-11.9,0.5-14.9
	c0.8-3-0.7-3.7-1.2-4.3c-0.5-0.5,0-0.7-1.2-4.6c-0.1-0.2-0.1-0.5-0.1-0.7c6.2-4.3,12-9.1,17.3-14.4
	C229.2,189.3,241.9,158.7,241.8,126.7z"/>
<path class="st3" d="M92.8,239.3c4.6-0.3,9.2-1.3,13.6-2.9c0.4,0.1,1,0.5,1.9,0.8c0.4-3-1.6-9.1-2.6-12c-0.6-1.8-1.3-3.1-2.2-5
	c-2.7-0.6-5.4-1.6-7.9-2.8c0,1.8,0.4,6.4,0.7,9.4c-1.3,0.2-2.6,0.2-3.8,0.2C92.8,231.1,92.9,235.2,92.8,239.3z"/>
<path class="st4" d="M92.8,239.3c4.6-0.3,9.2-1.3,13.6-2.9c0.4,0.1,1,0.5,1.9,0.8c0.4-3-1.6-9.1-2.6-12c-0.6-1.8-1.3-3.1-2.2-5
	c-2.7-0.6-5.4-1.6-7.9-2.8c0,1.8,0.4,6.4,0.7,9.4c-1.3,0.2-2.6,0.2-3.8,0.2C92.8,231.1,92.9,235.2,92.8,239.3z"/>
<path class="st3" d="M177.1,229.3c-0.8-0.8,1.1-3.5,1.9-8.3c0.8-4.9,0.8-13-2.6-17.6c-1.2-1.3-2.2-2.9-2.9-4.6
	c-11,8-23.7,13.3-37.1,15.6c-0.2,0.3-0.3,0.5-0.5,0.8c-2.4,3-5.2,5.6-8.5,7.6c-2.5,1.3-5.1,2.4-7.8,3.2c-0.4,3-0.8,9.6-0.1,11.9
	c0.4,0.8,3.7,2.9,4.9,5c0.2,0.2,0.2,0.5,0.4,0.7c18.5-0.5,36.5-5.4,52.7-14.3C177.2,229.4,177.2,229.4,177.1,229.3z"/>
<path class="st4" d="M177.1,229.3c-0.8-0.8,1.1-3.5,1.9-8.3c0.8-4.9,0.8-13-2.6-17.6c-1.2-1.3-2.2-2.9-2.9-4.6
	c-11,8-23.7,13.3-37.1,15.6c-0.2,0.3-0.3,0.5-0.5,0.8c-2.4,3-5.2,5.6-8.5,7.6c-2.5,1.3-5.1,2.4-7.8,3.2c-0.4,3-0.8,9.6-0.1,11.9
	c0.4,0.8,3.7,2.9,4.9,5c0.2,0.2,0.2,0.5,0.4,0.7c18.5-0.5,36.5-5.4,52.7-14.3C177.2,229.4,177.2,229.4,177.1,229.3z"/>
<path class="st3" d="M204.1,43.8C186,25.7,162.4,14,137,10.7c2,4,2.3,8.5,2.5,11.5c3.6-1.6,6.5-2.4,7.9-4.9c1.6-2.4,3.6-1.9,4.9-0.1
	c1.2,1.8,1.2,4-2.2,6.1c-2.2,1.3-4.5,2.5-6.8,3.6c-0.7,0.4,0,1,0.8,2.4c0.8,1.3,3,4.8,3.4,12.1v0.2c13.8,4.2,26.4,11.8,36.6,22.1
	c26.9,26.8,33.8,67.6,17.3,101.8c0.7,0.4,1.8,3.1,2.2,6.7c0.3,1.8,0.1,3.6-0.4,5.3c-0.6,1.2-5,7.8-7.2,9.8c-1.1,0.8-2.7,0.6-3.6-0.5
	c-0.8-1.2-1-0.6-1.7,0c-0.6,0.7-2.8,4-3.4,4.8s-2.4,1.6-1.2,5c1.2,3.4,2.6,5.8,2.2,7.7s-0.7,2.4,1.8,4.6c2.6,2.2,2.4,4.7,1.3,6.5
	c-1.1,2.1-1.9,4.4-2.3,6.7c52.7-37.6,65-110.7,27.5-163.5C212.9,53.4,208.7,48.4,204.1,43.8z"/>
<path class="st4" d="M204.1,43.8C186,25.7,162.4,14,137,10.7c2,4,2.3,8.5,2.5,11.5c3.6-1.6,6.5-2.4,7.9-4.9c1.6-2.4,3.6-1.9,4.9-0.1
	c1.2,1.8,1.2,4-2.2,6.1c-2.2,1.3-4.5,2.5-6.8,3.6c-0.7,0.4,0,1,0.8,2.4c0.8,1.3,3,4.8,3.4,12.1v0.2c13.8,4.2,26.4,11.8,36.6,22.1
	c26.9,26.8,33.8,67.6,17.3,101.8c0.7,0.4,1.8,3.1,2.2,6.7c0.3,1.8,0.1,3.6-0.4,5.3c-0.6,1.2-5,7.8-7.2,9.8c-1.1,0.8-2.7,0.6-3.6-0.5
	c-0.8-1.2-1-0.6-1.7,0c-0.6,0.7-2.8,4-3.4,4.8s-2.4,1.6-1.2,5c1.2,3.4,2.6,5.8,2.2,7.7s-0.7,2.4,1.8,4.6c2.6,2.2,2.4,4.7,1.3,6.5
	c-1.1,2.1-1.9,4.4-2.3,6.7c52.7-37.6,65-110.7,27.5-163.5C212.9,53.4,208.7,48.4,204.1,43.8z"/>
<path class="st3" d="M69.6,213.2c-0.4-3.2-0.8-8.9,1.4-13c-4.6-3.1-8.8-6.6-12.7-10.6c-34.7-34.8-34.7-91.1,0.1-125.9
	c0.6-0.6,1.2-1.2,1.9-1.8c0.1-0.4,0.3-0.7,0.6-1c-3,0.9-6,1.3-9.1,1.3c-8.2,0-16-3.2-21.7-9C-7.4,100-3.8,167.2,38.4,209.5
	c10.4,10.4,22.7,18.8,36.2,24.7c0.6-2.8,1.4-5.5,2.4-8.2c1.1-2.8-0.5-9-3.1-12.2C72.5,213.5,71.1,213.3,69.6,213.2z"/>
<path class="st4" d="M69.6,213.2c-0.4-3.2-0.8-8.9,1.4-13c-4.6-3.1-8.8-6.6-12.7-10.6c-34.7-34.8-34.7-91.1,0.1-125.9
	c0.6-0.6,1.2-1.2,1.9-1.8c0.1-0.4,0.3-0.7,0.6-1c-3,0.9-6,1.3-9.1,1.3c-8.2,0-16-3.2-21.7-9C-7.4,100-3.8,167.2,38.4,209.5
	c10.4,10.4,22.7,18.8,36.2,24.7c0.6-2.8,1.4-5.5,2.4-8.2c1.1-2.8-0.5-9-3.1-12.2C72.5,213.5,71.1,213.3,69.6,213.2z"/>
<path class="st3" d="M100.7,11.4c-7.4,1.2-14.6,3.2-21.6,6c2.3,4.4,3.5,9.2,3.5,14.2c0,6.5-2.1,12.9-5.9,18.2
	c6.5-3.8,13.4-6.7,20.6-8.8c0.5-0.5,1-1,1.4-1.4c-2.8-4.4-6.4-11.5-3.1-21.4C96.6,15.5,98.3,13.1,100.7,11.4z"/>
<path class="st4" d="M100.7,11.4c-7.4,1.2-14.6,3.2-21.6,6c2.3,4.4,3.5,9.2,3.5,14.2c0,6.5-2.1,12.9-5.9,18.2
	c6.5-3.8,13.4-6.7,20.6-8.8c0.5-0.5,1-1,1.4-1.4c-2.8-4.4-6.4-11.5-3.1-21.4C96.6,15.5,98.3,13.1,100.7,11.4z"/>
<path class="st0" d="M147.5,46.7c3.6,1.6,5.4,5.6,4.3,9.4c-0.4,2.2-2.2,4.2-2.4,5c-0.2,1.4-3.1,3.7-4.1,5.6
	c-0.8,1.9-1.1,3.5-0.8,4.2c2,1.7,4.3,3,6.7,4c1.4,0.5,1.3,0.8,0.7,1.8c1.1,0.1,1.6,0.7,2.5,1.9c1.1,1.2,3.8,0.5,5.4-0.4
	c1.7-0.8,3.8-1.2,5.5,0.8c2.3,2.8,4.1,6,5.4,9.4c0.7,2.4,1.7,4.7,2.9,7c0.4,0.6-1.3,10.8-1.8,15c-0.5,4.1-0.8,5.9-1,6.5
	c0,0.7,2.6-2.3,2.8,1.2c0,2.9,1.4,11.9,2.9,18.6c0.3,1.5,0.7,3.1,1.2,4.6c1.1,0.1,2,2.4,2.8,5.8c0.6,3.5,1.9,5.6,2.2,7.3
	c0,1.7,0.5,1.9,1.1,2.3c0.5,0.2,0.4,1.1-1.3,3c0.5,0.4,0.9,0.8,1.3,1.2c0.6-0.6,1.2-1.2,1.8-1.9c0,0,5.2,2,6.2,2.4s2.5-2.4,5.8-0.8
	c1.2,0.7,2.1,1.7,2.6,2.9c5.4-11.5,8.2-24,8.2-36.7c0.1-38-24.5-71.6-60.7-82.9C147.6,45,147.5,46.2,147.5,46.7z"/>
<path class="st0" d="M174.5,193.2c-1.3-0.6-2.3,0.4-2.9-4.8c-0.3-1.7-1.1-3.2-2.3-4.3c-0.9-1.2-1.1-2.8-0.5-4.2
	c0.6-2.1,0.9-4.2,0.8-6.4c-0.1-1.9,0.2-4.2,2.8-5.3c-0.8-1-1.3-2.1-1.6-3.4c-3.8-1.3-4.7-1.4-5.4-3.2c-1.1-3.3-1.9-6.7-2.4-10.2
	c-0.2-1.2-0.4-2.3-0.5-3.4c-1.2-2.3-4-7.4-6-11.3c-0.7-1.4-1.6-2.8-1.9-3.6c-1.9-3.2,0-7.6,0.8-10.1c1-2.5,1.7-4.7,0.8-7.3
	c-0.5-1.3-0.8-2.7-1.1-4.1c-0.1-1.1-1.1-2.3-2.2,1.2s-3.2,8.8-4.4,14.2c-0.8,3.2-1.1,6.4-1.1,9.7c0.1,2.4,0.7,4.8,1.7,7.1
	c2.4,4.9,5.4,9.6,4.9,12.4c-0.1,1.2-0.4,2.3-1,3.4c-0.5,5.4-2.8,15.8-4,18.8s-6,13.8-7.1,18.4c-1.2,5.3-2.8,10.5-4.8,15.5
	c13.7-2.6,26.6-8.4,37.6-17C175.2,194.4,175.2,193.7,174.5,193.2z"/>
<path class="st0" d="M70.8,71c1.1,1.4,2.6,2.6,4.2,3.4c4.6,2.4,5.4,4.1,5.4,8s0.8,12.2,2,13.6c0.8-0.7,1.5-1.5,2-2.4
	c1.2,2.4,3.8,7,8,9.7c0.4,0.1,0.1,1.2,0.8,1.4c1.4,0.4,10.4,1.8,10.7,3.6c1.9-1.9,4.9-6.5,5.4-8.2c1.7-3.3,3.8-6.5,6.2-9.4
	c-0.1-0.7,0-1.4,0.1-2c-0.7,0.6-1.7,2-3.1,2.6c-1.6,0.7-6.7,3-10.4,4.8c-1.3,0.6-3.6,1.4-4.6-5.4s0-10.4,0.6-12
	c0.7-1.6,1.9-3,4.2-2.3c2.4,0.7,6.1,2,7.1,2c0.1-0.7,0.8-2.2-1.7-2.4c-1.8-0.2-6.5-1.6-9-5.2c-1.2-1.6-1.9-3.6-1.9-5.6
	c-5.3,0.8-17.5,2.4-20.3,3.1c-2.6,0.7-5,1.2-5.9-4.9c-0.4-2.6-1-6.2,0.8-4.9c2-1.7,4.6-2.4,7.2-1.9c0.7,0.1,1.4,0.6,1.8,1.2
	c0.2,0.8-0.2,2.4-0.6,3.7c-0.8,2.5-2.4,4.3,2.6,3.1c5.4-1.2,12.1-2.2,13.8-2.5c0.2-1.8,1.8-4.7,3.6-6.7c1.1-1.2,1.8-2.7,2.2-4.3
	c0-0.7-0.6-0.8-1.4,0c-1.1,0.8-4.2,2.8-7,2c-1.2-0.4-2.6-2.4-3.2-3.6c1.1-2.1,2.5-4,4.1-5.8c-10,3.2-19.3,8.2-27.5,14.8
	c-0.1,2,0.2,4.1,0.7,6C68.5,67,69.5,69.1,70.8,71z"/>
<path class="st0" d="M77.3,198.2c3.8-1.4,6.8-1.4,9.7,2.6c0.8,1.1,1.6,4.3,8.8,1.4c-3.8-4.6-6.1-10-8.2-17.3
	c-3.4-11.4-10.8-24.5-8-30.4c-1.6-1.6-3.5-7.3-5.4-6.6c-1.3,0.4-3.1,0.4-1.7-4c1-2.6,2.3-5,4-7.2c2.5-3.5,6.6-7.7,13.1-12.7
	c0.5-0.5,0.7-0.8,0.4-1.2c-0.6-0.7-1.3-1.3-2-1.8c-0.6-0.4-1.4-0.2-1.8,0.4c-0.6,0.5-1.6,1.2-2,1.6c-0.6,0.4-5-4-7.3-7.2
	c-1.4-2-3.3-3.5-5.5-4.6c0.8-1.1,3-3.2,2.3-3c-1.4,0.5-3.8,0.7-6.4-1.9c-3.1-3.2-1.9-4.9-2.6-5.4c-0.6-0.4-4,0.4-6.5-3.6
	c-2.5-3.8-3.5-5.6-1.6-8.4c1.1-1.4,1.4-2,1.2-3.8c-0.4-1.8,0-2.9,2.3-5c2.4-2.3,3.7-4.3,4.8-4.1c0.7,0.1-1.7-2.9-3-5
	c-0.4-0.5-0.7-1-0.8-1.6c-0.6-1.4-1-2.8-1.2-4.2c-33.9,33.9-33.9,89,0,122.9c0,0,0.1,0.1,0.1,0.1c3.9,3.7,8,7.2,12.4,10.3
	c1.2-1.5,3.3-1.8,4.8-0.7C77.1,198,77.2,198.1,77.3,198.2z"/>
<path class="st5" d="M27.8,14.5c7.6,1.9,13.3,8.2,15.8,11.5c0.7,1,1.3,0.8,1.6,0.1c1-3,1.6-6.2,1.7-9.4c0-7.8,1.1-10.9,3-14.5
	C41.1,2.8,33,7.3,27.8,14.5z"/>
<path class="st6" d="M27.8,14.5c7.6,1.9,13.3,8.2,15.8,11.5c0.7,1,1.3,0.8,1.6,0.1c1-3,1.6-6.2,1.7-9.4c0-7.8,1.1-10.9,3-14.5
	C41.1,2.8,33,7.3,27.8,14.5z"/>
<path class="st5" d="M23.2,38.5C37.6,39.8,42,31.8,43,30.6c0.8-1.2-0.1-1.9-0.7-2.6c-2.4-3.5-8-9.6-15.6-11.5
	c-2.8,4.5-4.3,9.8-4.3,15.1C22.4,33.9,22.6,36.2,23.2,38.5z"/>
<path class="st6" d="M23.2,38.5C37.6,39.8,42,31.8,43,30.6c0.8-1.2-0.1-1.9-0.7-2.6c-2.4-3.5-8-9.6-15.6-11.5
	c-2.8,4.5-4.3,9.8-4.3,15.1C22.4,33.9,22.6,36.2,23.2,38.5z"/>
<path class="st5" d="M80.2,37.9c-6.1-2.5-13.3-0.2-18.4,4.3c-5.2,4.4-7.8,7.8-9.6,18.5h-0.6c-7.3,0-14.3-2.7-19.7-7.7
	c8.8-2.2,16.1-6.2,24.5-14c8.3-7.8,12.4-16.9,13.4-21.2c1.2-4.3-0.4-1.8-1.2,0.1c-3.5,7.2-8.3,13.7-14.2,19.2
	c-8.4,7.9-15,11.8-23.9,14.8c-2.9-3.1-5.2-6.8-6.6-10.8c3,0.2,12.4-0.8,17-4.7c6.2-5.2,7-11.2,7.8-19.7s2-11,4.1-14.4
	c15.6,0.7,27.9,13.6,28,29.2C80.9,33.6,80.6,35.8,80.2,37.9z"/>
<path class="st6" d="M80.2,37.9c-6.1-2.5-13.3-0.2-18.4,4.3c-5.2,4.4-7.8,7.8-9.6,18.5h-0.6c-7.3,0-14.3-2.7-19.7-7.7
	c8.8-2.2,16.1-6.2,24.5-14c8.3-7.8,12.4-16.9,13.4-21.2c1.2-4.3-0.4-1.8-1.2,0.1c-3.5,7.2-8.3,13.7-14.2,19.2
	c-8.4,7.9-15,11.8-23.9,14.8c-2.9-3.1-5.2-6.8-6.6-10.8c3,0.2,12.4-0.8,17-4.7c6.2-5.2,7-11.2,7.8-19.7s2-11,4.1-14.4
	c15.6,0.7,27.9,13.6,28,29.2C80.9,33.6,80.6,35.8,80.2,37.9z"/>
<path class="st5" d="M79.3,40.8c-1.4-1.9-6.4-2.9-14.3,2c-0.8,0.5-1.3,0.8-0.4,1.7c2.5,2.7,4.5,5.8,6,9.1
	C74.6,50.2,77.6,45.8,79.3,40.8z"/>
<path class="st6" d="M79.3,40.8c-1.4-1.9-6.4-2.9-14.3,2c-0.8,0.5-1.3,0.8-0.4,1.7c2.5,2.7,4.5,5.8,6,9.1
	C74.6,50.2,77.6,45.8,79.3,40.8z"/>
<path class="st5" d="M68.3,55.6c-1.7-4.1-3-7.1-4.7-9.1c-0.7-1.2-1-1.6-2.5-0.2C56.6,50,55,55.9,54,60.6
	C59.1,60.3,64.1,58.5,68.3,55.6z"/>
<path class="st6" d="M68.3,55.6c-1.7-4.1-3-7.1-4.7-9.1c-0.7-1.2-1-1.6-2.5-0.2C56.6,50,55,55.9,54,60.6
	C59.1,60.3,64.1,58.5,68.3,55.6z"/>
<path class="st7" d="M104.3,238.8c0.6-0.2,1.3-0.6,1.8-0.4c0.4,0.4,2.5,1.9,4,3.1s1.8,1.6,0.7,2.3c-1.1,0.6-2.2,1.2-1.9,0.7
	c0.3-0.7,0.1-1.6-0.4-2.2c-1.1-1-2.2-1.9-3.4-2.8C104.6,239.2,104.3,238.8,104.3,238.8z"/>
<path class="st8" d="M104.3,238.8c0.6-0.2,1.3-0.6,1.8-0.4c0.4,0.4,2.5,1.9,4,3.1s1.8,1.6,0.7,2.3c-1.1,0.6-2.2,1.2-1.9,0.7
	c0.3-0.7,0.1-1.6-0.4-2.2c-1.1-1-2.2-1.9-3.4-2.8C104.6,239.2,104.3,238.8,104.3,238.8z"/>
<path class="st7" d="M98.9,240.4c-0.5,0.4-0.5,1.2,0,1.6c0,0,0,0,0,0c0.6,0.5,3.7,3.1,4.2,3.6c0.6,0.6,1.4,0.8,2.2,0.6
	c0.8-0.2-1,1-1.7,1.2c-0.8,0.2-1.7,0-2.3-0.6c-0.7-0.6-4.9-4.6-5.8-5.4s0.2-0.8,1-1C97.3,240.5,98.1,240.5,98.9,240.4z"/>
<path class="st8" d="M98.9,240.4c-0.5,0.4-0.5,1.2,0,1.6c0,0,0,0,0,0c0.6,0.5,3.7,3.1,4.2,3.6c0.6,0.6,1.4,0.8,2.2,0.6
	c0.8-0.2-1,1-1.7,1.2c-0.8,0.2-1.7,0-2.3-0.6c-0.7-0.6-4.9-4.6-5.8-5.4s0.2-0.8,1-1C97.3,240.5,98.1,240.5,98.9,240.4z"/>
<path class="st7" d="M93.7,216.5c0.4,0.8,0.4,1.7-0.8,1.4c-1.3-0.1-6.8-0.7-8.4-0.7c-0.5,0-0.2-0.8-0.8-0.5s-0.4,1.2-0.4,2.2v2.2
	c0,1,0.6,2.4,3.1,2.5s4.8-0.1,5.6-0.7c0.7-0.5-0.1-1.3-0.8-1.3c-0.6,0-4.8,0.4-5.8,0c-0.8-0.2-1.4-1.3-0.8-1.8
	c0.8-0.5,2.3,0.1,3.6,0.1c1.4,0,3-0.4,3.5-0.1c0.4,0.2,0.8,0.1,0.8,1.9c0,0.4,1,0.5,1.3,0.5s0.6,0.7,0.5,1.7
	c-0.1,0.8,0.1,1.1-1.7,1.1h-10c-0.5,0-0.5-0.4-0.5-1.2c-0.1-0.8-0.4-6.7-0.5-7.2s1.1-0.5,2.2-0.2c1.2,0.2,2.5,0.3,3.7,0.4
	c1.6,0.1,4,0.4,4,0.4s1.2,0.1,1.3-0.2C93.2,216.4,93.6,216.2,93.7,216.5z"/>
<path class="st8" d="M93.7,216.5c0.4,0.8,0.4,1.7-0.8,1.4c-1.3-0.1-6.8-0.7-8.4-0.7c-0.5,0-0.2-0.8-0.8-0.5s-0.4,1.2-0.4,2.2v2.2
	c0,1,0.6,2.4,3.1,2.5s4.8-0.1,5.6-0.7c0.7-0.5-0.1-1.3-0.8-1.3c-0.6,0-4.8,0.4-5.8,0c-0.8-0.2-1.4-1.3-0.8-1.8
	c0.8-0.5,2.3,0.1,3.6,0.1c1.4,0,3-0.4,3.5-0.1c0.4,0.2,0.8,0.1,0.8,1.9c0,0.4,1,0.5,1.3,0.5s0.6,0.7,0.5,1.7
	c-0.1,0.8,0.1,1.1-1.7,1.1h-10c-0.5,0-0.5-0.4-0.5-1.2c-0.1-0.8-0.4-6.7-0.5-7.2s1.1-0.5,2.2-0.2c1.2,0.2,2.5,0.3,3.7,0.4
	c1.6,0.1,4,0.4,4,0.4s1.2,0.1,1.3-0.2C93.2,216.4,93.6,216.2,93.7,216.5z"/>
<path class="st9" d="M60.2,88.2c-1.2-0.4-2.2,1.1-2.6,2.3c-0.6,1.1-1.2,2.3,0.5,4.8c1.8,2.5,2.9,4.1,6,3.8c1.3-0.2,2.5-0.9,3.2-1.9
	c0.5-0.6,0.5,0.5-0.1,1.7c-0.7,1.1-1.3,3.7,0,5.4c1.4,1.8,4.3,3.2,8.2,1.1c2.5-1.5,4.7-3.6,6.1-6.1c0.6-1.2,0.6-1.8,0-2.6
	c-0.7-0.7-2.9-4.2-3.2-11.2c-0.4-4.2,0.4-7-2.2-8.4c-2.6-1.6-8.6-5-9.4-12c-0.2-2.6-0.1-6.6-2.6-4.4c-1.8,1.2-2.8,3.2-2.9,5.3
	c-0.4,1.6,1.1,3.7,2.2,5.2c1.1,1.6,2.4,4.8,3.5,5.6c1,0.8,1.6,1.6,2.5,1.6c0.8,0.1,4.2,0.1,5,0.4c0.8,0.4,1.2,1.3-0.7,1.3
	c-2.2,0.1-4.4,0.3-6.6,0.7c-1.4,0.2-2.8,0.4-3.5,3.1C63,86.5,62,89.9,62,90.8c-0.1,1-0.7,1.6-0.7,2.2c0,0.5,1.1,3.2,3.6,0.5
	c1.8-1.9,3.1-4.2,4-6.6c0.5-1.3,1.1-1.2,0.6,0.8s-0.6,7.2,0.4,8.9c1,1.9,3.1,3.8,5.8,2.6c0.7-0.5,1.5-0.7,2.3-0.7
	c0.7,0.1-0.1,1.4-0.8,1.9c-0.6,0.6-2.8,3-6.6-0.4c-1.3-1.4-2.2-3.2-2.5-5c0-0.5-0.4-0.8-0.9-0.8c-0.3,0-0.5,0.2-0.7,0.4
	c-0.5,0.6-3,3-4.7,1.2c-1.8-1.7-2.5-2.6-1.6-6.1C60.4,89,60.7,88.4,60.2,88.2z"/>
<path class="st10" d="M60.2,88.2c-1.2-0.4-2.2,1.1-2.6,2.3c-0.6,1.1-1.2,2.3,0.5,4.8c1.8,2.5,2.9,4.1,6,3.8c1.3-0.2,2.5-0.9,3.2-1.9
	c0.5-0.6,0.5,0.5-0.1,1.7c-0.7,1.1-1.3,3.7,0,5.4c1.4,1.8,4.3,3.2,8.2,1.1c2.5-1.5,4.7-3.6,6.1-6.1c0.6-1.2,0.6-1.8,0-2.6
	c-0.7-0.7-2.9-4.2-3.2-11.2c-0.4-4.2,0.4-7-2.2-8.4c-2.6-1.6-8.6-5-9.4-12c-0.2-2.6-0.1-6.6-2.6-4.4c-1.8,1.2-2.8,3.2-2.9,5.3
	c-0.4,1.6,1.1,3.7,2.2,5.2c1.1,1.6,2.4,4.8,3.5,5.6c1,0.8,1.6,1.6,2.5,1.6c0.8,0.1,4.2,0.1,5,0.4c0.8,0.4,1.2,1.3-0.7,1.3
	c-2.2,0.1-4.4,0.3-6.6,0.7c-1.4,0.2-2.8,0.4-3.5,3.1C63,86.5,62,89.9,62,90.8c-0.1,1-0.7,1.6-0.7,2.2c0,0.5,1.1,3.2,3.6,0.5
	c1.8-1.9,3.1-4.2,4-6.6c0.5-1.3,1.1-1.2,0.6,0.8s-0.6,7.2,0.4,8.9c1,1.9,3.1,3.8,5.8,2.6c0.7-0.5,1.5-0.7,2.3-0.7
	c0.7,0.1-0.1,1.4-0.8,1.9c-0.6,0.6-2.8,3-6.6-0.4c-1.3-1.4-2.2-3.2-2.5-5c0-0.5-0.4-0.8-0.9-0.8c-0.3,0-0.5,0.2-0.7,0.4
	c-0.5,0.6-3,3-4.7,1.2c-1.8-1.7-2.5-2.6-1.6-6.1C60.4,89,60.7,88.4,60.2,88.2z"/>
<path class="st9" d="M62.2,83c-0.4,1.2-0.7,2.8-1,3.4c-0.1,0.5-1,1.8-1.8,0.1c-0.8-1.3-0.6-2.9,0.5-4c0.4-0.4,1-1.1,1.3-0.7
	S62.3,82.8,62.2,83z"/>
<path class="st10" d="M62.2,83c-0.4,1.2-0.7,2.8-1,3.4c-0.1,0.5-1,1.8-1.8,0.1c-0.8-1.3-0.6-2.9,0.5-4c0.4-0.4,1-1.1,1.3-0.7
	S62.3,82.8,62.2,83z"/>
<path class="st9" d="M66.4,78.7c-0.7,0.4-2.4,0.4-3,1.7c-0.4,0.8-1.9-0.1-1.1-1.2c0.7-1,1.2-0.8,1.8-1.2c0.4-0.2,0.6-1.1,1.6-0.6
	C66.5,77.9,66.6,78.6,66.4,78.7z"/>
<path class="st10" d="M66.4,78.7c-0.7,0.4-2.4,0.4-3,1.7c-0.4,0.8-1.9-0.1-1.1-1.2c0.7-1,1.2-0.8,1.8-1.2c0.4-0.2,0.6-1.1,1.6-0.6
	C66.5,77.9,66.6,78.6,66.4,78.7z"/>
<path class="st9" d="M127.7,32.6c-2.6,0.2-5,1.8-7.4,3.5s-11.2,9.1-13.2,10.6c2.2,1.1,2.8,3.4,2,7c-0.2,0.8,0,1.2,0.5,0.6
	s3.1-3.4,3.1-5.6c-0.1-1.4-0.5-2.7-1.3-3.8c-0.1-0.4,0.7-1.4,1.8,0.8c1.1,2.4,0.7,5.6-2.3,9.2c-3.1,3.6-5.5,3.6-6.8,4.2
	c-1.3,0.7-2.6,1.7-1.4,3.6c1.2,2,3.5,1.2,4.4,0.6c1-0.7,2.3-1.4,5.3-1.2c3,0.4,4-1.6,1.9-3.6c-0.6-0.6-2.3-2.2-0.2-2.2
	c1.2,0,2.6,2.8,3.5,3.5s2.8,1.1,5.3,1.2s6.5,1.1,6.5,3.5c0,1.6-0.8,2-1.9,0.8c-0.5-0.5-1.1,0.2-1.4,0.7c-1.7,1.6-5.6,5.9-8.6,6.6
	c-2.9,0.7-4-0.1-7.8-2.2s-7.3-4.2-8.4-4.8c-1-0.6-3.1-2.2-2.2,0.8c1.1,3,3.6,6.1,8.5,7.8c5,1.6,5.9,2.2,7,2.8
	c1.1,0.5,0.5,1.1-1.1,0.8c-1.2-0.1-2.6-1.2-1.6,1.2c1.1,2.5,2.8,5.3,7.9,4.6c5.2-0.6,5.3-1.7,8.5-7c0.5-1,1.1-0.4,0.7,2.2
	c1.7-0.8,3.5-1.5,5.4-2c3.5-0.8,6.4-3.2,7.9-6.4c1.3-2.4,2-3.2,1.8-5.8c0-1,1.3-2.9,2.8-4.2c1.4-1.2,5.3-6.2,3.2-9.7
	c-1.9-3.5-5.3-1.8-6.8,0.8s-3.4,5.4-3.5,10c-1-0.4-2.1,0-2.8,0.8c-0.2,0.5-4.3,0-5.8,0.4s-1.9-0.5-0.4-2.4c1.4-1.9,6.7-9.1,6.5-14.3
	c-0.1-1.1,0-2.1,0.4-3.1c0.2-1.6,0.4-1.6-1.4-2.6c-1.3-0.7-1.3-2.6-1.6-4.1c-0.2-1.6-0.5-1.6-2.3-1.2
	C130.9,35.6,128.8,34.3,127.7,32.6z"/>
<path class="st11" d="M127.7,32.6c-2.6,0.2-5,1.8-7.4,3.5s-11.2,9.1-13.2,10.6c2.2,1.1,2.8,3.4,2,7c-0.2,0.8,0,1.2,0.5,0.6
	s3.1-3.4,3.1-5.6c-0.1-1.4-0.5-2.7-1.3-3.8c-0.1-0.4,0.7-1.4,1.8,0.8c1.1,2.4,0.7,5.6-2.3,9.2c-3.1,3.6-5.5,3.6-6.8,4.2
	c-1.3,0.7-2.6,1.7-1.4,3.6c1.2,2,3.5,1.2,4.4,0.6c1-0.7,2.3-1.4,5.3-1.2c3,0.4,4-1.6,1.9-3.6c-0.6-0.6-2.3-2.2-0.2-2.2
	c1.2,0,2.6,2.8,3.5,3.5s2.8,1.1,5.3,1.2s6.5,1.1,6.5,3.5c0,1.6-0.8,2-1.9,0.8c-0.5-0.5-1.1,0.2-1.4,0.7c-1.7,1.6-5.6,5.9-8.6,6.6
	c-2.9,0.7-4-0.1-7.8-2.2s-7.3-4.2-8.4-4.8c-1-0.6-3.1-2.2-2.2,0.8c1.1,3,3.6,6.1,8.5,7.8c5,1.6,5.9,2.2,7,2.8
	c1.1,0.5,0.5,1.1-1.1,0.8c-1.2-0.1-2.6-1.2-1.6,1.2c1.1,2.5,2.8,5.3,7.9,4.6c5.2-0.6,5.3-1.7,8.5-7c0.5-1,1.1-0.4,0.7,2.2
	c1.7-0.8,3.5-1.5,5.4-2c3.5-0.8,6.4-3.2,7.9-6.4c1.3-2.4,2-3.2,1.8-5.8c0-1,1.3-2.9,2.8-4.2c1.4-1.2,5.3-6.2,3.2-9.7
	c-1.9-3.5-5.3-1.8-6.8,0.8s-3.4,5.4-3.5,10c-1-0.4-2.1,0-2.8,0.8c-0.2,0.5-4.3,0-5.8,0.4s-1.9-0.5-0.4-2.4c1.4-1.9,6.7-9.1,6.5-14.3
	c-0.1-1.1,0-2.1,0.4-3.1c0.2-1.6,0.4-1.6-1.4-2.6c-1.3-0.7-1.3-2.6-1.6-4.1c-0.2-1.6-0.5-1.6-2.3-1.2
	C130.9,35.6,128.8,34.3,127.7,32.6z"/>
<path class="st9" d="M116.9,61.8c-0.6,1.2-2,2.3-5.3,1.8c-1.6-0.1-3.1-0.1-3.5,1.1c-0.1,1-0.8,0.8-1.9,0.8c-1.1-0.1-2.3-0.2-2.3,0.1
	c-0.1,0.4,4.6,3.1,6.1,3.8c1.4,0.6,3.7,2.4,5.6,2.2c2.4-0.2,4.4-1.4,8-5.3c1.6-1.6,2.6-2.4,1.3-3c-1-0.4-2.1-0.6-3.2-0.5
	C120.6,62.9,117.8,62.6,116.9,61.8z"/>
<path class="st11" d="M116.9,61.8c-0.6,1.2-2,2.3-5.3,1.8c-1.6-0.1-3.1-0.1-3.5,1.1c-0.1,1-0.8,0.8-1.9,0.8
	c-1.1-0.1-2.3-0.2-2.3,0.1c-0.1,0.4,4.6,3.1,6.1,3.8c1.4,0.6,3.7,2.4,5.6,2.2c2.4-0.2,4.4-1.4,8-5.3c1.6-1.6,2.6-2.4,1.3-3
	c-1-0.4-2.1-0.6-3.2-0.5C120.6,62.9,117.8,62.6,116.9,61.8z"/>
<path class="st9" d="M99.5,61.8c-1.3,0-1.4-1-0.6-2.4c0.7-1.3,1.7-2.5,2.8-3.5c0.2,0.7,0.6,1.3,1.2,1.7c-1.1,0.9-1.7,2.3-1.6,3.7
	L99.5,61.8z"/>
<path class="st11" d="M99.5,61.8c-1.3,0-1.4-1-0.6-2.4c0.7-1.3,1.7-2.5,2.8-3.5c0.2,0.7,0.6,1.3,1.2,1.7c-1.1,0.9-1.7,2.3-1.6,3.7
	L99.5,61.8z"/>
<path class="st12" d="M120.4,48c0.2-1.2,0.1-2.4-1.9-0.7c-1.8-1.3-3.4-2.9-3.8-3.2c-0.4-0.2-0.7-0.7-0.5-1.1
	c0.1-0.2,0.2-0.4,0.4-0.5c0.6-0.7,1.8,0.5,1.6-1.4c-0.1-0.7,1.4-0.2,1.8-0.5c0.4-0.1-0.2-1.1,1.6-0.7c0.5,0.2,0.2-0.8,1.4-0.7
	c1.1,0.1,1.6,0.6,1.8-0.2c0.2-1,0.6-1.4,1.9-0.6c1,0.6,1.3,0.2,1.4-0.2c0-0.4,1-0.1,1.8,0.4c1.9,1,3.6,2.4,5,4.1
	c0.6,0.7,0.8,1.3,0.5,1.4s-0.8,0-0.8,0.7c-0.1,0.8-0.5,1.4-1,0.6s-0.5,0.1-0.8-0.8c-0.2-0.8-0.7,0.4-1-0.2c-0.2-0.7-0.6,0.1-0.8-0.5
	c-0.2-0.4-1.1,0.4-1.3-0.1c-0.4-0.5-1,0.5-1.3-0.1c-0.5-0.6-0.5,0.7-1.2,0.4c-0.8-0.2-0.5,0.7-1.2,0.5c-0.8-0.4-0.6,0.8-1.2,0.7
	c-0.7-0.1-0.7,0.1-0.8,0.8c-0.1,0.8-0.5,4-0.5,4.6c0,0.7,1.6,0.6,4,0.2c3.1-0.4,6-1.6,8.5-3.4c0.8-0.6,1.6-0.6,1.7-0.5
	c0.1,0.2-0.2,1.1-0.8,1.6c-1.6,1.5-3.6,2.5-5.8,2.9c-3.6,0.6-6.6,1.2-7.2,1.1s0.2,1,1.3,0.7c0.6-0.2,1.8,2,3.7,2
	c1.6,0,4-1.8,4.6-2.3c0.7-0.5,3-1.6,1.4,0c-1.6,1.7-3.2,3.4-4.9,3.5c-2.1,0-4.2-0.7-6-1.8c-1.8-1.2-2.4-1.8-2.2-3.7
	C120,49.9,120.2,48.9,120.4,48z"/>
<path class="st11" d="M120.4,48c0.2-1.2,0.1-2.4-1.9-0.7c-1.8-1.3-3.4-2.9-3.8-3.2c-0.4-0.2-0.7-0.7-0.5-1.1
	c0.1-0.2,0.2-0.4,0.4-0.5c0.6-0.7,1.8,0.5,1.6-1.4c-0.1-0.7,1.4-0.2,1.8-0.5c0.4-0.1-0.2-1.1,1.6-0.7c0.5,0.2,0.2-0.8,1.4-0.7
	c1.1,0.1,1.6,0.6,1.8-0.2c0.2-1,0.6-1.4,1.9-0.6c1,0.6,1.3,0.2,1.4-0.2c0-0.4,1-0.1,1.8,0.4c1.9,1,3.6,2.4,5,4.1
	c0.6,0.7,0.8,1.3,0.5,1.4s-0.8,0-0.8,0.7c-0.1,0.8-0.5,1.4-1,0.6s-0.5,0.1-0.8-0.8c-0.2-0.8-0.7,0.4-1-0.2c-0.2-0.7-0.6,0.1-0.8-0.5
	c-0.2-0.4-1.1,0.4-1.3-0.1c-0.4-0.5-1,0.5-1.3-0.1c-0.5-0.6-0.5,0.7-1.2,0.4c-0.8-0.2-0.5,0.7-1.2,0.5c-0.8-0.4-0.6,0.8-1.2,0.7
	c-0.7-0.1-0.7,0.1-0.8,0.8c-0.1,0.8-0.5,4-0.5,4.6c0,0.7,1.6,0.6,4,0.2c3.1-0.4,6-1.6,8.5-3.4c0.8-0.6,1.6-0.6,1.7-0.5
	c0.1,0.2-0.2,1.1-0.8,1.6c-1.6,1.5-3.6,2.5-5.8,2.9c-3.6,0.6-6.6,1.2-7.2,1.1s0.2,1,1.3,0.7c0.6-0.2,1.8,2,3.7,2
	c1.6,0,4-1.8,4.6-2.3c0.7-0.5,3-1.6,1.4,0c-1.6,1.7-3.2,3.4-4.9,3.5c-2.1,0-4.2-0.7-6-1.8c-1.8-1.2-2.4-1.8-2.2-3.7
	C120,49.9,120.2,48.9,120.4,48z"/>
<path class="st12" d="M147.5,54c-1.1,0.7-1.7,1.1-1.8,2.3c0,1.3-0.4,3.6-0.8,3.7c-0.6,0.2-0.5-1.2-0.7-0.7c-0.2,0.7-1.1,0.4-1.3-0.2
	c0-0.2-2.4-0.2-0.6-2.9c1.8-2.5,3-3.7,4.2-4.3S149.6,52.4,147.5,54z"/>
<path class="st11" d="M147.5,54c-1.1,0.7-1.7,1.1-1.8,2.3c0,1.3-0.4,3.6-0.8,3.7c-0.6,0.2-0.5-1.2-0.7-0.7c-0.2,0.7-1.1,0.4-1.3-0.2
	c0-0.2-2.4-0.2-0.6-2.9c1.8-2.5,3-3.7,4.2-4.3S149.6,52.4,147.5,54z"/>
<path class="st9" d="M193.1,164.6c-0.5-1.1,0.4-2.9,2.6-1.6c2.3,1.2,4.1,2.4,2.4,7.6c-1.7,5-2.9,8-3.5,10.2
	c-0.7,2.2-3.2,4.9-2.4,1.2c0.8-3.6,1.3-8,1-10.2c-0.7-4.2,0.6-3.8,0.2-5.8C193.3,165.5,193.2,165.1,193.1,164.6z"/>
<path class="st10" d="M193.1,164.6c-0.5-1.1,0.4-2.9,2.6-1.6c2.3,1.2,4.1,2.4,2.4,7.6c-1.7,5-2.9,8-3.5,10.2
	c-0.7,2.2-3.2,4.9-2.4,1.2c0.8-3.6,1.3-8,1-10.2c-0.7-4.2,0.6-3.8,0.2-5.8C193.3,165.5,193.2,165.1,193.1,164.6z"/>
<path class="st9" d="M201.8,169.1c0.7,2,1.4,6.6,0.4,8.5c-1.2,1.8-4.6,7-5.9,8.3s-2.3,0.7-1.4-0.6c0.7-1.4,1.9-3.4,1.9-4
	c0-0.7-0.1-1.4,1.1-3.5c1.1-2.2,3-9.4,3.1-10C201.2,167.4,201.7,168.6,201.8,169.1z"/>
<path class="st10" d="M201.8,169.1c0.7,2,1.4,6.6,0.4,8.5c-1.2,1.8-4.6,7-5.9,8.3s-2.3,0.7-1.4-0.6c0.7-1.4,1.9-3.4,1.9-4
	c0-0.7-0.1-1.4,1.1-3.5c1.1-2.2,3-9.4,3.1-10C201.2,167.4,201.7,168.6,201.8,169.1z"/>
<path class="st9" d="M177.8,186.4c-0.5-1.7-0.8-4.1-1.8-5.5c0.8-2,3.2-7.6,7.4-9.2c0.4-0.1,0.7-0.6,0.5-1c-0.1-0.4,0.5-0.7,0.8,0.6
	c0.5,1.7,0.8,3.3,1.1,5c0,0.9-0.1,1.8-0.4,2.6c-0.2,1.1-0.7,3.6-0.4,4.9c0.2,1.3,0.7,2.3,3.4,1.7c1.3-0.2,1.2-0.7,1.6-1.8
	s1.4-4.3,1.8-6.1c0.3-2.4,0.2-4.8-0.2-7.2c-0.4-1.1,0.1-4.8-0.2-5.5c-0.2-0.8-0.4-1.9-2.8-2.6c-2.3-0.8-3-1-4.6,0.6s-2.2,2.3-2.9,3
	c-0.7,0.8-2.5,0.1-1-1.4c1.6-1.4,3-3,3.5-3.4l-0.5-1.2h-0.8c-2.2,2.2-5,3.7-8,4.4c-0.8,0.1-2.4,0.4-1.3,1.8c0.4,0.4,0.4,1.4,1.1,1.1
	s1.7-2,2.6-1.3c0.8,0.8-0.1,2.6-1.3,3.4c-1.1,0.8-2.3,1.7-3.1,2.3c-0.8,0.4-1.3,0.8-1.2,2.4c0.2,2.1,0,4.2-0.7,6.1
	c-0.7,2-0.4,2.6,0.5,4.1c0.7,1.3,1.9,2.5,2.3,4.8s0.5,2.8,2,2.6c1.1-0.1,2.2-0.8,2.6-1.8L177.8,186.4z"/>
<path class="st10" d="M177.8,186.4c-0.5-1.7-0.8-4.1-1.8-5.5c0.8-2,3.2-7.6,7.4-9.2c0.4-0.1,0.7-0.6,0.5-1c-0.1-0.4,0.5-0.7,0.8,0.6
	c0.5,1.7,0.8,3.3,1.1,5c0,0.9-0.1,1.8-0.4,2.6c-0.2,1.1-0.7,3.6-0.4,4.9c0.2,1.3,0.7,2.3,3.4,1.7c1.3-0.2,1.2-0.7,1.6-1.8
	s1.4-4.3,1.8-6.1c0.3-2.4,0.2-4.8-0.2-7.2c-0.4-1.1,0.1-4.8-0.2-5.5c-0.2-0.8-0.4-1.9-2.8-2.6c-2.3-0.8-3-1-4.6,0.6s-2.2,2.3-2.9,3
	c-0.7,0.8-2.5,0.1-1-1.4c1.6-1.4,3-3,3.5-3.4l-0.5-1.2h-0.8c-2.2,2.2-5,3.7-8,4.4c-0.8,0.1-2.4,0.4-1.3,1.8c0.4,0.4,0.4,1.4,1.1,1.1
	s1.7-2,2.6-1.3c0.8,0.8-0.1,2.6-1.3,3.4c-1.1,0.8-2.3,1.7-3.1,2.3c-0.8,0.4-1.3,0.8-1.2,2.4c0.2,2.1,0,4.2-0.7,6.1
	c-0.7,2-0.4,2.6,0.5,4.1c0.7,1.3,1.9,2.5,2.3,4.8s0.5,2.8,2,2.6c1.1-0.1,2.2-0.8,2.6-1.8L177.8,186.4z"/>
<path class="st5" d="M178.4,190.7c-1,1.3-1.6,2.8-1.8,4.4c0,1.6-1.6,3.2-1.4,4s2.3,2.8,3.5,4.8c1.9,3.1,2.9,6.6,2.8,10.2
	c-0.2,4.4-0.8,8.8-1.9,13.1c-0.1,0.8-0.7,1.7,0.7,3s3.6,3.7,4.6,9.2c0.8,5.4,1.4,8.4,1.8,8.6c0.4,0.4,0.2,0.8,0.2,1.8
	c0,1.1,1,7,1.6,8c0.7,1.2,0.6-6.2,0.5-8.4c0-2.3,0.1-12.5,0.5-13.9c0.4-1.6,0.7-3.1-0.5-5c-1.3-1.9-3.6-5-1.9-10.4s4.3-5.4,3.5-7.4
	c-0.8-1.8-2-3.5-3.4-4.9c-1.2-1.2-0.2-4.1-0.4-5.3c-0.1-2.3-1.9-2.6-2-5.2c-0.2-2.5-0.4-4.6,1.6-7.1c1.8-2.5-0.7-2.4-1.6-4
	s-1.2-3.6-0.5-7c0.4-1.7,0.1-2.2-0.4-2.3c-0.4-0.1-2.4-0.6-2.4-0.6l-2.8,5.9c0.4,1.2,0.6,2.5,0.6,3.8L178.4,190.7z"/>
<path class="st6" d="M178.4,190.7c-1,1.3-1.6,2.8-1.8,4.4c0,1.6-1.6,3.2-1.4,4s2.3,2.8,3.5,4.8c1.9,3.1,2.9,6.6,2.8,10.2
	c-0.2,4.4-0.8,8.8-1.9,13.1c-0.1,0.8-0.7,1.7,0.7,3s3.6,3.7,4.6,9.2c0.8,5.4,1.4,8.4,1.8,8.6c0.4,0.4,0.2,0.8,0.2,1.8
	c0,1.1,1,7,1.6,8c0.7,1.2,0.6-6.2,0.5-8.4c0-2.3,0.1-12.5,0.5-13.9c0.4-1.6,0.7-3.1-0.5-5c-1.3-1.9-3.6-5-1.9-10.4s4.3-5.4,3.5-7.4
	c-0.8-1.8-2-3.5-3.4-4.9c-1.2-1.2-0.2-4.1-0.4-5.3c-0.1-2.3-1.9-2.6-2-5.2c-0.2-2.5-0.4-4.6,1.6-7.1c1.8-2.5-0.7-2.4-1.6-4
	s-1.2-3.6-0.5-7c0.4-1.7,0.1-2.2-0.4-2.3c-0.4-0.1-2.4-0.6-2.4-0.6l-2.8,5.9c0.4,1.2,0.6,2.5,0.6,3.8L178.4,190.7z"/>
<path class="st0" d="M151.4,77.3c-2.3,3-5.8,10.8-7.6,15.6c-1.7,4.9-5.4,16.4-2.8,24.1c2.8,7.7,8,2.8,9.2-0.1s3.1-7.8,3.7-9.1
	c0.5-1.3,0.7-2,1.8,1.1c1.1,3.6,1.9,7.3,2.5,11c0,0.7-1,2.5-2.2,5.4c-1.1,3-1.8,4.9-0.6,6.7c1.1,1.8,5.4,9.2,6.8,12.6
	c0.8,1.9,1.6,2.3,3.8,1.8c3.1-0.9,6.2-1.9,9.2-3.1c1.6-0.8,0.8-2,0.4-3.6c-0.7-2.4-3.5-15.8-3.5-17.6s0.4-4.2-1.9-1.6
	c-0.8,1-1.9,0-1.7-1.2c0.4-1.3,3.1-19.6,3.2-21.7c-1.6-3.5-6.2-14.3-7.6-16.3c-1.3-1.9-1.8-2-3.7-1c-1.9,1-6.4,2.5-7.9-1.2
	c-0.4-0.6-0.8-2.2,0.4-2.3l-0.8-0.4C152.4,76.3,151.8,76.8,151.4,77.3z"/>
<path class="st0" d="M175.9,144.2c-1.7,1-7.7,3.6-10.1,4s-1.8,1.1-1.4,2.9c0.5,1.9,1.9,7.4,2.6,9.5c0.8,1.9,1.8,1.9,3.8,1.9
	c4.3-0.3,8.3-2,11.5-4.8c-1-1.2-2.8-7.1-3.4-9.5C178.4,145.4,178.4,142.8,175.9,144.2z"/>
<path class="st0" d="M122.5,90.5c-0.4,0.9-1.3,1.5-2.3,1.6c-1.6,0-2.8-0.5-3.7,0.8c-0.8,1.2-6.1,7.6-7.2,11.4
	c1.1,2.3,2.6,6.5,3.7,9.5c3.6-3.1,15.2-14.4,17.4-16.6c0.8-0.8,1-1.6-0.2-2.4s-5.8-3.7-6.5-4.2S122.6,90.1,122.5,90.5z"/>
<path class="st0" d="M93.1,106.8c-0.9,4.1-2.4,8.1-4.4,11.9c0.8,1.6,1.6,2.8,2.8,3.4c3.2-2.4,6.2-5.2,8.9-8.2
	c1.4-1.7,3.1-4.2,3.1-4.7c0-0.6-0.6-0.7-1.4-0.6c-0.8,0.2-4.3-1.2-7.7-1.8C93.5,106.4,93.2,106.4,93.1,106.8z"/>
<path class="st0" d="M91.1,104c-1.1-0.2-4.6-4-5.8-6s-1.4-1.9-1.9-0.4c-0.8,2.2-1.9,4.3-3.4,6.2c-1.2,1.6-4.4,5.8-5.3,6.6
	c-0.8,1,0,1.3,0.7,2s4.6,5.4,5.4,6.5c0.8,1,1.8,2.9,4,0.8c2.8-2.7,5-5.9,6.2-9.6c1.2-3.8,1.2-5.9,2.3-5.6l0.1-0.8l-0.4-0.5l-0.5-0.5
	c0.1,0.3,0.1,0.7-0.1,1C92.3,104.4,91.6,104.2,91.1,104z"/>
<path class="st0" d="M148.1,18.4c-2.5,3-7.6,5.6-16.1,7.7c-8.4,2.2-16.6,8.2-19.9,11c-3.5,3-12.1,10-16.2,11.8
	c-1.2,0.5-3.6,2-0.5,2.4c2.3,0.4,3.8-1,8.6-4.6c4.9-3.5,8.6-6,12.4-9.6c3.5-3.5,9.6-6.6,16.4-8.4c6.7-1.9,15.5-4.8,18-7.7
	c1.2-1.2,1.3-1.9,0.2-3C149.9,16.8,149.2,17.2,148.1,18.4z"/>
<path class="st0" d="M105.4,47.6c-0.7,0.4-1.1,0.8-1.9,3.6c-0.8,2.6-0.7,4.2,0,4.9c0.4,0.4,1,0.5,1.6,0.5c0.4,0,0.6,0.1,0.6-0.6
	c-0.1-0.8-0.1-4.2,2.4-5.8c0.5-0.2-0.1-2.3-1.8-1.9C105.7,48.5,106.3,47.2,105.4,47.6z"/>
<path class="st0" d="M76.6,58.3c1.3,0,2.2,0,2,1.6c-0.1,1.4-0.7,3.5-0.8,4.9s-0.1,1.9,0.7,1.9s-1.2,0.8-2.3,1.1
	c-1.2,0.1-2.9,0.8-3.7-4c-0.4-1.4-0.2-3.8-0.5-4.3C73.4,58.8,75,58.3,76.6,58.3z"/>
<path class="st0" d="M101.3,62.3c0.4,1.9,0.8,1.9,0.5,2.2s-0.7-0.7-2.3-0.5c-1.4,0.2-13.2,2-14,2.2c-2.6,0.4-2.8-0.1-0.2-0.7
	c2.4-0.5,11.3-2,13.9-2.5L101.3,62.3z"/>
<path class="st0" d="M87.2,204.8c1.2,0.7,4.1,1.6,9-0.5c5-2,10.4-0.7,11.3,2.9c0.8,3.5,1,8-0.7,10c-1.2,1.7-2.5,1.6-4,1.1
	c-2.6-0.8-8.9-3.7-10.7-4.6c-2.2-1-4.5-1.7-7-1.8c-0.7-1.8-0.7-4.9-0.1-6s0.6-2.3,1.1-1.9C86.5,204.3,86.9,204.6,87.2,204.8z"/>
<path class="st0" d="M106.8,221.3c1.8,0,3.4,1.1,4.1,2.8c0.6,1.8,4.2,2.2,5.8,2.2c1.6-0.1,1.3,0.7,1.2,1.7c0,0.8-0.4,3.7-0.4,4.8
	c0,1.2,0.4,5,0.5,5.8c0.2,0.8-0.5,1.2-1.3,1.6s-3.8,1.2-5.8-0.1c-1.1-0.7-2.3-1.8-1.1-1.8c1.2-0.1-1.6-10.7-2.3-12.5
	C106.8,223.7,104.6,221.3,106.8,221.3z"/>
<path class="st0" d="M74.6,199.3c0.6,0.1,0.8,0.7,1.2,1.3c0.4,0.5,0.4,1.3-0.1,1.8c-1.1,1.2-2.3,6.2-2,10c-0.9-0.2-1.8-0.4-2.8-0.4
	c-0.2-2-0.1-8.4,0.8-10.4C72.6,199.4,73.6,199,74.6,199.3z"/>
<path class="st0" d="M74.9,256.2c2.4,2.6,6.7,6.6,10,8c2.6,1.3,5.5,1.8,8.4,1.6c2.3-0.2,1.8,0.7,0,1.1c-1.9,0.2-6.2,0.2-9-1.2
	c-2.8-1.6-7.2-4.3-10-8.4C73.4,256.3,74.2,255.4,74.9,256.2z"/>
<path class="st0" d="M123.5,249.6c-2.8,1.5-5.8,2.6-8.9,3.5c0.3,0.9,0.5,1.9,0.5,2.9c2,0,6-1.4,9.2-3.5c0.7-0.5,1.1-1.1,0.7-1.7
	C124.8,250.2,124.4,249.1,123.5,249.6z"/>
<path class="st0" d="M101.4,242c-0.5-0.5,2.2-1.1,2.8-1.1c0.8,0.5,1.6,1.2,2.3,1.9c0.4,0.2,0.2,0.4-0.1,0.6
	c-0.9,0.3-1.7,0.5-2.6,0.7C102.9,243.5,102.1,242.8,101.4,242z"/>
<path class="st0" d="M106.3,203.3c-0.7-0.6-0.7-0.8-0.2-1.4c0.3-0.5,0.6-0.9,1.1-1.2c0.4-0.1,0.8-0.2,1.6,0.7
	c1.8,2.7,3.4,5.5,4.9,8.4c0.8,1.6,1.7,0.5,1.3-0.4c-0.4-1-0.9-2-1.4-3c1.2-3.6,1.9-7.4,2-11.2c0.1-2.5-0.4-5.1-1.3-7.4
	c2.6,0,8,0,10.2-0.7c2.2-0.6,0.4-0.8-0.5-0.7c-3.8,0.1-7.5,0-11.3-0.5c-7.7-0.8-15.1-5.3-17.5-8.2c-0.4-0.5-2.6-0.2-0.7,1.2
	c1.8,1.6,6.6,5.9,13.6,7.2c1.6,0.4,4.1,0.7,4.4,6.5c0.2,3.4,0.2,6.7-0.1,10.1c0,0.6-0.4,0.7-0.8,0.1c-0.8-1.2-1.8-2.3-2.9-3.2
	c-0.7-0.4-1.5-0.4-2.2,0.1c-0.9,0.7-1.7,1.4-2.4,2.3L106.3,203.3z"/>
<path class="st0" d="M91.2,221.4c-0.6,0-4.8,0.4-5.8,0c-0.8-0.2-1.4-1.3-0.8-1.8c0.8-0.5,2.3,0.2,3.6,0.2c1.4,0,3-0.4,3.5-0.2
	c0.4,0.2,0.8,0.2,0.8,1.9L91.2,221.4z"/>
<path class="st0" d="M81.1,247.1c-1.2-0.8-2.6-4.2-2.9-11.2c0.1-2.7,0.6-5.5,1.6-8c0.7-1.9-0.5-1.2-0.7-0.5
	c-0.7,1.7-1.2,3.5-1.6,5.3c-0.5,3-0.5,6,0,9c0.3,2.1,0.7,4.2,1.3,6.2L81.1,247.1z"/>
<path class="st7" d="M119.3,18.2c0.1-0.5,0.3-1,0.6-1.4c-0.7,0.5-1.4,0.7-2,1.1C118.2,18.5,118.8,19.4,119.3,18.2z"/>
<path class="st8" d="M119.3,18.2c0.1-0.5,0.3-1,0.6-1.4c-0.7,0.5-1.4,0.7-2,1.1C118.2,18.5,118.8,19.4,119.3,18.2z"/>
<path class="st7" d="M136.1,19.1c-0.2-1-1.2,0.6-2.3,1.9c-1.2,1.4-2.9,0.6-3-0.1c-0.4-1-0.9-2-1.6-2.9c-1.1-1.3,1-3.1,1.8-3.4
	c0.7-0.2,1.5-0.4,2.2-0.7c0.2-0.2-0.1-1.6-0.4-2.6c-3.8,1.2-7.5,2.7-11,4.6c1.1,0.4,0.7,2.5,0.6,2.8c-0.1,0.4-0.5,2.3,0.4,1.1
	c0.5-0.8,1.2-1.4,2-1.8c0.8-0.2,1.8-0.2,1.8,1.1c0.1,1.3-0.5,1.2-0.7,2c-0.1,0.8,0,0.8,0.5,1s0.7,0.7,0.4,1.7c-0.2,0.8-1.7,1-3,0.8
	c-1.3-0.2-1.4,0-1,0.4c0.5,0.5,0.8,1.2,1,1.9c3.9-1.9,8.1-3.2,12.4-3.8C136.3,21.6,136.3,20.4,136.1,19.1z"/>
<path class="st8" d="M136.1,19.1c-0.2-1-1.2,0.6-2.3,1.9c-1.2,1.4-2.9,0.6-3-0.1c-0.4-1-0.9-2-1.6-2.9c-1.1-1.3,1-3.1,1.8-3.4
	c0.7-0.2,1.5-0.4,2.2-0.7c0.2-0.2-0.1-1.6-0.4-2.6c-3.8,1.2-7.5,2.7-11,4.6c1.1,0.4,0.7,2.5,0.6,2.8c-0.1,0.4-0.5,2.3,0.4,1.1
	c0.5-0.8,1.2-1.4,2-1.8c0.8-0.2,1.8-0.2,1.8,1.1c0.1,1.3-0.5,1.2-0.7,2c-0.1,0.8,0,0.8,0.5,1s0.7,0.7,0.4,1.7c-0.2,0.8-1.7,1-3,0.8
	c-1.3-0.2-1.4,0-1,0.4c0.5,0.5,0.8,1.2,1,1.9c3.9-1.9,8.1-3.2,12.4-3.8C136.3,21.6,136.3,20.4,136.1,19.1z"/>
<path class="st7" d="M106.7,37.4c-0.5-0.8-1.1-1-1.3-0.2c-0.2,0.6-0.7,2.9-2.2,3.5c-0.5,0.1-0.8,0.2-1.2,0.4c0.6,0.5,1.1,1,1.8,1.4
	c1-1.1,2.1-2.2,3.2-3.2C107,38.6,106.9,38,106.7,37.4z"/>
<path class="st8" d="M106.7,37.4c-0.5-0.8-1.1-1-1.3-0.2c-0.2,0.6-0.7,2.9-2.2,3.5c-0.5,0.1-0.8,0.2-1.2,0.4c0.6,0.5,1.1,1,1.8,1.4
	c1-1.1,2.1-2.2,3.2-3.2C107,38.6,106.9,38,106.7,37.4z"/>
<path class="st7" d="M120.6,26.4c-0.6-0.1-1,0.6-1.3,1.1c-0.4,0.9-1.3,1.5-2.3,1.3c-1.2-0.1-1.4-0.5-1.8-1.6c-0.2-0.9-1-1.4-1.9-1.3
	c-0.8,0-1.4-1.1-0.5-2.2c0.8-1.1,1.8-0.6,2.6-0.6c0.7,0,1.1-0.8,0.5-1.2c-0.7-0.5-1.2-1.2-1.4-2c-3.5,2.2-6.8,4.7-9.8,7.4
	c0.5,0.1,1,0.2,1.6,0.4c0.7,0.2,1.1,0.8,1.1,1.6c0,0.8,0.1,1.1,0.7,0.5c0.5-0.5-0.1-2.3,1.7-2.9c1.7-0.7,1.9,0.6,1.8,1.4
	c0,1,0,1.7,1,2.2c0.8,0.4,1.8,1.8-0.1,2.5c-1.2,0.5-2.5,1-3.8,1.3c-0.8,0.2-0.6,1.1,0.1,1.6c0.4,0.2,0.6,0.6,0.8,0.7
	c2.4-2.1,4.9-4.1,7.4-5.9c1.3-1,2.7-1.8,4.2-2.6C121.2,27.5,121.3,26.6,120.6,26.4z"/>
<path class="st8" d="M120.6,26.4c-0.6-0.1-1,0.6-1.3,1.1c-0.4,0.9-1.3,1.5-2.3,1.3c-1.2-0.1-1.4-0.5-1.8-1.6c-0.2-0.9-1-1.4-1.9-1.3
	c-0.8,0-1.4-1.1-0.5-2.2c0.8-1.1,1.8-0.6,2.6-0.6c0.7,0,1.1-0.8,0.5-1.2c-0.7-0.5-1.2-1.2-1.4-2c-3.5,2.2-6.8,4.7-9.8,7.4
	c0.5,0.1,1,0.2,1.6,0.4c0.7,0.2,1.1,0.8,1.1,1.6c0,0.8,0.1,1.1,0.7,0.5c0.5-0.5-0.1-2.3,1.7-2.9c1.7-0.7,1.9,0.6,1.8,1.4
	c0,1,0,1.7,1,2.2c0.8,0.4,1.8,1.8-0.1,2.5c-1.2,0.5-2.5,1-3.8,1.3c-0.8,0.2-0.6,1.1,0.1,1.6c0.4,0.2,0.6,0.6,0.8,0.7
	c2.4-2.1,4.9-4.1,7.4-5.9c1.3-1,2.7-1.8,4.2-2.6C121.2,27.5,121.3,26.6,120.6,26.4z"/>
<path class="st7" d="M102.4,35c0.1-0.8-0.7-1.2-1.1-1.4c-0.5,0-1.1-0.7-1.3-1.3c-0.5,0.6-0.9,1.2-1.2,1.9c0.2,0.6,0.4,1.2,0.6,1.7
	C100.4,35.9,102.2,35.9,102.4,35z"/>
<path class="st8" d="M102.4,35c0.1-0.8-0.7-1.2-1.1-1.4c-0.5,0-1.1-0.7-1.3-1.3c-0.5,0.6-0.9,1.2-1.2,1.9c0.2,0.6,0.4,1.2,0.6,1.7
	C100.4,35.9,102.2,35.9,102.4,35z"/>
<path class="st7" d="M141.7,78.6c-3.4-0.1-6.9,0.4-10.1,1.7c0.6,0.4,1.2,1.2,2.4,0.7c1.8-0.6,2.4,1.3,1.6,1.8
	c-0.7,0.6-1.1,1.8,0.5,0.8s3,0.5,2.4,1.4c-0.7,1.1-1.6,0.2-1.3,1.7c0.1,1.4-0.1,2.8-1.4,3s-1.6-1.7-2.2-1.6s0.1,3.5-0.1,3.5
	c-0.9,0.2-1.7,0.7-2.3,1.4c0.1,0,0.1,0.1,0.1,0.1c0,0,0,0,0,0c5,3.6,6.4,1.6,7.2-0.1c1.2-3.2,2.1-6.4,2.9-9.7
	C141.6,81.8,141.7,80.2,141.7,78.6z"/>
<path class="st8" d="M141.7,78.6c-3.4-0.1-6.9,0.4-10.1,1.7c0.6,0.4,1.2,1.2,2.4,0.7c1.8-0.6,2.4,1.3,1.6,1.8
	c-0.7,0.6-1.1,1.8,0.5,0.8s3,0.5,2.4,1.4c-0.7,1.1-1.6,0.2-1.3,1.7c0.1,1.4-0.1,2.8-1.4,3s-1.6-1.7-2.2-1.6s0.1,3.5-0.1,3.5
	c-0.9,0.2-1.7,0.7-2.3,1.4c0.1,0,0.1,0.1,0.1,0.1c0,0,0,0,0,0c5,3.6,6.4,1.6,7.2-0.1c1.2-3.2,2.1-6.4,2.9-9.7
	C141.6,81.8,141.7,80.2,141.7,78.6z"/>
<path class="st7" d="M130.6,88.7c0.2-0.6-0.5-1.2-1.3-0.8c-0.8,0.6-1.9,1.3-2.8,0c-0.8-1.4,1-1.6,1-2.2c0.1-0.7-0.5-0.8-0.2-1.8
	c0.4-1.1,1.6-0.8,2.4-0.2c1,0.6,0.6-1,0.5-1.6c-0.1-0.4-0.1-0.8,0-1.2c-1.1,0.4-2.1,0.9-3,1.6c-4.8,2.9-4.9,5.4-3.8,6.4
	c1,0.8,3.1,1.2,6.6,3.5C129.9,91.1,130.1,89.8,130.6,88.7z"/>
<path class="st8" d="M130.6,88.7c0.2-0.6-0.5-1.2-1.3-0.8c-0.8,0.6-1.9,1.3-2.8,0c-0.8-1.4,1-1.6,1-2.2c0.1-0.7-0.5-0.8-0.2-1.8
	c0.4-1.1,1.6-0.8,2.4-0.2c1,0.6,0.6-1,0.5-1.6c-0.1-0.4-0.1-0.8,0-1.2c-1.1,0.4-2.1,0.9-3,1.6c-4.8,2.9-4.9,5.4-3.8,6.4
	c1,0.8,3.1,1.2,6.6,3.5C129.9,91.1,130.1,89.8,130.6,88.7z"/>
<path class="st7" d="M115.3,85.9c-2.2-1.4-4.1-3.3-5.3-5.6c0,0,0.1-0.5-0.4-0.5c-2.1-0.1-4.2-0.6-6.1-1.3c-3.5-1.2-4-0.5-4.3,1
	c-0.7,2.9-1,5.8-1,8.8c0,4.4,1.9,7.2,3.1,6.8c0.6-0.2,2-1,3.7-1.8c0-1,0.1-2.4,0.1-3.2c0.2-1-1-0.6-1.4,0c-0.4,0.5-1.3,1.4-2.2,1.3
	s-1.4-1.7-1.2-3c0.1-1.4-1.6-1.9-0.5-3.8c1.1-1.8,1.9,0.5,2.8,0.4c1-0.2,0.5-0.7,0-2.2s1.3-1.8,2.4-0.8c0.7,0.7,1.1-0.8,2-0.6
	c1.1,0.2,1.7,1,1.1,2c-0.5,0.7-0.8,2.5,0,1.6c1-1,1.8-1.6,2.6-0.8c0.8,0.6,0.4,2,0.1,2.6c-0.2,0.7,1.4,1.6,0.2,2.4s-2.5-0.6-3.2-0.4
	c-0.6,0.1-0.7,1,0.1,1.6c0.5,0.4,1.1,0.7,1.7,1c1.8-0.6,3.5-1.4,5-2.4l1.2,0.1C116,87.2,115.8,86.3,115.3,85.9z"/>
<path class="st8" d="M115.3,85.9c-2.2-1.4-4.1-3.3-5.3-5.6c0,0,0.1-0.5-0.4-0.5c-2.1-0.1-4.2-0.6-6.1-1.3c-3.5-1.2-4-0.5-4.3,1
	c-0.7,2.9-1,5.8-1,8.8c0,4.4,1.9,7.2,3.1,6.8c0.6-0.2,2-1,3.7-1.8c0-1,0.1-2.4,0.1-3.2c0.2-1-1-0.6-1.4,0c-0.4,0.5-1.3,1.4-2.2,1.3
	s-1.4-1.7-1.2-3c0.1-1.4-1.6-1.9-0.5-3.8c1.1-1.8,1.9,0.5,2.8,0.4c1-0.2,0.5-0.7,0-2.2s1.3-1.8,2.4-0.8c0.7,0.7,1.1-0.8,2-0.6
	c1.1,0.2,1.7,1,1.1,2c-0.5,0.7-0.8,2.5,0,1.6c1-1,1.8-1.6,2.6-0.8c0.8,0.6,0.4,2,0.1,2.6c-0.2,0.7,1.4,1.6,0.2,2.4s-2.5-0.6-3.2-0.4
	c-0.6,0.1-0.7,1,0.1,1.6c0.5,0.4,1.1,0.7,1.7,1c1.8-0.6,3.5-1.4,5-2.4l1.2,0.1C116,87.2,115.8,86.3,115.3,85.9z"/>
<path class="st7" d="M108.5,106.4c-0.8-1.7-1.1-0.4-3.1,2.8c-2.1,2.9-4.4,5.7-7,8.3c2.3,0.4,7.2,1.6,4.2,4.1
	c-3.1,2.6-1.8,2.4-0.4,2.3c1.4-0.2,3.8,0.6,2,3.8c-1.8,3.1-3,5.4-4.7,6.4c-1.7,1.1-4.2,1-4.7-1.4s-2.2,0-2.3,1.6
	c-0.1,1.8-0.1,3.5,0,5.3l-3.6-0.2c0-1.9,0-3.8,0.2-5.8c0.2-1.4,0.1-3.1-2-2.4c-0.9,0.3-1.9,0.2-2.8-0.2c-4.2,3.6-6.4,6.2-7.7,8.5
	c1.2,1.2,3,1.5,4.6,1c2-0.8,5.4,0.1,3.4,3.4c-2,3.1-1.9,4.7,0.1,2.8s5.3-5.4,6.4-1.8c0.6,2.3-1.6,3-1.4,4.9s1.9,3.7-0.7,6
	s-3.7-1.6-5.4-1.1c-0.9,0.3-1.4,1.2-1.2,2.2c2.3,3.4,5.6,8,6.8,10c1.9,3.1,1.9,6.8,2.6,6.2s2.5-2.3,3.1-2.8c0.7-0.4,1-1.2,0.8-2
	c-0.9-3.4-1.2-6.8-1.1-10.3c0.4-4.3,2.4-9.1,3.8-11.9c1.4-2.6,5.8-11.2,6.8-13.3c1.1-2.3,3-4.9,3.4-7c0.5-2,2.3-6.8,3-9.1
	C111.1,113,110,109.6,108.5,106.4z"/>
<path class="st8" d="M108.5,106.4c-0.8-1.7-1.1-0.4-3.1,2.8c-2.1,2.9-4.4,5.7-7,8.3c2.3,0.4,7.2,1.6,4.2,4.1
	c-3.1,2.6-1.8,2.4-0.4,2.3c1.4-0.2,3.8,0.6,2,3.8c-1.8,3.1-3,5.4-4.7,6.4c-1.7,1.1-4.2,1-4.7-1.4s-2.2,0-2.3,1.6
	c-0.1,1.8-0.1,3.5,0,5.3l-3.6-0.2c0-1.9,0-3.8,0.2-5.8c0.2-1.4,0.1-3.1-2-2.4c-0.9,0.3-1.9,0.2-2.8-0.2c-4.2,3.6-6.4,6.2-7.7,8.5
	c1.2,1.2,3,1.5,4.6,1c2-0.8,5.4,0.1,3.4,3.4c-2,3.1-1.9,4.7,0.1,2.8s5.3-5.4,6.4-1.8c0.6,2.3-1.6,3-1.4,4.9s1.9,3.7-0.7,6
	s-3.7-1.6-5.4-1.1c-0.9,0.3-1.4,1.2-1.2,2.2c2.3,3.4,5.6,8,6.8,10c1.9,3.1,1.9,6.8,2.6,6.2s2.5-2.3,3.1-2.8c0.7-0.4,1-1.2,0.8-2
	c-0.9-3.4-1.2-6.8-1.1-10.3c0.4-4.3,2.4-9.1,3.8-11.9c1.4-2.6,5.8-11.2,6.8-13.3c1.1-2.3,3-4.9,3.4-7c0.5-2,2.3-6.8,3-9.1
	C111.1,113,110,109.6,108.5,106.4z"/>
<path class="st7" d="M149,147.8c-2.4-4-2.9-5.6-3.2-9.7c-0.1-3,0-6.1,0.5-9.1c-0.8-0.1-1.7,0-1.8,1.2c-0.2,1.9-0.6,3.9-1.4,5.6
	c-0.6,1.2-2.4,1.2-3.6,1.2c-1.1,0.1-1.1-0.6-0.4-2.3s1.1-2.4,0.8-4c-0.2-1.4-0.8-0.1-1.6,1.2c-0.7,1.2-2.5,3.8-4.7,3.6
	c-2.2-0.4-1.6-3.6-1.4-4.7c0.2-1.1-0.4-1.3-1.2-1.4c-0.8-0.2-2.6-0.6-1.6-3.4c0.8-2.6,1.9-2.4,3.1-1.9c1.3,0.5,1.6-0.4,0.4-0.8
	s-2.5-1.6-2.4-2.8c0.2-3.5,2.4-3.1,4.1-2.8c1.7,0.1,3.4-0.6,4.6-1.9v-0.2c-2.5-9.5,2.3-21.1,3.5-24.4c2.4-5.2,5.2-10.3,8.2-15.2
	c-1-0.5-3.4-1.7-4.8-2.4c-1.3-0.6-2-1.1-2.4-0.5c-0.4,0.5-0.8,0.8-1.6,1.7c-1.2,1.9-0.1,1.6,0.1,1.6c0.5,0,2,2,2.3,2.6
	c0.4,0.4,0,0.7-0.6,2.3c-0.8,1.9-1.4,6.5-2.3,9.1c-2.2,8.2-5.8,7.3-7.3,6.4c-1.6-1.1-2,0.5-3.6,2.8c-0.5,0.5-1.4,1.6-2.6,2.8
	c1.6,0.7,3.6,2.6,1.2,4.6c-3,2.3-3.5,3.5-2,3.1c1.4-0.2,2.8-2.4,4.3-0.8c1.6,1.4-0.5,3.1-1.4,3.6c-0.8,0.5-2.5,1.3-2,3.1
	c0.5,1.8,0.8,4.2-1.6,4.7c-2.3,0.6-3.2-0.4-3.8-1.6c-0.7-1.2-1.3-0.4-1.6,1.1c-0.3,1-0.4,2.1-0.5,3.1c0,0.6-1.7-0.2-2.4-1
	c-0.7-0.8-1.7,1.2-2.5,0.2c-0.8-1.1,1-4.2,1.6-5.3s0.4-2.6-3.4-0.8c-1.2,2-2.2,4.9-3.6,9.5c-2.3,6.2-5.2,12.1-8.6,17.8
	c-5,8.2-6,15.7-5.2,20.5c0.7,4.7,1.3,4.3,2.4,4.3c1,0,3.5,3.1,5.2,5.2c1.7,1.9,2.4,1.1,3.2,0.4c4.9-3.6,10.2-6.6,15.7-9.1
	c3.8-1.8,7.8-3.4,11.9-4.7c0.1-1.5,0.3-3.1,0.6-4.6c0.1-1-0.7-1.2-1.7,0c-0.8,1.2-3.4,4.2-5,3.4c-1.7-0.7-3.1-2.5-2.2-4.2
	c0.8-1.6-0.4-1.9-1.1-2.8s-0.7-4.2,1.4-4.4c2-0.2,2.6,1.6,4.1,2c1.4,0.4,2.6,0.4,0.8-1.6c-1.8-2-4-1.2-2.9-4
	c1.2-2.6,2.8-2.5,4.7-1.9c1.8,0.5,2.8-0.5,4-1.3s3.6-1.9,5.3,0s-1.2,3.7-1.9,4.3c-1.2,1.3-1.4,3.6,0,2.3s3.7-6.5,5.4-2.3
	c0.8,2.4-0.8,3.5-0.6,4.9c0.4,1.6,2.9,3.5,0.8,5.4s-5,0.4-6.2-0.8c-1.2-1.1-2.5-1.7-1.9,0.4c0.4,1.3,0.6,2.7,0.6,4.1
	c4.1-1.1,7.7-1.8,9.5-1.7c2.6,0.2,4.7,1.1,4.6-1.4C152.8,153.5,151.4,151.8,149,147.8z"/>
<path class="st8" d="M149,147.8c-2.4-4-2.9-5.6-3.2-9.7c-0.1-3,0-6.1,0.5-9.1c-0.8-0.1-1.7,0-1.8,1.2c-0.2,1.9-0.6,3.9-1.4,5.6
	c-0.6,1.2-2.4,1.2-3.6,1.2c-1.1,0.1-1.1-0.6-0.4-2.3s1.1-2.4,0.8-4c-0.2-1.4-0.8-0.1-1.6,1.2c-0.7,1.2-2.5,3.8-4.7,3.6
	c-2.2-0.4-1.6-3.6-1.4-4.7c0.2-1.1-0.4-1.3-1.2-1.4c-0.8-0.2-2.6-0.6-1.6-3.4c0.8-2.6,1.9-2.4,3.1-1.9c1.3,0.5,1.6-0.4,0.4-0.8
	s-2.5-1.6-2.4-2.8c0.2-3.5,2.4-3.1,4.1-2.8c1.7,0.1,3.4-0.6,4.6-1.9v-0.2c-2.5-9.5,2.3-21.1,3.5-24.4c2.4-5.2,5.2-10.3,8.2-15.2
	c-1-0.5-3.4-1.7-4.8-2.4c-1.3-0.6-2-1.1-2.4-0.5c-0.4,0.5-0.8,0.8-1.6,1.7c-1.2,1.9-0.1,1.6,0.1,1.6c0.5,0,2,2,2.3,2.6
	c0.4,0.4,0,0.7-0.6,2.3c-0.8,1.9-1.4,6.5-2.3,9.1c-2.2,8.2-5.8,7.3-7.3,6.4c-1.6-1.1-2,0.5-3.6,2.8c-0.5,0.5-1.4,1.6-2.6,2.8
	c1.6,0.7,3.6,2.6,1.2,4.6c-3,2.3-3.5,3.5-2,3.1c1.4-0.2,2.8-2.4,4.3-0.8c1.6,1.4-0.5,3.1-1.4,3.6c-0.8,0.5-2.5,1.3-2,3.1
	c0.5,1.8,0.8,4.2-1.6,4.7c-2.3,0.6-3.2-0.4-3.8-1.6c-0.7-1.2-1.3-0.4-1.6,1.1c-0.3,1-0.4,2.1-0.5,3.1c0,0.6-1.7-0.2-2.4-1
	c-0.7-0.8-1.7,1.2-2.5,0.2c-0.8-1.1,1-4.2,1.6-5.3s0.4-2.6-3.4-0.8c-1.2,2-2.2,4.9-3.6,9.5c-2.3,6.2-5.2,12.1-8.6,17.8
	c-5,8.2-6,15.7-5.2,20.5c0.7,4.7,1.3,4.3,2.4,4.3c1,0,3.5,3.1,5.2,5.2c1.7,1.9,2.4,1.1,3.2,0.4c4.9-3.6,10.2-6.6,15.7-9.1
	c3.8-1.8,7.8-3.4,11.9-4.7c0.1-1.5,0.3-3.1,0.6-4.6c0.1-1-0.7-1.2-1.7,0c-0.8,1.2-3.4,4.2-5,3.4c-1.7-0.7-3.1-2.5-2.2-4.2
	c0.8-1.6-0.4-1.9-1.1-2.8s-0.7-4.2,1.4-4.4c2-0.2,2.6,1.6,4.1,2c1.4,0.4,2.6,0.4,0.8-1.6c-1.8-2-4-1.2-2.9-4
	c1.2-2.6,2.8-2.5,4.7-1.9c1.8,0.5,2.8-0.5,4-1.3s3.6-1.9,5.3,0s-1.2,3.7-1.9,4.3c-1.2,1.3-1.4,3.6,0,2.3s3.7-6.5,5.4-2.3
	c0.8,2.4-0.8,3.5-0.6,4.9c0.4,1.6,2.9,3.5,0.8,5.4s-5,0.4-6.2-0.8c-1.2-1.1-2.5-1.7-1.9,0.4c0.4,1.3,0.6,2.7,0.6,4.1
	c4.1-1.1,7.7-1.8,9.5-1.7c2.6,0.2,4.7,1.1,4.6-1.4C152.8,153.5,151.4,151.8,149,147.8z"/>
<path class="st7" d="M116,164.4c-2.3,0.7-2.6-0.4-4.2-0.8c-1.4-0.5-1.6,0.7-0.5,2.3s2.2,3.1,0.8,3.1c-1.2,0-2.2,0.1-2.3,1.1
	s-2.2-0.1-2.6-2.2c-0.5-1.9-0.8-5.6-1.9-3.8c-1.1,1.9-1.9,5-4.6,3.6s-0.8-3.2-2.2-4.6s-2.6-3-1.2-5.4c1.2-2.3,2.4-0.4,3.6-0.4
	s1.4-1.1,0.4-1.9c-1.2-0.8-2.5-4.9,2.6-4.6c2.1,0,4.1-0.6,5.8-1.8c1.7-1.2,6-0.6,4.2,2.5s-1.2,3.7-0.1,2.6c1.1-1.2,2.4-3.1,4.3-2.6
	s1.1,2-0.1,3.7s-0.5,2.8,0.5,3.5C119.4,159.5,121.2,163,116,164.4z"/>
<path class="st8" d="M116,164.4c-2.3,0.7-2.6-0.4-4.2-0.8c-1.4-0.5-1.6,0.7-0.5,2.3s2.2,3.1,0.8,3.1c-1.2,0-2.2,0.1-2.3,1.1
	s-2.2-0.1-2.6-2.2c-0.5-1.9-0.8-5.6-1.9-3.8c-1.1,1.9-1.9,5-4.6,3.6s-0.8-3.2-2.2-4.6s-2.6-3-1.2-5.4c1.2-2.3,2.4-0.4,3.6-0.4
	s1.4-1.1,0.4-1.9c-1.2-0.8-2.5-4.9,2.6-4.6c2.1,0,4.1-0.6,5.8-1.8c1.7-1.2,6-0.6,4.2,2.5s-1.2,3.7-0.1,2.6c1.1-1.2,2.4-3.1,4.3-2.6
	s1.1,2-0.1,3.7s-0.5,2.8,0.5,3.5C119.4,159.5,121.2,163,116,164.4z"/>
<path class="st7" d="M125.4,142.4c-1.2,0-2.5-0.1-3.7-0.4c-0.1,1.8-1.8,4.3-3.6,7c-0.1,0.2-1.2,0.2-1.7-0.1
	c-0.4-0.4-1.8-1.1-0.7-2.2s2.8-3.5,2.4-4.6c-0.2-1-1.1-1.9-2.2-0.5S113,146,111,146c-1.9,0.1-3.8-1.6-3-3.4c1-1.8,1.2-2.8,0-4.3
	c-1.3-1.6-0.8-3.6,1.9-4.9c1.2-0.3,2.4,0,3.4,0.8c1.1,0.8,1.6,0,0.1-0.8c-1.3-0.8-2.5-1.8-2.6-3.7c-0.1-1.8,0.8-3.6,3.4-2.6
	c1.6,0.8,3.6,0.6,4.9-0.6c1.1-0.8,5.4-1.9,4.8,1.9c-0.5,2.8-1.8,2.9-2.2,4.3c-0.5,1.6,0.7,0.5,1.3-0.5c0.7-1.2,2.3-5.8,5.3-2.3
	c0.7,0.8,0.5,2.3-0.5,3.8c-0.8,1.6-0.1,2.5,0.5,3.4C128.9,138.1,130.1,142.2,125.4,142.4z"/>
<path class="st8" d="M125.4,142.4c-1.2,0-2.5-0.1-3.7-0.4c-0.1,1.8-1.8,4.3-3.6,7c-0.1,0.2-1.2,0.2-1.7-0.1
	c-0.4-0.4-1.8-1.1-0.7-2.2s2.8-3.5,2.4-4.6c-0.2-1-1.1-1.9-2.2-0.5S113,146,111,146c-1.9,0.1-3.8-1.6-3-3.4c1-1.8,1.2-2.8,0-4.3
	c-1.3-1.6-0.8-3.6,1.9-4.9c1.2-0.3,2.4,0,3.4,0.8c1.1,0.8,1.6,0,0.1-0.8c-1.3-0.8-2.5-1.8-2.6-3.7c-0.1-1.8,0.8-3.6,3.4-2.6
	c1.6,0.8,3.6,0.6,4.9-0.6c1.1-0.8,5.4-1.9,4.8,1.9c-0.5,2.8-1.8,2.9-2.2,4.3c-0.5,1.6,0.7,0.5,1.3-0.5c0.7-1.2,2.3-5.8,5.3-2.3
	c0.7,0.8,0.5,2.3-0.5,3.8c-0.8,1.6-0.1,2.5,0.5,3.4C128.9,138.1,130.1,142.2,125.4,142.4z"/>
<path class="st3" d="M123.7,24.5c1.3,0.1,2.6,0.1,3-0.8c0.4-0.8,0.1-1.4-0.4-1.6c-0.5-0.2-0.6-0.2-0.5-1.1c0.1-0.7,0.8-0.7,0.7-1.9
	c0-1.3-1-1.4-1.8-1.1c-1,0.2-1.2,0.6-2,1.8c-0.8,1.1-0.5-0.7-0.4-1.1c0.2-0.2,0.5-2.5-0.6-2.9c-0.7,0.4-1.3,0.7-1.9,1
	c-0.2,0.5-0.4,0.9-0.5,1.4c-0.5,1.2-1.1,0.2-1.4-0.4c-1.1,0.6-2.1,1.2-3.1,1.9c-0.1,0-0.2,0.1-0.4,0.1c0.3,0.8,0.8,1.6,1.6,2
	c0.6,0.5,0.2,1.2-0.6,1.2c-0.7,0-1.6-0.5-2.6,0.6c-0.8,1.1-0.2,2.2,0.6,2.2c0.9-0.1,1.7,0.5,1.9,1.3c0.4,1.1,0.6,1.4,1.8,1.6
	c1,0.1,1.9-0.4,2.3-1.3c0.2-0.5,0.7-1.3,1.2-1.2c0.8,0.4,0.7,1.1,0.5,1.9c1-0.5,1.8-1,2.8-1.4c-0.2-0.7-0.5-1.3-1-1.9
	C122.4,24.6,122.5,24.4,123.7,24.5z"/>
<path class="st13" d="M123.7,24.5c1.3,0.1,2.6,0.1,3-0.8c0.4-0.8,0.1-1.4-0.4-1.6c-0.5-0.2-0.6-0.2-0.5-1.1c0.1-0.7,0.8-0.7,0.7-1.9
	c0-1.3-1-1.4-1.8-1.1c-1,0.2-1.2,0.6-2,1.8c-0.8,1.1-0.5-0.7-0.4-1.1c0.2-0.2,0.5-2.5-0.6-2.9c-0.7,0.4-1.3,0.7-1.9,1
	c-0.2,0.5-0.4,0.9-0.5,1.4c-0.5,1.2-1.1,0.2-1.4-0.4c-1.1,0.6-2.1,1.2-3.1,1.9c-0.1,0-0.2,0.1-0.4,0.1c0.3,0.8,0.8,1.6,1.6,2
	c0.6,0.5,0.2,1.2-0.6,1.2c-0.7,0-1.6-0.5-2.6,0.6c-0.8,1.1-0.2,2.2,0.6,2.2c0.9-0.1,1.7,0.5,1.9,1.3c0.4,1.1,0.6,1.4,1.8,1.6
	c1,0.1,1.9-0.4,2.3-1.3c0.2-0.5,0.7-1.3,1.2-1.2c0.8,0.4,0.7,1.1,0.5,1.9c1-0.5,1.8-1,2.8-1.4c-0.2-0.7-0.5-1.3-1-1.9
	C122.4,24.6,122.5,24.4,123.7,24.5z"/>
<path class="st3" d="M134.2,11c-0.5,0-0.9,0.2-1.3,0.4c0.2,1.1,0.6,2.4,0.4,2.6c-0.7,0.3-1.4,0.5-2.2,0.6c-0.8,0.2-2.8,2.2-1.8,3.5
	c0.8,0.8,1.3,1.8,1.6,2.9c0.5,0.9,1.6,1.1,2.5,0.6c0.2-0.1,0.4-0.3,0.5-0.5c1.2-1.4,2-2.9,2.4-1.9c0.2,1.3,0.2,2.6,0,3.8
	c0.2,0,0.5,0,0.7-0.1C137.3,17.6,136.1,13.8,134.2,11z"/>
<path class="st13" d="M134.2,11c-0.5,0-0.9,0.2-1.3,0.4c0.2,1.1,0.6,2.4,0.4,2.6c-0.7,0.3-1.4,0.5-2.2,0.6c-0.8,0.2-2.8,2.2-1.8,3.5
	c0.8,0.8,1.3,1.8,1.6,2.9c0.5,0.9,1.6,1.1,2.5,0.6c0.2-0.1,0.4-0.3,0.5-0.5c1.2-1.4,2-2.9,2.4-1.9c0.2,1.3,0.2,2.6,0,3.8
	c0.2,0,0.5,0,0.7-0.1C137.3,17.6,136.1,13.8,134.2,11z"/>
<path class="st3" d="M108.6,36c-0.7-0.5-0.8-1.2-0.1-1.6c1.3-0.3,2.6-0.7,3.8-1.2c1.9-0.8,1-2.3,0.1-2.6c-1-0.4-1-1.2-1-2.2
	c0.1-0.8-0.1-2.2-1.8-1.4c-1.8,0.6-1.2,2.3-1.7,2.9c-0.6,0.6-0.8,0.4-0.7-0.5c0.1-0.7-0.6-1.3-1.1-1.6c-0.5-0.2-1-0.3-1.6-0.4
	c-1.7,1.5-3.3,3.1-4.7,4.9c0.3,0.6,0.7,1.1,1.3,1.4c0.7,0.1,1.2,0.7,1.1,1.4c0,0,0,0,0,0c0,0.7-1.8,0.7-3,0.8
	c0.6,1.9,1.6,3.6,2.9,5.2c0.3-0.1,0.7-0.3,1-0.5c1.4-0.6,1.9-2.8,2.3-3.4c0.1-0.7,0.7-0.6,1.2,0.2c0.3,0.5,0.4,1.1,0.5,1.7
	c0.8-0.8,1.7-1.6,2.4-2.3C109.3,36.7,108.9,36.3,108.6,36z"/>
<path class="st13" d="M108.6,36c-0.7-0.5-0.8-1.2-0.1-1.6c1.3-0.3,2.6-0.7,3.8-1.2c1.9-0.8,1-2.3,0.1-2.6c-1-0.4-1-1.2-1-2.2
	c0.1-0.8-0.1-2.2-1.8-1.4c-1.8,0.6-1.2,2.3-1.7,2.9c-0.6,0.6-0.8,0.4-0.7-0.5c0.1-0.7-0.6-1.3-1.1-1.6c-0.5-0.2-1-0.3-1.6-0.4
	c-1.7,1.5-3.3,3.1-4.7,4.9c0.3,0.6,0.7,1.1,1.3,1.4c0.7,0.1,1.2,0.7,1.1,1.4c0,0,0,0,0,0c0,0.7-1.8,0.7-3,0.8
	c0.6,1.9,1.6,3.6,2.9,5.2c0.3-0.1,0.7-0.3,1-0.5c1.4-0.6,1.9-2.8,2.3-3.4c0.1-0.7,0.7-0.6,1.2,0.2c0.3,0.5,0.4,1.1,0.5,1.7
	c0.8-0.8,1.7-1.6,2.4-2.3C109.3,36.7,108.9,36.3,108.6,36z"/>
<path class="st3" d="M133.3,91.7c0.4,0-0.5-3.4,0.1-3.5s1,1.8,2.2,1.6c1.3-0.2,1.7-1.6,1.4-3c-0.1-1.4,0.7-0.7,1.3-1.7
	c0.7-1.1-0.7-2.4-2.3-1.4c-1.7,1-1.3-0.2-0.5-0.8c0.8-0.5,0.2-2.4-1.6-1.8c-1.3,0.5-2-0.4-2.6-0.7c-0.5,0.1-0.9,0.4-1.3,0.6
	c-0.1,0.4-0.1,0.9,0,1.3c0.1,0.6,0.5,2.2-0.5,1.4c-0.8-0.6-2-0.8-2.4,0.2c-0.2,1.1,0.4,1.2,0.2,1.8c0,0.7-1.8,0.8-1,2.2
	c0.8,1.4,1.9,0.6,2.8,0.1s1.6,0.1,1.3,0.8c-0.4,1.2-0.7,2.4-0.7,3.6c0.4,0.2,0.8,0.5,1.2,0.8C131.6,92.5,132.4,91.9,133.3,91.7z"/>
<path class="st13" d="M133.3,91.7c0.4,0-0.5-3.4,0.1-3.5s1,1.8,2.2,1.6c1.3-0.2,1.7-1.6,1.4-3c-0.1-1.4,0.7-0.7,1.3-1.7
	c0.7-1.1-0.7-2.4-2.3-1.4c-1.7,1-1.3-0.2-0.5-0.8c0.8-0.5,0.2-2.4-1.6-1.8c-1.3,0.5-2-0.4-2.6-0.7c-0.5,0.1-0.9,0.4-1.3,0.6
	c-0.1,0.4-0.1,0.9,0,1.3c0.1,0.6,0.5,2.2-0.5,1.4c-0.8-0.6-2-0.8-2.4,0.2c-0.2,1.1,0.4,1.2,0.2,1.8c0,0.7-1.8,0.8-1,2.2
	c0.8,1.4,1.9,0.6,2.8,0.1s1.6,0.1,1.3,0.8c-0.4,1.2-0.7,2.4-0.7,3.6c0.4,0.2,0.8,0.5,1.2,0.8C131.6,92.5,132.4,91.9,133.3,91.7z"/>
<path class="st3" d="M107.9,88.4c0.7-0.1,2,1.3,3.2,0.5s-0.5-1.7-0.2-2.4c0.1-0.7,0.7-2-0.1-2.6c-0.8-0.7-1.7-0.1-2.6,0.8
	c-0.8,1-0.6-0.8-0.1-1.7c0.6-1,0-1.7-1-1.8c-1.1-0.2-1.4,1.2-2,0.6c-1.2-1.1-2.9-0.6-2.4,0.8c0.5,1.3,0.8,1.8,0,2
	c-1,0.1-1.8-2.2-2.8-0.2c-1.1,1.8,0.6,2.4,0.4,3.7c-0.1,1.4,0.5,3,1.3,3c0.8,0.2,1.7-0.7,2.2-1.3c0.5-0.5,1.6-1,1.4,0.1
	c-0.1,1-0.1,2.1-0.1,3.1c1.5-0.8,3-1.4,4.6-2h0.1c-0.5-0.2-1.1-0.6-1.7-1C107,89.5,107.3,88.7,107.9,88.4z"/>
<path class="st13" d="M107.9,88.4c0.7-0.1,2,1.3,3.2,0.5s-0.5-1.7-0.2-2.4c0.1-0.7,0.7-2-0.1-2.6c-0.8-0.7-1.7-0.1-2.6,0.8
	c-0.8,1-0.6-0.8-0.1-1.7c0.6-1,0-1.7-1-1.8c-1.1-0.2-1.4,1.2-2,0.6c-1.2-1.1-2.9-0.6-2.4,0.8c0.5,1.3,0.8,1.8,0,2
	c-1,0.1-1.8-2.2-2.8-0.2c-1.1,1.8,0.6,2.4,0.4,3.7c-0.1,1.4,0.5,3,1.3,3c0.8,0.2,1.7-0.7,2.2-1.3c0.5-0.5,1.6-1,1.4,0.1
	c-0.1,1-0.1,2.1-0.1,3.1c1.5-0.8,3-1.4,4.6-2h0.1c-0.5-0.2-1.1-0.6-1.7-1C107,89.5,107.3,88.7,107.9,88.4z"/>
<path class="st3" d="M87.2,130.9c2.2-0.7,2.3,1.1,2,2.4c-0.3,1.9-0.4,3.9-0.2,5.9l3.6,0.1c-0.1-1.8-0.1-3.5,0-5.3
	c0.1-1.6,1.7-4,2.3-1.6c0.5,2.4,3,2.5,4.7,1.6c1.7-1.1,2.9-3.2,4.7-6.5c1.8-3.1-0.6-4-2-3.8s-2.8,0.4,0.4-2.3c3-2.4-1.9-3.6-4.2-4.1
	c-4,4.2-8.1,8.1-12.5,11.9c-0.5,0.5-1.1,1-1.4,1.3C84.8,131,85.8,131.4,87.2,130.9z"/>
<path class="st13" d="M87.2,130.9c2.2-0.7,2.3,1.1,2,2.4c-0.3,1.9-0.4,3.9-0.2,5.9l3.6,0.1c-0.1-1.8-0.1-3.5,0-5.3
	c0.1-1.6,1.7-4,2.3-1.6c0.5,2.4,3,2.5,4.7,1.6c1.7-1.1,2.9-3.2,4.7-6.5c1.8-3.1-0.6-4-2-3.8s-2.8,0.4,0.4-2.3c3-2.4-1.9-3.6-4.2-4.1
	c-4,4.2-8.1,8.1-12.5,11.9c-0.5,0.5-1.1,1-1.4,1.3C84.8,131,85.8,131.4,87.2,130.9z"/>
<path class="st3" d="M83.5,154.4c1.8-0.6,2.9,3.2,5.5,1c2.6-2.2,0.7-4.1,0.6-6c0-1.8,2-2.5,1.4-4.9c-1-3.5-4.2-0.1-6.2,1.8
	s-2.2,0.4-0.1-2.8s-1.3-4.2-3.4-3.4c-1.6,0.6-3.4,0.2-4.6-1c-0.7,1.3-1.3,2.4-1.9,3.6c-1.8,3.7-0.6,3.8,0.7,3.8
	c1.2,0,4.1,5.4,4.4,6.5c0.2,0.4,1.2,1.7,2.4,3.5C82.2,155.7,82.6,154.8,83.5,154.4z"/>
<path class="st13" d="M83.5,154.4c1.8-0.6,2.9,3.2,5.5,1c2.6-2.2,0.7-4.1,0.6-6c0-1.8,2-2.5,1.4-4.9c-1-3.5-4.2-0.1-6.2,1.8
	s-2.2,0.4-0.1-2.8s-1.3-4.2-3.4-3.4c-1.6,0.6-3.4,0.2-4.6-1c-0.7,1.3-1.3,2.4-1.9,3.6c-1.8,3.7-0.6,3.8,0.7,3.8
	c1.2,0,4.1,5.4,4.4,6.5c0.2,0.4,1.2,1.7,2.4,3.5C82.2,155.7,82.6,154.8,83.5,154.4z"/>
<path class="st3" d="M110.9,129.8c-0.2-1.8,0.8-3.6,3.4-2.6c1.6,0.8,3.6,0.6,4.9-0.7c1.1-0.8,5.4-1.8,4.7,1.9
	c-0.4,2.9-1.8,3-2.2,4.4s0.7,0.5,1.4-0.6s2.2-5.6,5.3-2.2c0.7,0.7,0.5,2.2-0.5,3.7c-0.6,1.1-0.5,2.5,0.4,3.5
	c0.6,0.7,1.9,4.9-2.8,5.2c-1.3,0-2.5-0.1-3.7-0.4c-0.1,1.8-1.9,4.3-3.6,7c-0.1,0.2-1.2,0.2-1.7-0.1s-1.8-1.1-0.7-2.2
	s2.6-3.5,2.4-4.6c-0.4-1-1.1-1.9-2.2-0.5c-1.2,1.4-3,4.3-4.9,4.3c-1.9,0.1-3.8-1.6-3-3.4c1-1.8,1.2-2.8-0.1-4.3
	c-1.2-1.6-0.7-3.6,2-4.9c1.2-0.3,2.4,0,3.4,0.8c1.1,0.8,1.6,0,0.1-0.8C112.1,132.8,111,131.4,110.9,129.8z"/>
<path class="st13" d="M110.9,129.8c-0.2-1.8,0.8-3.6,3.4-2.6c1.6,0.8,3.6,0.6,4.9-0.7c1.1-0.8,5.4-1.8,4.7,1.9
	c-0.4,2.9-1.8,3-2.2,4.4s0.7,0.5,1.4-0.6s2.2-5.6,5.3-2.2c0.7,0.7,0.5,2.2-0.5,3.7c-0.6,1.1-0.5,2.5,0.4,3.5
	c0.6,0.7,1.9,4.9-2.8,5.2c-1.3,0-2.5-0.1-3.7-0.4c-0.1,1.8-1.9,4.3-3.6,7c-0.1,0.2-1.2,0.2-1.7-0.1s-1.8-1.1-0.7-2.2
	s2.6-3.5,2.4-4.6c-0.4-1-1.1-1.9-2.2-0.5c-1.2,1.4-3,4.3-4.9,4.3c-1.9,0.1-3.8-1.6-3-3.4c1-1.8,1.2-2.8-0.1-4.3
	c-1.2-1.6-0.7-3.6,2-4.9c1.2-0.3,2.4,0,3.4,0.8c1.1,0.8,1.6,0,0.1-0.8C112.1,132.8,111,131.4,110.9,129.8z"/>
<path class="st3" d="M134.5,117.6c-1.7-0.4-3.8-0.6-4.1,2.9c-0.1,1.2,1.2,2.3,2.4,2.8c1.2,0.4,1,1.2-0.4,0.8
	c-1.2-0.5-2.3-0.8-3.2,1.9c-0.8,2.6,0.8,3,1.6,3.2c0.8,0.1,1.6,0.4,1.3,1.4c-0.1,1.2-0.7,4.3,1.4,4.7c2.2,0.2,4-2.3,4.7-3.6
	c0.6-1.3,1.4-2.6,1.6-1.1c0.2,1.4-0.1,2.2-0.8,3.8s-0.7,2.4,0.4,2.3c1.1,0,3,0,3.5-1.2c0.8-1.8,1.3-3.7,1.6-5.6
	c0.1-1.1,1.1-1.2,1.7-1.2c0.2-1.9,0.6-3.7,0.8-5.3c-3.7,0.5-6.8-4-7.9-7.8C137.9,117.1,136,118.1,134.5,117.6z"/>
<path class="st13" d="M134.5,117.6c-1.7-0.4-3.8-0.6-4.1,2.9c-0.1,1.2,1.2,2.3,2.4,2.8c1.2,0.4,1,1.2-0.4,0.8
	c-1.2-0.5-2.3-0.8-3.2,1.9c-0.8,2.6,0.8,3,1.6,3.2c0.8,0.1,1.6,0.4,1.3,1.4c-0.1,1.2-0.7,4.3,1.4,4.7c2.2,0.2,4-2.3,4.7-3.6
	c0.6-1.3,1.4-2.6,1.6-1.1c0.2,1.4-0.1,2.2-0.8,3.8s-0.7,2.4,0.4,2.3c1.1,0,3,0,3.5-1.2c0.8-1.8,1.3-3.7,1.6-5.6
	c0.1-1.1,1.1-1.2,1.7-1.2c0.2-1.9,0.6-3.7,0.8-5.3c-3.7,0.5-6.8-4-7.9-7.8C137.9,117.1,136,118.1,134.5,117.6z"/>
<path class="st3" d="M117.1,117c-0.7,1.2-2.5,4.3-1.7,5.4s1.8-1.1,2.6-0.4c0.7,0.8,2.4,1.6,2.4,1.1c0.1-1,0.2-2.1,0.4-3.1
	c0.4-1.6,1-2.4,1.6-1.2c0.7,1.5,2.4,2.3,4,1.7c2.3-0.5,2-3,1.6-4.7c-0.5-1.8,1.2-2.6,2-3.1s3-2.2,1.4-3.6s-3,0.7-4.3,1
	c-1.4,0.2-0.8-1,1.9-3.2c2.5-1.9,0.5-3.7-1.1-4.4c-4,4.1-11,10.6-12.7,12.1c-0.5,0.6-1,1.2-1.4,1.9C117.5,114.5,117.7,116,117.1,117
	z"/>
<path class="st13" d="M117.1,117c-0.7,1.2-2.5,4.3-1.7,5.4s1.8-1.1,2.6-0.4c0.7,0.8,2.4,1.6,2.4,1.1c0.1-1,0.2-2.1,0.4-3.1
	c0.4-1.6,1-2.4,1.6-1.2c0.7,1.5,2.4,2.3,4,1.7c2.3-0.5,2-3,1.6-4.7c-0.5-1.8,1.2-2.6,2-3.1s3-2.2,1.4-3.6s-3,0.7-4.3,1
	c-1.4,0.2-0.8-1,1.9-3.2c2.5-1.9,0.5-3.7-1.1-4.4c-4,4.1-11,10.6-12.7,12.1c-0.5,0.6-1,1.2-1.4,1.9C117.5,114.5,117.7,116,117.1,117
	z"/>
<path class="st3" d="M140.3,154.4c1.2,1.2,4.1,2.8,6.1,0.8c2-1.8-0.5-3.8-0.7-5.4c-0.4-1.4,1.4-2.4,0.5-4.8c-1.7-4.2-4,0.7-5.4,2.2
	s-1.2-1,0.1-2.2c0.6-0.7,3.5-2.4,1.8-4.4c-1.7-1.9-4.1-0.8-5.3,0s-2.2,1.9-4,1.3c-1.9-0.5-3.5-0.7-4.6,1.9c-1.2,2.8,1,1.9,2.8,4
	c1.8,1.9,0.6,2-0.8,1.6c-1.3-0.5-1.9-2.3-4.1-1.9c-2,0.2-2,3.5-1.4,4.3c0.7,0.8,1.9,1.2,1.1,2.9c-1,1.6,0.5,3.5,2.2,4.2
	c1.7,0.7,4.2-2.3,5.2-3.5c0.8-1.2,1.8-0.8,1.6,0c-0.3,1.5-0.5,3.1-0.6,4.7c1.4-0.5,2.8-0.8,4.2-1.2c0-1.4-0.2-2.7-0.6-4.1
	C137.6,152.9,139.1,153.4,140.3,154.4z"/>
<path class="st13" d="M140.3,154.4c1.2,1.2,4.1,2.8,6.1,0.8c2-1.8-0.5-3.8-0.7-5.4c-0.4-1.4,1.4-2.4,0.5-4.8c-1.7-4.2-4,0.7-5.4,2.2
	s-1.2-1,0.1-2.2c0.6-0.7,3.5-2.4,1.8-4.4c-1.7-1.9-4.1-0.8-5.3,0s-2.2,1.9-4,1.3c-1.9-0.5-3.5-0.7-4.6,1.9c-1.2,2.8,1,1.9,2.8,4
	c1.8,1.9,0.6,2-0.8,1.6c-1.3-0.5-1.9-2.3-4.1-1.9c-2,0.2-2,3.5-1.4,4.3c0.7,0.8,1.9,1.2,1.1,2.9c-1,1.6,0.5,3.5,2.2,4.2
	c1.7,0.7,4.2-2.3,5.2-3.5c0.8-1.2,1.8-0.8,1.6,0c-0.3,1.5-0.5,3.1-0.6,4.7c1.4-0.5,2.8-0.8,4.2-1.2c0-1.4-0.2-2.7-0.6-4.1
	C137.6,152.9,139.1,153.4,140.3,154.4z"/>
<path class="st3" d="M103.9,150.8c2.1,0.1,4.1-0.5,5.8-1.8c1.7-1.2,6.1-0.5,4.3,2.6c-1.8,3-1.2,3.7-0.1,2.5c1-1.1,2.3-3.1,4.2-2.5
	c1.9,0.5,1.2,1.9,0,3.7c-0.9,0.9-0.9,2.4,0.1,3.2c0.1,0.1,0.2,0.2,0.3,0.2c1,0.6,2.6,4.2-2.5,5.6c-2.3,0.7-2.6-0.4-4.1-0.8
	c-1.6-0.6-1.6,0.7-0.6,2.3c1.1,1.6,2.2,3.1,1,3.1s-2.2,0.1-2.4,1.1c-0.1,0.8-2.2-0.1-2.5-2.2c-0.5-1.9-1-5.8-2-3.8
	c-1,1.9-1.9,4.9-4.6,3.5s-0.8-3.2-2.2-4.6c-1.3-1.2-2.5-3-1.2-5.3c1.3-2.4,2.4-0.4,3.6-0.4s1.4-1.2,0.4-2S98.9,150.6,103.9,150.8z"
	/>
<path class="st13" d="M103.9,150.8c2.1,0.1,4.1-0.5,5.8-1.8c1.7-1.2,6.1-0.5,4.3,2.6c-1.8,3-1.2,3.7-0.1,2.5c1-1.1,2.3-3.1,4.2-2.5
	c1.9,0.5,1.2,1.9,0,3.7c-0.9,0.9-0.9,2.4,0.1,3.2c0.1,0.1,0.2,0.2,0.3,0.2c1,0.6,2.6,4.2-2.5,5.6c-2.3,0.7-2.6-0.4-4.1-0.8
	c-1.6-0.6-1.6,0.7-0.6,2.3c1.1,1.6,2.2,3.1,1,3.1s-2.2,0.1-2.4,1.1c-0.1,0.8-2.2-0.1-2.5-2.2c-0.5-1.9-1-5.8-2-3.8
	c-1,1.9-1.9,4.9-4.6,3.5s-0.8-3.2-2.2-4.6c-1.3-1.2-2.5-3-1.2-5.3c1.3-2.4,2.4-0.4,3.6-0.4s1.4-1.2,0.4-2S98.9,150.6,103.9,150.8z"
	/>
<path class="st7" d="M122.4,85.7c-0.6,1.4-1.3,3.4-1.7,4.2c-0.4,1-2,0.6-1.9,0c0.2-1.4-1.8-0.5-1.6-1.7c0.2-0.8-0.1-2.4,0.8-2.4
	C119.2,85.8,121.1,85.7,122.4,85.7z"/>
<path class="st8" d="M122.4,85.7c-0.6,1.4-1.3,3.4-1.7,4.2c-0.4,1-2,0.6-1.9,0c0.2-1.4-1.8-0.5-1.6-1.7c0.2-0.8-0.1-2.4,0.8-2.4
	C119.2,85.8,121.1,85.7,122.4,85.7z"/>
<path class="st7" d="M119.3,18.2c0.1-0.5,0.3-1,0.6-1.4c-0.7,0.5-1.4,0.7-2,1.1C118.2,18.5,118.8,19.4,119.3,18.2z"/>
<path class="st7" d="M136.1,19.1c-0.2-1-1.2,0.6-2.3,1.9c-1.2,1.4-2.9,0.6-3-0.1c-0.4-1-0.9-2-1.6-2.9c-1.1-1.3,1-3.1,1.8-3.4
	c0.7-0.2,1.5-0.4,2.2-0.7c0.2-0.2-0.1-1.6-0.4-2.6c-3.8,1.2-7.5,2.7-11,4.6c1.1,0.4,0.7,2.5,0.6,2.8c-0.1,0.4-0.5,2.3,0.4,1.1
	c0.5-0.8,1.2-1.4,2-1.8c0.8-0.2,1.8-0.2,1.8,1.1c0.1,1.3-0.5,1.2-0.7,2c-0.1,0.8,0,0.8,0.5,1s0.7,0.7,0.4,1.7c-0.2,0.8-1.7,1-3,0.8
	c-1.3-0.2-1.4,0-1,0.4c0.5,0.5,0.8,1.2,1,1.9c3.9-1.9,8.1-3.2,12.4-3.8C136.3,21.6,136.3,20.4,136.1,19.1z"/>
<path class="st7" d="M106.7,37.4c-0.5-0.8-1.1-1-1.3-0.2c-0.2,0.6-0.7,2.9-2.2,3.5c-0.5,0.1-0.8,0.2-1.2,0.4c0.6,0.5,1.1,1,1.8,1.4
	c1-1.1,2.1-2.2,3.2-3.2C107,38.6,106.9,38,106.7,37.4z"/>
<path class="st7" d="M120.6,26.4c-0.6-0.1-1,0.6-1.3,1.1c-0.4,0.9-1.3,1.5-2.3,1.3c-1.2-0.1-1.4-0.5-1.8-1.6c-0.2-0.9-1-1.4-1.9-1.3
	c-0.8,0-1.4-1.1-0.5-2.2c0.8-1.1,1.8-0.6,2.6-0.6c0.7,0,1.1-0.8,0.5-1.2c-0.7-0.5-1.2-1.2-1.4-2c-3.5,2.2-6.8,4.7-9.8,7.4
	c0.5,0.1,1,0.2,1.6,0.4c0.7,0.2,1.1,0.8,1.1,1.6c0,0.8,0.1,1.1,0.7,0.5c0.5-0.5-0.1-2.3,1.7-2.9c1.7-0.7,1.9,0.6,1.8,1.4
	c0,1,0,1.7,1,2.2c0.8,0.4,1.8,1.8-0.1,2.5c-1.2,0.5-2.5,1-3.8,1.3c-0.8,0.2-0.6,1.1,0.1,1.6c0.4,0.2,0.6,0.6,0.8,0.7
	c2.4-2.1,4.9-4.1,7.4-5.9c1.3-1,2.7-1.8,4.2-2.6C121.2,27.5,121.3,26.6,120.6,26.4z"/>
<path class="st7" d="M102.4,35c0.1-0.8-0.7-1.2-1.1-1.4c-0.5,0-1.1-0.7-1.3-1.3c-0.5,0.6-0.9,1.2-1.2,1.9c0.2,0.6,0.4,1.2,0.6,1.7
	C100.4,35.9,102.2,35.9,102.4,35z"/>
<path class="st7" d="M141.7,78.6c-3.4-0.1-6.9,0.4-10.1,1.7c0.6,0.4,1.2,1.2,2.4,0.7c1.8-0.6,2.4,1.3,1.6,1.8
	c-0.7,0.6-1.1,1.8,0.5,0.8s3,0.5,2.4,1.4c-0.7,1.1-1.6,0.2-1.3,1.7c0.1,1.4-0.1,2.8-1.4,3s-1.6-1.7-2.2-1.6s0.1,3.5-0.1,3.5
	c-0.9,0.2-1.7,0.7-2.3,1.4c0.1,0,0.1,0.1,0.1,0.1c0,0,0,0,0,0c5,3.6,6.4,1.6,7.2-0.1c1.2-3.2,2.1-6.4,2.9-9.7
	C141.6,81.8,141.7,80.2,141.7,78.6z"/>
<path class="st7" d="M130.6,88.7c0.2-0.6-0.5-1.2-1.3-0.8c-0.8,0.6-1.9,1.3-2.8,0c-0.8-1.4,1-1.6,1-2.2c0.1-0.7-0.5-0.8-0.2-1.8
	c0.4-1.1,1.6-0.8,2.4-0.2c1,0.6,0.6-1,0.5-1.6c-0.1-0.4-0.1-0.8,0-1.2c-1.1,0.4-2.1,0.9-3,1.6c-4.8,2.9-4.9,5.4-3.8,6.4
	c1,0.8,3.1,1.2,6.6,3.5C129.9,91.1,130.1,89.8,130.6,88.7z"/>
<path class="st7" d="M115.3,85.9c-2.2-1.4-4.1-3.3-5.3-5.6c0,0,0.1-0.5-0.4-0.5c-2.1-0.1-4.2-0.6-6.1-1.3c-3.5-1.2-4-0.5-4.3,1
	c-0.7,2.9-1,5.8-1,8.8c0,4.4,1.9,7.2,3.1,6.8c0.6-0.2,2-1,3.7-1.8c0-1,0.1-2.4,0.1-3.2c0.2-1-1-0.6-1.4,0c-0.4,0.5-1.3,1.4-2.2,1.3
	s-1.4-1.7-1.2-3c0.1-1.4-1.6-1.9-0.5-3.8c1.1-1.8,1.9,0.5,2.8,0.4c1-0.2,0.5-0.7,0-2.2s1.3-1.8,2.4-0.8c0.7,0.7,1.1-0.8,2-0.6
	c1.1,0.2,1.7,1,1.1,2c-0.5,0.7-0.8,2.5,0,1.6c1-1,1.8-1.6,2.6-0.8c0.8,0.6,0.4,2,0.1,2.6c-0.2,0.7,1.4,1.6,0.2,2.4s-2.5-0.6-3.2-0.4
	c-0.6,0.1-0.7,1,0.1,1.6c0.5,0.4,1.1,0.7,1.7,1c1.8-0.6,3.5-1.4,5-2.4l1.2,0.1C116,87.2,115.8,86.3,115.3,85.9z"/>
<path class="st7" d="M108.5,106.4c-0.8-1.7-1.1-0.4-3.1,2.8c-2.1,2.9-4.4,5.7-7,8.3c2.3,0.4,7.2,1.6,4.2,4.1
	c-3.1,2.6-1.8,2.4-0.4,2.3c1.4-0.2,3.8,0.6,2,3.8c-1.8,3.1-3,5.4-4.7,6.4c-1.7,1.1-4.2,1-4.7-1.4s-2.2,0-2.3,1.6
	c-0.1,1.8-0.1,3.5,0,5.3l-3.6-0.2c0-1.9,0-3.8,0.2-5.8c0.2-1.4,0.1-3.1-2-2.4c-0.9,0.3-1.9,0.2-2.8-0.2c-4.2,3.6-6.4,6.2-7.7,8.5
	c1.2,1.2,3,1.5,4.6,1c2-0.8,5.4,0.1,3.4,3.4c-2,3.1-1.9,4.7,0.1,2.8s5.3-5.4,6.4-1.8c0.6,2.3-1.6,3-1.4,4.9s1.9,3.7-0.7,6
	s-3.7-1.6-5.4-1.1c-0.9,0.3-1.4,1.2-1.2,2.2c2.3,3.4,5.6,8,6.8,10c1.9,3.1,1.9,6.8,2.6,6.2s2.5-2.3,3.1-2.8c0.7-0.4,1-1.2,0.8-2
	c-0.9-3.4-1.2-6.8-1.1-10.3c0.4-4.3,2.4-9.1,3.8-11.9c1.4-2.6,5.8-11.2,6.8-13.3c1.1-2.3,3-4.9,3.4-7c0.5-2,2.3-6.8,3-9.1
	C111.1,113,110,109.6,108.5,106.4z"/>
<path class="st7" d="M149,147.8c-2.4-4-2.9-5.6-3.2-9.7c-0.1-3,0-6.1,0.5-9.1c-0.8-0.1-1.7,0-1.8,1.2c-0.2,1.9-0.6,3.9-1.4,5.6
	c-0.6,1.2-2.4,1.2-3.6,1.2c-1.1,0.1-1.1-0.6-0.4-2.3s1.1-2.4,0.8-4c-0.2-1.4-0.8-0.1-1.6,1.2c-0.7,1.2-2.5,3.8-4.7,3.6
	c-2.2-0.4-1.6-3.6-1.4-4.7c0.2-1.1-0.4-1.3-1.2-1.4c-0.8-0.2-2.6-0.6-1.6-3.4c0.8-2.6,1.9-2.4,3.1-1.9c1.3,0.5,1.6-0.4,0.4-0.8
	s-2.5-1.6-2.4-2.8c0.2-3.5,2.4-3.1,4.1-2.8c1.7,0.1,3.4-0.6,4.6-1.9v-0.2c-2.5-9.5,2.3-21.1,3.5-24.4c2.4-5.2,5.2-10.3,8.2-15.2
	c-1-0.5-3.4-1.7-4.8-2.4c-1.3-0.6-2-1.1-2.4-0.5c-0.4,0.5-0.8,0.8-1.6,1.7c-1.2,1.9-0.1,1.6,0.1,1.6c0.5,0,2,2,2.3,2.6
	c0.4,0.4,0,0.7-0.6,2.3c-0.8,1.9-1.4,6.5-2.3,9.1c-2.2,8.2-5.8,7.3-7.3,6.4c-1.6-1.1-2,0.5-3.6,2.8c-0.5,0.5-1.4,1.6-2.6,2.8
	c1.6,0.7,3.6,2.6,1.2,4.6c-3,2.3-3.5,3.5-2,3.1c1.4-0.2,2.8-2.4,4.3-0.8c1.6,1.4-0.5,3.1-1.4,3.6c-0.8,0.5-2.5,1.3-2,3.1
	c0.5,1.8,0.8,4.2-1.6,4.7c-2.3,0.6-3.2-0.4-3.8-1.6c-0.7-1.2-1.3-0.4-1.6,1.1c-0.3,1-0.4,2.1-0.5,3.1c0,0.6-1.7-0.2-2.4-1
	c-0.7-0.8-1.7,1.2-2.5,0.2c-0.8-1.1,1-4.2,1.6-5.3s0.4-2.6-3.4-0.8c-1.2,2-2.2,4.9-3.6,9.5c-2.3,6.2-5.2,12.1-8.6,17.8
	c-5,8.2-6,15.7-5.2,20.5c0.7,4.7,1.3,4.3,2.4,4.3c1,0,3.5,3.1,5.2,5.2c1.7,1.9,2.4,1.1,3.2,0.4c4.9-3.6,10.2-6.6,15.7-9.1
	c3.8-1.8,7.8-3.4,11.9-4.7c0.1-1.5,0.3-3.1,0.6-4.6c0.1-1-0.7-1.2-1.7,0c-0.8,1.2-3.4,4.2-5,3.4c-1.7-0.7-3.1-2.5-2.2-4.2
	c0.8-1.6-0.4-1.9-1.1-2.8s-0.7-4.2,1.4-4.4c2-0.2,2.6,1.6,4.1,2c1.4,0.4,2.6,0.4,0.8-1.6c-1.8-2-4-1.2-2.9-4
	c1.2-2.6,2.8-2.5,4.7-1.9c1.8,0.5,2.8-0.5,4-1.3s3.6-1.9,5.3,0s-1.2,3.7-1.9,4.3c-1.2,1.3-1.4,3.6,0,2.3s3.7-6.5,5.4-2.3
	c0.8,2.4-0.8,3.5-0.6,4.9c0.4,1.6,2.9,3.5,0.8,5.4s-5,0.4-6.2-0.8c-1.2-1.1-2.5-1.7-1.9,0.4c0.4,1.3,0.6,2.7,0.6,4.1
	c4.1-1.1,7.7-1.8,9.5-1.7c2.6,0.2,4.7,1.1,4.6-1.4C152.8,153.5,151.4,151.8,149,147.8z"/>
<path class="st14" d="M116,164.4c-2.3,0.7-2.6-0.4-4.2-0.8c-1.4-0.5-1.6,0.7-0.5,2.3s2.2,3.1,0.8,3.1c-1.2,0-2.2,0.1-2.3,1.1
	s-2.2-0.1-2.6-2.2c-0.5-1.9-0.8-5.6-1.9-3.8c-1.1,1.9-1.9,5-4.6,3.6s-0.8-3.2-2.2-4.6s-2.6-3-1.2-5.4c1.2-2.3,2.4-0.4,3.6-0.4
	s1.4-1.1,0.4-1.9c-1.2-0.8-2.5-4.9,2.6-4.6c2.1,0,4.1-0.6,5.8-1.8c1.7-1.2,6-0.6,4.2,2.5s-1.2,3.7-0.1,2.6c1.1-1.2,2.4-3.1,4.3-2.6
	s1.1,2-0.1,3.7s-0.5,2.8,0.5,3.5C119.4,159.5,121.2,163,116,164.4z"/>
<path class="st14" d="M125.4,142.4c-1.2,0-2.5-0.1-3.7-0.4c-0.1,1.8-1.8,4.3-3.6,7c-0.1,0.2-1.2,0.2-1.7-0.1
	c-0.4-0.4-1.8-1.1-0.7-2.2s2.8-3.5,2.4-4.6c-0.2-1-1.1-1.9-2.2-0.5S113,146,111,146c-1.9,0.1-3.8-1.6-3-3.4c1-1.8,1.2-2.8,0-4.3
	c-1.3-1.6-0.8-3.6,1.9-4.9c1.2-0.3,2.4,0,3.4,0.8c1.1,0.8,1.6,0,0.1-0.8c-1.3-0.8-2.5-1.8-2.6-3.7c-0.1-1.8,0.8-3.6,3.4-2.6
	c1.6,0.8,3.6,0.6,4.9-0.6c1.1-0.8,5.4-1.9,4.8,1.9c-0.5,2.8-1.8,2.9-2.2,4.3c-0.5,1.6,0.7,0.5,1.3-0.5c0.7-1.2,2.3-5.8,5.3-2.3
	c0.7,0.8,0.5,2.3-0.5,3.8c-0.8,1.6-0.1,2.5,0.5,3.4C128.9,138.1,130.1,142.2,125.4,142.4z"/>
<polygon class="st0" points="202.3,68.4 205.2,66.4 211.3,75.5 215,73 208.7,64 211.4,62 218.2,71.4 221.9,68.9 211.8,54.8 
	195.2,66.6 204.4,79.4 208.1,76.9 "/>
<polygon class="st0" points="214.2,100.2 219.6,97.7 216,89.6 228.6,84.4 226.3,79.2 208.4,87 "/>
<polygon class="st0" points="217.4,108.7 218,113.6 230,112.3 230.5,117.5 235.8,117.1 234.5,99.6 229.1,100.1 229.4,107.3 "/>
<polygon class="st0" points="218,125.8 218.2,131.6 235.8,131.6 235.7,125.6 "/>
<path class="st0" d="M226.4,140c-3.1-0.6-6.4,0-9,1.8c-2.1,1.5-3.5,3.8-3.8,6.4c-0.3,2.3-0.1,4.5,0.6,6.7l4.7-1.6
	c-0.5-1.4-0.6-2.9-0.1-4.3c1-3.2,3.5-4.7,6.7-4.2c3.4,0.6,5.2,3.6,4.6,7.2c-0.3,1.6-1.2,3-2.6,3.8l2.9,3.4c2.3-1.4,3.9-3.6,4.6-6.2
	c0.6-3.4-0.2-5.6-1.8-8.4C231.6,142.2,229.2,140.5,226.4,140z"/>
<path class="st0" d="M223.2,164.6c-2.5-0.6-5.9,2.2-7.4,3.6c-1,1-4.2,4.2-5.8,3.7c-1.3-0.5-0.8-2.5-0.4-3.8c0.5-1.9,1.6-3.6,3.2-4.7
	l-3-1.2c-1.7,1.3-2.9,3.1-3.6,5c-0.8,2-1.1,4.2-0.8,6.4c0.4,2.2,1.2,3.6,3.6,3.4c1.8-0.1,6.5-3.2,9.2-5.8c1.3-1.2,2.5-1.4,3.1-1.1
	c1,0.5,0.8,2.3,0.6,3.2c-0.5,1.4-1.2,3.6-2.3,4.4l4,2.6c1.6-1.8,2.6-4,3-6.4C227.8,168.5,224.8,165,223.2,164.6z"/>
<path class="st0" d="M201,47.6c-0.4-2.7-1.5-5.2-3.4-7.2c-2.2-1.9-5.3-2.7-8.2-2.2c-3,0.4-5.7,2.1-7.4,4.6c-1.8,2.5-2.5,5.7-2,8.8
	c0.6,2.8,1.8,4.3,4.3,6.1c1.9,1.2,4.1,2,6.4,2.3l0.5-4.9c-1.5,0-3-0.6-4.1-1.7c-2.3-1.9-2.8-5.3-1.1-7.8c2-2.8,5.5-3.2,8.6-1.2
	c1.2,0.8,1.7,2,1.9,4.1L201,47.6z"/>
<path class="st0" d="M20.8,149.3c0.1-1.4,0.1-3.8,1.4-4.1c1.4-0.4,2.4,1.1,2.6,2.4c0.5,2,1,3.6,0.2,5.4l3.7-0.4c0.5-2,0.5-4.1,0-6.1
	c-0.4-2.1-1.4-4-3-5.4c-1.6-1.4-2.8-1.8-5.2-1.3c-1.4,0.2-4.1,2.9-4.2,8c0,1-0.2,2.9-1.1,3c-1.1,0-1.9-1.3-2.2-2.4
	c-0.3-2-0.1-4,0.6-5.9H10c-0.7,2.5-0.8,5.1-0.4,7.7c1.1,5,4.2,6.7,6.6,6.4C19,156.2,20.4,153.5,20.8,149.3z"/>
<polygon class="st0" points="12.8,127.8 26.9,127.7 26.8,123.4 12.8,123.5 12.8,117.6 8.3,117.6 8.5,134.3 13,134.2 "/>
<polygon class="st0" points="38,84.2 27.2,78 27.4,78 41.5,77.8 44.9,72.5 27.5,62.4 24.7,66.5 36.7,74 20.4,74.4 18.1,78.8 
	35.4,88.8 "/>
<path class="st0" d="M20.6,94.4c3.1,0,5.6,2.4,5.6,5.5c0,3.1-2.4,5.6-5.5,5.6c0,0-0.1,0-0.1,0c-3.1,0-5.6-2.4-5.6-5.5
	s2.4-5.6,5.5-5.6C20.6,94.4,20.6,94.4,20.6,94.4z M20.6,110.8c6,0,10.8-4.8,10.8-10.8s-4.8-10.8-10.8-10.8S9.8,94,9.8,100
	C9.9,105.9,14.7,110.7,20.6,110.8z"/>
<path class="st0" d="M27.6,176.4c-3.1,0-5.6-2.6-5.5-5.6c0-3.1,2.6-5.6,5.6-5.5s5.6,2.6,5.5,5.6c0,0,0,0,0,0
	C33.1,173.9,30.7,176.4,27.6,176.4z M38.4,170.9c0-6-4.8-10.8-10.8-10.8s-10.8,4.8-10.8,10.8s4.8,10.8,10.8,10.8
	C33.5,181.6,38.3,176.8,38.4,170.9L38.4,170.9z"/>
<path class="st0" d="M47.9,196l-0.5-0.5c-1.2-1.4-5.2-5.6-3.5-7.2c1.6-1.4,5.3,3.5,6.4,4.8l0.5,0.5L47.9,196z M41.2,202
	c-1.4-1.7-5.8-5-3.8-6.7c1.7-1.7,6,3.5,6.5,4.2L41.2,202z M40.6,183.1c-1.9,1.9-2.3,4.9-1,7.3c-1.7-0.8-5-1.2-6.6,0.2
	c-4,3.4,0.8,8.2,4.7,12l5.4,5.4l14.3-11.9l-5.8-6.7C49.4,187,43.8,180.2,40.6,183.1L40.6,183.1z"/>
</svg>
