<?xml version="1.0" encoding="utf-8"?>
<!-- Generator: Adobe Illustrator 24.1.1, SVG Export Plug-In . SVG Version: 6.00 Build 0)  -->
<svg version="1.1"
	 id="Layer_1" xmlns:cc="http://creativecommons.org/ns#" xmlns:dc="http://purl.org/dc/elements/1.1/" xmlns:rdf="http://www.w3.org/1999/02/22-rdf-syntax-ns#"
	 xmlns="http://www.w3.org/2000/svg" xmlns:xlink="http://www.w3.org/1999/xlink" x="0px" y="0px" viewBox="0 0 87.5 87.5"
	 style="enable-background:new 0 0 87.5 87.5;" xml:space="preserve">
<style type="text/css">
	.st0{fill:#FFFFFF;}
	.st1{fill:#061922;}
	.st2{fill:#C8102E;}
	.st3{fill:#1D428A;}
</style>
<circle class="st0" cx="43.8" cy="43.7" r="41.9"/>
<path class="st0" d="M0,43.7C0,19.6,19.6,0,43.7,0s43.7,19.6,43.7,43.7S67.9,87.5,43.7,87.5l0,0C19.6,87.5,0,67.9,0,43.7
	C0,43.7,0,43.7,0,43.7"/>
<path class="st1" d="M43.7,0C19.6,0,0,19.6,0,43.7s19.6,43.7,43.7,43.7s43.7-19.6,43.7-43.7c0,0,0,0,0,0C87.5,19.6,67.9,0,43.7,0
	 M75.4,19.5c5,6.4,7.9,14.2,8.2,22.4H67.1C67.5,33.7,70.4,25.9,75.4,19.5 M12.2,19.5c5,6.4,7.9,14.2,8.2,22.4H3.9
	C4.3,33.7,7.2,25.9,12.2,19.5 M12.2,68c-5-6.4-7.9-14.2-8.2-22.4h16.5C20,53.8,17.1,61.6,12.2,68 M45.7,83.6V72.2h-3.8v11.4
	c-10.3-0.5-20.1-5-27.1-12.6c5.8-7.2,9.2-16.1,9.6-25.4v-3.8c-0.4-9.3-3.7-18.2-9.6-25.4C21.7,8.9,31.5,4.4,41.8,3.9v11.3h3.8V3.9
	c10.3,0.5,20.1,5,27.1,12.6c-5.8,7.2-9.2,16.1-9.6,25.4v3.8c0.4,9.3,3.7,18.2,9.6,25.4C65.7,78.6,56,83.1,45.7,83.6 M75.4,68
	c-5-6.4-7.9-14.2-8.2-22.4h16.5C83.2,53.8,80.3,61.6,75.4,68"/>
<polygon class="st2" points="34,25.4 34,61.9 53.5,61.9 53.5,56.9 39.2,56.9 39.2,25.4 "/>
<path class="st3" d="M60.1,37.6v-15c0-2.3-0.9-3.2-3.2-3.2H30.4c-2.2,0-3.1,0.9-3.1,3.2v42.3c0,2.3,0.9,3.2,3.1,3.2H57
	c2.2,0,3.2-0.9,3.2-3.2V49.8h-5.3v13.6H32.6V24h22.3v13.6L60.1,37.6L60.1,37.6z"/>
<path class="st2" d="M53.5,55.5v-30H40.8l-0.1,30h5.1l0.1-9.4h2.6l0,9.4H53.5z M48.4,41.1h-2.6V30.4h2.6V41.1z"/>
</svg>
