<?xml version="1.0" encoding="utf-8"?>
<!-- Generator: Adobe Illustrator 24.1.1, SVG Export Plug-In . SVG Version: 6.00 Build 0)  -->
<svg version="1.1"
	 id="Layer_1" xmlns:cc="http://creativecommons.org/ns#" xmlns:dc="http://purl.org/dc/elements/1.1/" xmlns:rdf="http://www.w3.org/1999/02/22-rdf-syntax-ns#"
	 xmlns="http://www.w3.org/2000/svg" xmlns:xlink="http://www.w3.org/1999/xlink" x="0px" y="0px" viewBox="0 0 152 143.1"
	 style="enable-background:new 0 0 152 143.1;" xml:space="preserve">
<style type="text/css">
	.st0{fill:#707271;}
	.st1{fill:#12173F;}
	.st2{fill:#5D76A9;}
	.st3{fill:#FFBB22;}
</style>
<path class="st0" d="M140.8,32.8c1.7-3.2,2.7-6.7,2.7-10.3c-0.2-7.5-4-14.4-10.2-18.5c-8.3-5.6-20.7-6.4-29.6,4.1
	C94.4,7,84.8,8.2,76,11.7C67.2,8.2,57.7,7,48.3,8.2C39.5-2.4,27-1.6,18.7,4.1c-6.2,4.1-10,11-10.2,18.5c0.1,3.6,1,7.1,2.7,10.3
	C4.6,42.4,0,53.8,0,65.4c0,13.9,6,21.1,8.2,24.2l1.8-1.8c6.3,16.1,17.1,24.7,30.1,32.6c0,0,0.3-1.6,0.5-3
	c14,12.2,20.7,9.2,35.3,25.7c14.6-16.4,21.4-13.6,35.3-25.7c0.3,1.4,0.5,3,0.5,3c5.8-3.5,22.2-12.3,30.1-32.6l1.8,1.8
	c1.4-1.9,8.2-9.5,8.2-24.2C152.1,53.8,147.5,42.4,140.8,32.8"/>
<path class="st1" d="M136.8,33c13.4-20.6-17-41.9-31.7-21.2c-9.8-1.6-19.9-0.4-29.1,3.6c-9.2-3.9-19.2-5.2-29.1-3.6
	C32.2-8.9,1.9,12.5,15.3,33C0,54,1.5,74.6,8.6,84.4l2.9-2.9c0,0,4.2,20.2,26.1,33.5l0.8-4.4C52,125,64.3,124.7,76,137.9
	c11.7-13.2,24-12.9,37.6-27.3l0.8,4.4c22-13.3,26.1-33.5,26.1-33.5l2.9,2.9C150.6,74.6,152.1,54,136.8,33"/>
<path class="st2" d="M76.2,109.9c0,0-10.5,0.2-12.1,1.1c0,0-1.8,3.1,12.1,3.1c13.3-0.1,11.3-2.5,11.4-2.8
	C83.9,110.3,80,109.8,76.2,109.9"/>
<path class="st2" d="M67,97.6c0,0,1.6-4.8,3.4-3.3c2.4,2.1,5.6,6.4,5.6,6.8v5.7l-3.8,0.2c-3.1,0.4-6.3,1-9.3,1.8
	c-9.8-24.3-4.4-42.7-1.8-49.3C51.4,61.6,49.8,50,49.8,50c1.5-0.1,2.9,0.3,4.2,1c2.9,1.5,5.6,3.2,8.1,5.3l0,0c0.7,0.5,1.4,1.1,2,1.6
	c6.6,5.6,12,4.4,12,4.4v23.8C76,86.1,56.7,84.6,67,97.6"/>
<path class="st2" d="M85.1,97.6c12.3-12.5-7.8-11.7-9-11.5C78.2,86.2,93.7,86.3,85.1,97.6"/>
<path class="st2" d="M93.3,60c11.1,29.8-3,48.9-3.1,49c8.7-22.8,3.1-41.7-0.7-48.7c-1.4,0.1-2.9,0.1-4.3,0.1
	c1.7-1.1,3.3-2.2,4.8-3.5c0.1-0.1,0.3-0.2,0.4-0.4c2.4-2.2,5.2-4,8.3-5.3l0,0c1.4-0.5,2.8-0.9,4.2-1.1C103,50,102,59.8,93.3,60"/>
<path class="st2" d="M110.8,21.4c0,0,4.5-11.3,18.3-8.5c0,0-12.7-8.3-21.5,6.7c0,0-12.7-5.9-31.5,2.2c0,0-17.7-6.2-31.2-2.7
	c0,0-7.9-13.7-18.9-8s-5.3,18.6-3.4,22c0,0-18.4,18.7-11.5,41.8l3.7-4.6c0,0,5.3,25.2,18.9,33.1l0.8-6.2c0,0,14.2,17.1,30.9,24.4
	c1.6,0.8,10.4,5.1,10.7,7.3v-12c0,0-11.6,1-14.7-4.4C59.3,109,46,85.2,52.6,60.3c0,0-6.4-1-7.6-11.8c-3.4-1.5-7-2.1-10.7-1.9
	c0,0,10.6-3.3,20.6,0.5s12.6,13.7,19.4,9.3L76,28.9l2,27.6c6.7,4.3,9.4-5.5,19.4-9.3c10-3.8,20.6-0.5,20.6-0.5
	c-3.4-2.1-7.2-3.6-11.1-4.4c-5.7-1.1-14.1,2.5-14.1,2.5s1.2-7.8,5-12C101.1,29.2,108.5,28.4,110.8,21.4z M24.9,30.9
	c-0.4-3.8,4.4-7.5,4.4-7.5c-2-2-5.4-0.3-5.4-0.3c3.1-6.1,10.1-3.1,10.1-3.1c-2.6-3.2-8.2-3-8.2-3c6.9-6.9,15.2,3.6,15.2,3.6
	C33.5,22.4,24.9,30.9,24.9,30.9z"/>
<path class="st3" d="M62.1,56.3C61,55.9,59.3,57,58.3,59C55,58,53.9,54.4,54,51l0,0C56.9,52.5,59.6,54.3,62.1,56.3"/>
<path class="st3" d="M94.5,59c-1-2-2.9-3.1-4-2.6c2.4-2.2,5.2-4,8.3-5.3l0,0C98.9,54.5,97.8,58,94.5,59"/>
</svg>
