<?xml version="1.0" encoding="utf-8"?>
<!-- Generator: Adobe Illustrator 24.1.1, SVG Export Plug-In . SVG Version: 6.00 Build 0)  -->
<svg version="1.1"
	 id="Layer_1" xmlns:cc="http://creativecommons.org/ns#" xmlns:dc="http://purl.org/dc/elements/1.1/" xmlns:rdf="http://www.w3.org/1999/02/22-rdf-syntax-ns#"
	 xmlns="http://www.w3.org/2000/svg" xmlns:xlink="http://www.w3.org/1999/xlink" x="0px" y="0px" viewBox="0 0 186.6 186.6"
	 style="enable-background:new 0 0 186.6 186.6;" xml:space="preserve">
<style type="text/css">
	.st0{fill:#FFFFFF;}
	.st1{fill:#C8102E;}
</style>
<path class="st0" d="M186.6,93.3c0,51.5-41.8,93.3-93.3,93.3S0,144.8,0,93.3S41.8,0,93.3,0l0,0C144.8,0,186.6,41.7,186.6,93.3
	C186.6,93.3,186.6,93.3,186.6,93.3"/>
<path class="st1" d="M93.3,6.8C65.8,6.7,40,19.7,23.6,41.8c2.3,0.7,6.7,1.9,12.1,3.5l0,0c8.5,2.5,36.8,10.8,42.1,12.5
	c15.4,5,19.5,6.9,23.8,11.5c4.3,4.7,10.9,10,17.4,14.5s9.6,9.4,9.6,17.2s-6,14.4-9.7,16.6c0,0,1.3-3.7-0.5-5.4s-7.5-4.8-22-3.8
	c-14.5,1.1-34,8.1-47.2,15.2c0,0,6.3-9.9,15.7-14.4c0,0-7.8,0-51.3,19c19,44.1,70.2,64.4,114.3,45.4s64.4-70.2,45.4-114.3
	C159.5,27.4,128.1,6.7,93.3,6.8 M93.3,161.6c-18.2,0-35.7-7.3-48.4-20.4c35.1-18.1,57-13.4,57-9.9c0,3.6-5.4,12-5.4,12
	c28.6-4,49.5-21.3,49.5-44.5c0-23.3-21.8-34.5-27.3-37.9c-5.9-3.7-3.1-8.7-22.6-16c-11.9-4.5-28.5-8.9-35-10.5
	c32.8-17.9,74-5.7,91.9,27.1s5.7,74-27.1,91.9C115.9,158.8,104.7,161.6,93.3,161.6"/>
<path class="st1" d="M92.6,71.2c-3.5,0.1-7-0.6-10.1-2.1c-5.1-2.5-12.9-8.2-19.6-2c0,0,5.7-0.7,5.2,0.8s-1,10.2,6.7,13.5
	C82.7,84.7,91.7,82.2,92.6,71.2"/>
</svg>
