<?xml version="1.0" encoding="utf-8"?>
<!-- Generator: Adobe Illustrator 24.1.1, SVG Export Plug-In . SVG Version: 6.00 Build 0)  -->
<svg version="1.1"
	 id="Layer_1" xmlns:cc="http://creativecommons.org/ns#" xmlns:dc="http://purl.org/dc/elements/1.1/" xmlns:rdf="http://www.w3.org/1999/02/22-rdf-syntax-ns#"
	 xmlns="http://www.w3.org/2000/svg" xmlns:xlink="http://www.w3.org/1999/xlink" x="0px" y="0px" viewBox="0 0 177.7 117.4"
	 style="enable-background:new 0 0 177.7 117.4;" xml:space="preserve">
<style type="text/css">
	.st0{fill:#0D2240;}
	.st1{fill:#FFA400;}
	.st2{fill:#2B5134;}
</style>
<path class="st0" d="M0,85.1c0.4,8.6,4.1,16.7,10.2,22.7c6.7-5.7,10.7-13.9,11-22.7H0z"/>
<path class="st1" d="M24.2,85.1c-0.4,9.5-4.7,18.4-11.8,24.7c5.7,4.6,12.6,7.2,19.9,7.6V85.1H24.2z"/>
<path class="st0" d="M0,82.1h21.2c-0.3-8.9-4.3-17.2-11-23C4,65.1,0.3,73.4,0,82.1z"/>
<path class="st1" d="M12.5,57.1c7.2,6.3,11.4,15.4,11.8,25h8V49.4C25,49.9,18.1,52.6,12.5,57.1z"/>
<path class="st0" d="M67.7,85.1H46.4c0.4,8.8,4.4,17,11,22.7C63.6,101.7,67.2,93.6,67.7,85.1z"/>
<path class="st2" d="M43.4,85.1h-8.2v32.2c7.3-0.2,14.3-2.9,19.9-7.6C48.1,103.4,43.8,94.5,43.4,85.1z"/>
<path class="st2" d="M55.2,57.1c-5.7-4.6-12.6-7.2-19.9-7.7v32.6h8.2C43.8,72.5,48,63.5,55.2,57.1z"/>
<path class="st0" d="M94.4,0l-30,68.9c-1.8-3.6-4.2-7-7.1-9.8c-6.7,5.8-10.7,14.2-11,23h21.4l21.7-49.9H153L167,0H94.4z"/>
<polygon class="st2" points="163.7,32.2 177.7,0 171.7,0 157.7,32.2 "/>
</svg>
