<?xml version="1.0" encoding="utf-8"?>
<!-- Generator: Adobe Illustrator 24.1.1, SVG Export Plug-In . SVG Version: 6.00 Build 0)  -->
<svg version="1.1"
	 id="Layer_1" xmlns:cc="http://creativecommons.org/ns#" xmlns:dc="http://purl.org/dc/elements/1.1/" xmlns:rdf="http://www.w3.org/1999/02/22-rdf-syntax-ns#"
	 xmlns="http://www.w3.org/2000/svg" xmlns:xlink="http://www.w3.org/1999/xlink" x="0px" y="0px" viewBox="0 0 290.6 179.9"
	 style="enable-background:new 0 0 290.6 179.9;" xml:space="preserve">
<style type="text/css">
	.st0{fill:#FFFFFF;}
	.st1{fill:#FDB927;}
	.st2{fill:#552583;}
	.st3{fill:#000000;}
	.st4{fill:#000000;}
</style>
<path class="st0" d="M63.2,40.4C63.2,40.4,88,0,138.6,0s74.3,39.4,74.3,39.4h68.6l-2.8,16.8c0,0-1.9,6.7-5,7.4h4.7
	c0,0,1.6,6-7.8,26.4h20c0,0,0.7,35.8-42.5,52.6c0,0-22.3,7.1-33.7-5c0,0-22.8,42.4-75.8,42.4s-76.9-43.6-76.9-43.6H0l9.8-17.6H3.1
	l7.9-14.5h13.3l2.3-5.5h-6.2l15.4-28.3h8.6l3.5-8.6h-7.4l11.4-21.2L63.2,40.4z"/>
<path class="st1" d="M139.3,170.4c43.3,0,78.5-35.6,78.5-79.7c0-43.9-35.2-79.6-78.5-79.6S60.8,46.8,60.8,90.7
	C60.8,134.8,96,170.4,139.3,170.4z"/>
<path class="st2" d="M148,90.4h-3.4c-0.3,0-0.5,0.2-0.5,0.5c0,0.2,0.2,0.4,0.5,0.4h3.5c1.2,0,2.3,0.1,1.9,0.6l-9,17.3
	c-0.4,1-1.6,1.6-2.6,1.2c-0.6-0.2-1-0.7-1.2-1.3l-4.4-23l15.6-12.1c1.6-1.4,4.6-3.6,6.1-3.6h3.5c2,0,2.8,1,2.3,2.3l-0.6,1.1
	c-0.4,0.7-1.7,0.8-2.6,0.8h-2c-0.2,0-0.3,0.1-0.4,0.3c0,0,0,0.1,0,0.1c0,0.2,0.1,0.5,0.4,0.5h2c0.8,0,1.8,0,1.4,0.6l-7.2,13.9
	C150.8,90.2,149.3,90.4,148,90.4z M175.1,98.9c-7.3,9-11.4,12-18.8,12c-2.5,0-3.8-0.6-3.2-1.8l8.9-17.8h3.4c3.7,0,3.2,3.1,2.3,7.4
	c-0.2,0.6,0.2,0.6,0.7,0.1l8.4-14.8c0.4-1-0.7-1.1-1.2-0.4c-4.2,5.6-8.6,5.3-10.6,5.3h-1.4l9.4-18h3.8c4.8,0.2,7,4.3,5.6,14.2h1.9
	l7-13.7c0.6-1.2-0.6-2.3-1.9-2.3l-47,0.1c-2.8,0-2.9,2-0.2,2c2.2,0,2,3,0.1,4.4l-20,16l4.1,18.7c0.2,1.3,1.4,2.2,2.8,2h38.9
	c1.1,0.1,2.2-0.4,2.9-1.3l7-12.1C178.6,97.3,176.4,97.4,175.1,98.9z"/>
<path class="st2" d="M89,93.8H76.7l15.6-20.6L89,93.8z M86.2,106.7c-0.4,2-2.5,3.5-5.2,4.2l-2.8,0.7l2.3-4.1
	c0.6-1.2-0.7-1.8-2.2-0.1C68.8,118.6,65.6,124,50.8,124h-4c-1.2,0-2.5-0.5-1.7-1.6l5.3-9.8h19.9c2.6,0,2-2,0.4-2
	c-1.2-0.2-2.3-0.9-3-1.9c-0.5-0.9-0.5-2,0.1-2.9l7.6-10.2h12.7L86.2,106.7z M115.7,110.5c-0.9-0.1-1.6-0.6-1.9-1.4
	c-0.4-1.2-0.3-2.5,0.1-3.6L132,73.3c0.2-0.6,1.1-1.9,1.9-1.9c1.6,0,2.3-2-0.4-2h-14.6c-2.6,0-2.6,2-0.1,2c0.7,0,1.2,0.5,1.3,1.1
	c0,0.2,0,0.4-0.1,0.6l-4,7.3c-0.6,0.7-1.7,0.8-2.9,0.8h-3.4c-0.2,0-0.5,0.1-0.5,0.4c0,0.3,0.2,0.5,0.5,0.5h3.4c1,0,1.7,0.2,1.2,1.3
	l-13.4,24.5c-1,1.3-2.9,1.6-2.8-1l4.7-35.8c0.2-1.1,0-1.9-1.2-1.9h-7.2c-0.8,0-1.4,0.4-1.8,1.1L90,73.4c-0.2,0.4-1.1,0.4-1.8,0.4h-6
	c-0.3,0-0.5,0.2-0.5,0.5c0,0.2,0.2,0.4,0.5,0.4h4.9c0.8,0,1.8,0.2,1.4,0.7L81.7,84c-0.4,0.2-0.9,0.4-1.3,0.4h-1.9
	c-0.2,0-0.5,0.1-0.5,0.4c0,0.3,0.2,0.5,0.5,0.5H80c0.5,0,0.5,0.2,0.4,0.5l-6.5,8.2c-0.5,0.3-1.1,0.4-1.7,0.4h-5.8
	c-0.2,0-0.4,0.2-0.4,0.5c0,0.2,0.1,0.3,0.3,0.4c0,0,0.1,0,0.1,0h4.9c0.8,0,1.3,0.1,1,0.7l-9.2,11.5c-1.7,2.3-10.1,3.4-11.8,3.4
	l31.3-58.4c0.5-1,1.5-1.6,2.6-1.7h6.6c3.1,0,3.1-2.2,0.4-2.2H58.9c-2.8,0-2.9,2.2,0.4,2.2h6.1c1.8,0,2.3,1,1.8,1.9L66.4,54
	c-0.2,0.5-0.7,0.7-2.4,0.7H53c-0.2,0-0.4,0.2-0.4,0.5c0,0.2,0.1,0.3,0.3,0.4c0,0,0.1,0,0.1,0H64c0.6,0,1.4,0.2,1,1.3l-1.6,2.8
	c-0.2,0.5-1,0.6-1.7,0.6h-5c-0.2,0-0.4,0.2-0.4,0.5s0.1,0.5,0.4,0.5h4.9c0.7,0,0.8,0.5,0.4,1.1l-3.5,6.5c-0.4,0.6-0.8,0.7-2,0.7
	h-1.9c-0.2,0-0.5,0.1-0.5,0.4c0,0.3,0.2,0.5,0.5,0.5h1.9c0.7,0,1,0.4,0.6,1.1l-2.9,5.4c-0.5,0.7-1.1,1.1-3,1.1H40.2
	c-0.2,0-0.3,0.1-0.4,0.3c0,0,0,0.1,0,0.1c0,0.2,0.1,0.5,0.4,0.5h10.9c1.2,0,1.7,0.6,1.2,1.4l-5.6,10.6c-0.4,0.5-1.2,0.6-2.8,0.6H33
	c-0.2,0-0.5,0.1-0.5,0.4c0,0.3,0.2,0.5,0.5,0.5h10.8c1.3,0,2.2,0,1.8,0.7L42.4,99c-0.6,1-2.3,1-3,1h-3.5c-0.2,0-0.3,0.1-0.4,0.3
	c0,0,0,0.1,0,0.1c0,0.2,0.1,0.5,0.4,0.5h3.5c1.2,0,1.8,0.2,1.6,0.8l-4.3,8.2c-0.5,0.7-2.2,0.7-3.5,0.7H16.3c-0.3,0-0.5,0.2-0.5,0.5
	c0,0.2,0.2,0.4,0.5,0.4h16.8c1.2,0,2.5,0.2,2,1.1l-2.8,5.2c-0.2,0.5-1.2,0.5-2.6,0.5h-3.4c-0.3,0-0.5,0.2-0.5,0.5
	c0,0.2,0.2,0.4,0.5,0.4h3.4c0.8,0,1.9,0.1,1.6,0.8l-1.8,3.2c-0.4,1-1.4,1.6-2.4,1.6h-8.5c-3.1,0-3,2.2-0.2,2.2H68
	c1.4,0,1.6-0.2,2.2-1.3l7.4-12.8h37.7C118,112.6,117.4,110.5,115.7,110.5z"/>
<path class="st2" d="M211.9,86.9c-1.3,1.2-3.5,2.4-4,2c-1-0.9-2.2-1.6-3.4-2.3l8.2-14.9c0.3-0.5,0.9-0.8,1.6-0.7
	c3.2,0,4.2,3.4,2.8,7.7C216,81.7,214.3,85,211.9,86.9z M277.4,100.2c-0.2-1-0.6-0.4-1.2,0.8c-0.2,0.5-0.8,0.5-1.6,0.5h-1.9
	c-0.2,0-0.4,0.2-0.5,0.4c0,0.2,0.2,0.5,0.4,0.5c0,0,0.1,0,0.1,0h1.9c0.7,0,0.7,0.5,0.4,1.2c-1.2,2.7-2.8,5.1-4.7,7.3
	c-0.4,0.4-1,0.6-1.6,0.6l-2,0.1c-0.2,0-0.5,0.1-0.5,0.4c0,0.3,0.2,0.5,0.5,0.5h1.9c1.1,0,0,0.6-0.1,0.8c-2.4,3.3-5.2,6.2-8.4,8.8
	c-0.9,0.2-1.8,0.2-2.8,0.1h-2c-0.2,0-0.4,0.2-0.4,0.5c0,0.2,0.1,0.3,0.3,0.4c0,0,0.1,0,0.1,0l2,0.1c1.4,0,0.4,0.8,0.1,1
	c-5.4,4.6-13.6,6-17.2,5.5c-12-1.4-14.5-10.6-15.4-14.3c-0.4-1.1-0.7-2.1-1-3.2c-0.4-1.9,5-2.4,6.5-1.4c2.3,1.6,7.6,3.1,11.8,3.1
	c3.8,0,11.6-2.8,13.9-9.4c2.4-6.8-3.5-14.3-6.1-16.9c-3.2-3.2-6.4-8.5-5-12.4c1-2.9,2.6-4.2,6.1-4.2c4.7,0,7.9,2.9,7.9,7.1
	c0,0.4-0.1,0.8-0.5,0.8H257c-0.3,0-0.5,0.2-0.5,0.5c0,0.2,0.2,0.4,0.5,0.4h1.4c0.3,0,0.6,0.2,0.6,0.6c0,0.1,0,0.2,0,0.3
	c-0.2,1.4-0.4,2.4-0.7,3.8c-0.1,0.8,1.1,1.3,1.4,0.7l7.2-12.8c0.6-1-0.6-1.2-1.4-1c-2,0.7-5.2,1.2-6.4,0.4c-2.5-2-5.6-3.1-8.9-3.1
	c-6.4,0-10.9,1.6-13.8,6.8c-0.2,0.4-0.8,0.4-1.3,0.4h-1.3c-0.2,0-0.4,0.2-0.4,0.5s0.1,0.5,0.4,0.5l1.1-0.1c0.5,0,0.7,0.2,0.5,0.7
	c-0.1,0.5-0.4,1-0.5,1.4c-0.7,2.8-0.5,5.7,0.6,8.4c0.1,0.1-0.1,0.2-0.6,0.2H233c-0.3,0-0.5,0.2-0.5,0.5c0,0.2,0.2,0.4,0.5,0.4h1.9
	c1,0,1.1,0.1,1.4,0.6c1.1,1.4,2.2,2.5,3.4,4.2c0.5,0.5-1.3,0.6-2.3,0.6h-7.7c-0.3,0-0.5,0.2-0.5,0.5c0,0.3,0.2,0.5,0.5,0.5
	c0,0,0,0,0,0h7.8c1.3,0,3.5-0.1,3.7,0.2c1.9,2.2,4.2,5.5,4.6,8.4c0.1,0.8-0.2,1.2-1.2,1.2h-1.1c-0.2,0-0.3,0.1-0.4,0.3
	c0,0,0,0.1,0,0.1c0,0.2,0.1,0.5,0.4,0.5h1c0.8,0,1.2,0.1,1.1,0.7c-1.1,3.2-2.5,5.6-8.8,5.5c-6.6,0-7.9-6.4-6-13.1
	c0.4-1.3,0-1.9-0.6-0.8l-4.6,7.2c-0.3,0.3-0.8,0.5-1.2,0.5h-0.6c-0.3,0-0.5,0.2-0.5,0.5c0,0.3,0.2,0.5,0.5,0.5c0,0,0,0,0,0
	c0.5,0,0.7,0.2,0.5,0.6l-1.7,2.5c-2.6-6-5.8-11.6-9.7-16.8v-0.1c6.1-0.4,15-6,16.4-11c2.5-8.9-6-12.1-10.7-12.1h-20.4
	c-2.8,0-2.9,2.2-0.4,2.2c1.4,0,2.6,1.2,2,2.4l-4.6,8.2c-0.4,0.7-1.7,0.7-3.6,0.7H190c-0.2,0-0.5,0.1-0.5,0.4c0,0.3,0.2,0.5,0.5,0.5
	h1.9c1.3,0,2.8,0,2.3,1l-5.4,9.7c-0.2,0.5-1,0.5-2.8,0.5h-1.9c-0.3,0-0.5,0.2-0.5,0.5c0,0.2,0.2,0.4,0.5,0.4h1.9
	c1.4,0,1.9,0.2,1.6,1l-7.2,13c-0.8,1-1.8,1.1-3.6,1.1c-2.6,0-2.5,2,0.1,2h17.5c2.8,0,2-2,0.5-2c-1,0-1.9-1.8-1.3-2.8l8.9-17h1
	c4,0,4.9,6.6,5.6,13.7c0.1,0.5-0.8,0.6-2.9,0.6h-4.9c-0.2,0-0.5,0.1-0.5,0.4c0,0.3,0.2,0.5,0.5,0.5h4.9c1.3,0,3.1,0,3.1,0.5
	c0.2,2.8,0.6,5.5,1.2,8.3c0.2,0.8-1.2,0.7-2.6,0.7h-6.4c-0.3,0-0.5,0.2-0.5,0.5c0,0.2,0.2,0.4,0.5,0.4h6.4c1.9,0,3,0,3.1,0.5
	c2.6,10,14.4,17.9,25.7,17.4c9.8-0.4,18-5.6,22.2-9.1c5.6-4.4,13.9-13.9,17.3-20.8C276.7,103,277.7,101.3,277.4,100.2z"/>
<path class="st2" d="M113.3,56.2c-1.5,1.8-3.9,2.8-6.2,2.6h-0.7l4.3-8.5c0.2-0.4,0.7-0.7,1.2-0.7c0.6,0,0.5-1.1-0.2-1.1h-6.7
	c-0.6,0-0.8,1.1-0.2,1.1s0.6,0.6,0.4,1.2l-3.8,7.6c-0.3,0.3-0.7,0.6-1.2,0.6c-0.6,0.2-1,1.2-0.2,1.2h10.8c0.8,0,1.1-0.2,1.2-0.6
	l2.3-3.4C114.2,55.8,113.6,55.7,113.3,56.2z"/>
<path class="st2" d="M145.9,48.7c-0.4,0.3-1,0.3-1.4,0c-1-0.7-2.2-1.1-3.5-1.2c-2.5,0-4.3,0.5-5.5,2.9c-0.8,2,0.1,3.8,2.3,4.8
	c1.1,0.5,2.3,1.1,1.8,2.3c-0.4,0.8-1.3,1-2.3,1c-1.2-0.1-3-1-3.2-2.6c-0.1-0.6-0.7-0.5-1-0.1l-1.6,3c-0.2,0.5,0.4,0.8,0.7,0.6
	c0.6-0.6,1.4-0.7,2.2-0.4c1.2,0.8,2.5,1.3,4,1.4c2.3,0.2,4.5-0.9,5.6-2.9c1.3-2,0.5-4.1-1.8-5.2c-1.3-0.6-2.4-1.7-1.8-2.8
	c0.4-0.7,1.4-0.6,2-0.5c1.1,0.2,2.1,1,2.5,2c0.1,0.2,0.3,0.4,0.6,0.3c0.1,0,0.2-0.1,0.3-0.2l0.7-1.9C146.8,49,146.2,48.6,145.9,48.7
	z"/>
<path class="st2" d="M221.2,51.8l1-1.8c0.5-0.7-0.2-1.6-1.3-1.6h-12.7c-0.8,0-0.6,1-0.2,1c0.8,0,1.1,1,0.6,1.8l-3.8,7
	c-0.6,0.7-1,1-1.7,1s-1,1,0,1h12.8c0.5,0,0.7-0.1,0.8-0.5l1.8-2.3c0.5-0.5-0.5-0.5-0.7-0.2c-1.7,1.6-4,2.4-6.4,2.2h-1.4l1.7-4h0.4
	c1.2,0,2.5,0,2.8,0.8c0.2,0.3,0.6,0.3,0.9,0.1c0,0,0.1-0.1,0.1-0.1l1.4-3c0.2-0.5-0.4-0.5-0.6-0.2c-0.6,1.1-3.2,0.8-3.8,0.8h-0.4
	l2.2-4.3h2.4c1.5,0,2.8,0.9,3.2,2.3C220.2,52,221,52.2,221.2,51.8z"/>
<path class="st2" d="M158.6,54l4.2-3.4V54H158.6z M188.8,48.5h-4.4c-1,0-0.7,1-0.2,1c0.8,0,1.4,0.7,1.4,1.5c0,0.2-0.1,0.5-0.2,0.7
	l-1.8,3.4l-4.1-6c-0.4-0.4-1-0.6-1.6-0.6h-4.4c-0.8,0-0.7,1-0.2,1c0.8,0,0.6,0.7,0.4,1.2l-3.5,6.8c-0.2,0.4-0.7,0.5-1,0.4
	c-0.2-0.1-0.3-0.3-0.4-0.5l-2.8-8.9c-0.1-0.4-1.7-0.4-2.2,0l-6.8,5.6h-3.5c-0.7,0-1.1,0.4-1.1,0.7s0.4,0.7,1.1,0.7h1.8l-1.8,1.6
	c-1.1,0.7-2.2,1.8-2.8,1.8h-0.5c-0.7,0-1.1,0.1-1.1,0.6c0,0.6,0.4,0.7,1,0.7h5.5c1.1,0,0.8-1.3,0.4-1.3c-0.6,0-1-0.4-1.1-1
	c0-0.3,0.1-0.6,0.3-0.8l1.7-1.6h3.4c1.9,0,3.4,2.3,2.2,3l-1,0.5c-0.4,0.2-0.6,1.2,0,1.2h10.8c0.8,0,0.7-1.1,0.4-1.1
	c-1.2,0-0.6-1.6-0.4-1.9l2.8-5.4l4,7.7c0.4,0.5,0.6,0.7,1,0.7h1.6c0.4,0,0.7-0.2,0.8-0.6l4.6-8.3c0.7-1.4,1.3-1.8,2.3-1.8
	C189.5,49.4,189.7,48.5,188.8,48.5z"/>
<path class="st2" d="M125.9,55.2c-1.2,2.4-3.2,3.8-4.4,3.2c-1.3-0.6-1.4-3.1-0.1-5.5c1.2-2.4,3.1-3.8,4.4-3.2
	C127.1,50.4,127.1,52.8,125.9,55.2z M124.8,47.9c-3.7,0-7.7,1.9-8.4,5.9c-0.7,3.1,1.3,6.2,4.4,6.9c0.5,0.1,1,0.2,1.5,0.1
	c4.1,0,7.8-2.6,8.5-6.5S128.8,47.9,124.8,47.9z"/>
<path class="st2" d="M201.6,53.8h-4.8c-1,0-0.7,1-0.4,1c0.4,0,0.8,0.3,0.8,0.7c0,0.1,0,0.1,0,0.2c0,1.9-0.8,2.6-2.6,2.6
	s-2.5-2.2-1.2-4.9c1-2.1,3.1-3.5,5.4-3.5c1.6,0,2.9,0.4,3,1.8c0.1,0.4,0.6,0.4,0.8,0l1.1-2c0.1-0.2,0-0.5-0.4-0.5
	c-0.4-0.1-1,0.4-1.4,0c-1.4-0.9-3-1.4-4.7-1.4c-3.6-0.2-7.1,1.7-8.8,4.9c-2.3,3.8,1,7.9,4,7.9c1.7,0,3.7-1.2,4.8-1.7l1.2,0.8
	c0.2,0.3,0.6,0.4,1,0.5h0.5c0.5,0,0.6-0.6,0.7-1l1.9-4.6C202.8,54.1,202.7,53.8,201.6,53.8z"/>
<path class="st2" d="M268.4,48.7c-0.4,0.3-1,0.3-1.4,0c-1-0.7-2.2-1.1-3.5-1.2c-2.5,0-4.3,0.5-5.5,2.9c-0.8,2,0.1,3.8,2.4,4.8
	c1,0.5,2.2,1.1,1.7,2.3c-0.4,0.8-1.3,1-2.3,1c-1.2-0.1-3-1-3.2-2.6c-0.1-0.6-0.7-0.5-1-0.1l-1.6,3c-0.2,0.5,0.4,0.8,0.7,0.6
	c0.6-0.6,1.4-0.7,2.2-0.4c1.2,0.8,2.5,1.3,4,1.4c2.5,0,4.3-0.7,5.6-2.9c1.3-2,0.6-4.1-1.8-5.2c-1.3-0.6-2.3-1.7-1.8-2.8
	c0.4-0.7,1.4-0.6,2-0.5c1.1,0.2,2.1,1,2.5,2c0.1,0.2,0.3,0.4,0.6,0.3c0.1,0,0.2-0.1,0.3-0.2l0.7-1.9C269.3,49,268.7,48.6,268.4,48.7
	z"/>
<path class="st2" d="M234.6,56.2c-1.7,2-3.8,2.6-6.4,2.6h-0.6l4.3-8.5c0.2-0.5,0.7-0.8,1.2-0.7c0.5,0,0.5-1.1-0.2-1.1h-6.8
	c-0.6,0-0.7,1.1-0.2,1.1c0.6,0,0.7,0.6,0.5,1.2l-4,7.6c-0.3,0.3-0.7,0.6-1.1,0.6c-0.6,0.2-1,1.2-0.4,1.2h10.8c0.8,0,1.1-0.2,1.3-0.6
	l2.2-3.4C235.6,55.8,234.8,55.7,234.6,56.2z"/>
<path class="st2" d="M250.9,49.4c1.4,0.1,2.7,1,3.2,2.3c0.1,0.2,0.8,0.5,1.1,0.1l1-1.8c0.4-0.7-0.2-1.6-1.3-1.6h-12.7
	c-1,0-0.6,1-0.2,1c0.8,0,1.1,1,0.5,1.8l-3.7,7c-0.4,0.6-1.1,1-1.8,1c-0.6,0-0.8,1,0,1h12.8c0.6,0,0.8-0.1,1-0.5l1.8-2.3
	c0.4-0.5-0.5-0.5-0.8-0.2c-1.7,1.6-3.9,2.4-6.2,2.2h-1.6l1.8-4h0.4c1.1,0,2.4,0,2.8,0.8c0.2,0.2,0.5,0.3,0.7,0.1
	c0.1,0,0.1-0.1,0.1-0.1l1.6-3c0.2-0.5-0.5-0.5-0.6-0.2c-0.6,1.1-3.2,0.8-4,0.8h-0.4l2.3-4.3L250.9,49.4z"/>
<path class="st3" d="M153,19.2c-6-0.4-10.9-0.6-15.1-0.1c1.2-2.9,3.1-5.4,5.6-7.3c3.9,0.2,7.7,0.7,11.5,1.4
	c10.7,2,27.2,8.6,34.4,18.1C179.9,25,164.2,20,153,19.2z M135.1,19.4c-4.2,0.5-8.4,1.2-12.5,2.3c-0.6-1.6-2.2-6.4-2.8-7.9
	c6.6-1.8,13.5-2.5,20.3-2C138.5,13.1,135.7,18,135.1,19.4z M105,28.3c-0.7-1.2-4.2-4.4-6.1-5c4.4-3.4,14.6-8,18.6-8.9
	c0.6,1.2,2.4,6,3,7.9C117,23,107.9,26.4,105,28.3z M201,39.2c-1-1.2-2.3-3.6-11.9-12c-14.3-12.4-33.1-18-50.8-18
	c-13,0-24.4,2.9-37.1,9.8C85.2,28,78.6,38.2,76.9,40.2c-1.2,1.6-1.3,2.4-0.6,2.9c0.6,0.4,1.7-0.8,2.6-2.2
	c4.8-6.4,11.2-12.6,17.8-16.3c2,0.4,4.9,3.2,6,4.7c-4.8,3-9.5,6.2-13.9,9.7c-2.3,1.8-3,2.8-2.4,3.5c0.5,0.6,2.3-0.5,3.7-1.7
	c4.4-3.5,9-6.6,13.8-9.5c2.6,3,1.8,8.5,0.8,9.6c-0.5,0.7-0.5,1.3,0,1.7c0.6,0.4,1.1-0.5,1.8-1.6c1.8-2.5,1.1-8.5-0.4-10.7
	c4.6-2.9,11-4.8,15-5.6c0.4,0.6,5.2,14.6,6.1,17.2c0.5,1.4,1,3.1,2,2.8c0.6-0.1,0.2-1.7-0.4-3.2c-0.7-1.9-4.3-13.7-5.5-17.2
	c1.3-0.7,9.2-2.3,11.3-2.3c-1,5.2,2.6,7.3,6.7,10c2.2,1.4,16.1,9.4,19,11.2c1.7,1.1,3,1.7,3.4,1.2s-0.7-1.7-2.3-2.5
	c-1.2-0.7-14.2-8.3-19.6-11.6c-3.8-2.5-5.9-5-5-8.5c1.3-0.4,5.2-0.4,9.2-0.4c27.6,0.2,49.7,16,52.1,18.6c1.3,1.2,3,2.3,3.7,1.8
	C202.3,41.3,201.6,39.8,201,39.2L201,39.2z"/>
<path class="st4" d="M207,133.4c1.1-1.8,1.8-2.9,1-3.4c-0.7-0.5-1.6,1.3-2.5,3c-3.2,5.5-6.7,10.2-14.6,17.4
	c-6.6,5.9-14.2,10.6-22.4,13.8c-3-8.4-14.4-44.2-14.8-45.2c-0.4-1.6-0.8-1.9-1.3-1.8c-0.6,0.2-0.2,1.1,0.1,2.4
	c0.2,1.3,13.8,43.8,14.3,45.2c-2.6,1.3-13.7,4.4-21.2,4.7c-6.8,0.2-14.9,0-19-1c-4.7-3.8-15.5-19.1-19.6-27.1
	c-4.8-9.6-8-18.4-8.9-22.1c-0.4-1.8-0.8-3.1-1.8-2.9c-1,0.1-0.4,1.6,0.2,3.5c2.2,7.5,5.1,14.9,8.8,21.8
	c5.4,10.4,14.9,22.8,17.6,26.2c-10.6-2.3-20.6-6.9-29.3-13.3C85,148.2,77.5,140,73.8,134c-0.6-1.1-1.3-2.5-2.3-1.9
	c-0.5,0.4,0.1,1.4,0.7,2.6c5.4,9.7,18.6,23.5,35.6,31.1c19.7,8.8,41.2,8.3,60.5,0.8C185.2,160.2,199.8,146.8,207,133.4z"/>
</svg>
