<?xml version="1.0" encoding="utf-8"?>
<!-- Generator: Adobe Illustrator 24.1.1, SVG Export Plug-In . SVG Version: 6.00 Build 0)  -->
<svg version="1.1"
	 id="Layer_1" xmlns:cc="http://creativecommons.org/ns#" xmlns:dc="http://purl.org/dc/elements/1.1/" xmlns:rdf="http://www.w3.org/1999/02/22-rdf-syntax-ns#"
	 xmlns="http://www.w3.org/2000/svg" xmlns:xlink="http://www.w3.org/1999/xlink" x="0px" y="0px" viewBox="0 0 198.3 112.4"
	 style="enable-background:new 0 0 198.3 112.4;" xml:space="preserve">
<style type="text/css">
	.st0{fill:#C2CCD2;}
	.st1{fill:#000000;}
	.st2{fill:#FFFFFF;}
	.st3{fill:#0B77BD;}
	.st4{fill-rule:evenodd;clip-rule:evenodd;fill:#FFFFFF;}
</style>
<path class="st0" d="M74.6,52.1c14.6-2.3,29.4-1.6,42.2,3.8l1.6-3.5c-20.8-6.6-47-6.4-66.4,4.3l5.5-12.8C33,50.5,16.7,64.4,0,78.6
	C12.1,50,38.4,26.6,68,18l-1.4,4.8c26-8.5,54.6-10.2,77.6-6.4l-5.4-7.1l13.3,3.5L160.7,0l3.4,15.8l13.1,4.2c0,0-9.5,4-9.1,4.2
	c49.4,20.3,33.6,88-13.3,88.2c-23.8,0.2-42.2-21.2-41.4-43.7C101,60.8,89,57,74.6,52.1z"/>
<path class="st1" d="M163.1,24.2c2.8-1.2,7.8-3.4,7.8-3.4l0.4-0.1l-0.4-0.1c0,0-8.2-2.8-9.8-3.2c-0.4-1.9-1.6-10.8-1.6-10.8
	l-0.1-0.4l-3,4.8c0,0-1.7,2.8-2.6,4.2c-1.9-0.6-10.3-2.6-10.3-2.6l-0.5-0.2l0.4,0.5c0,0,3.4,4.3,5.4,7.1c-9.7-2-19.5-3-29.4-2.9
	c-3.7,0-7.6,0.1-11.6,0.4c-15.3,0.9-30.3,3.9-44.8,9l1.7-5l-0.4,0.1C41.6,28.6,16.9,49.8,6,70.7l0.2,0.1
	c15.4-14.4,36.4-26,55.1-30.2L56.4,52l0.4-0.1c8.6-4.2,20.2-6,31.7-6c11.9,0,23.8,1.9,33,5.3l-3.5,7.7c-8.4-3.8-20.5-6.4-30.7-6.4
	c-1.8,0-3.5,0-5.2,0.1V53c12,3.4,24.2,7.2,34.1,15c-0.1,0.8-0.1,1.7-0.1,2.5c0,20.5,17.8,39.2,38.8,39.2h0.5
	c22.9-0.2,40.1-21.4,40.1-43.4C195.2,50.2,186,33.5,163.1,24.2z"/>
<path class="st0" d="M189,71.8c-3.3,0.2-6.6,0.8-9.8,1.8c-0.7-2.2-1.6-4.3-2.5-6.4c3.7-2.4,7.1-5.3,10.2-8.4
	c1.4,3.9,2.1,8.1,2.2,12.2L189,71.8L189,71.8z"/>
<path class="st0" d="M177.8,45.7c3,2.8,5.6,6.1,7.6,9.7c-3,3.4-6.4,6.3-10.2,8.8c-1.7-3-3.6-5.9-5.6-8.6
	C172.9,52.8,175.7,49.5,177.8,45.7z"/>
<path class="st0" d="M131,28.8c27.8,2.2,39,9.4,45,15c-2.1,3.6-4.9,6.7-8.3,9.2c-5.9-6.7-13.3-11.8-21.6-14.9
	c1.6-0.3,3.3-0.6,4.9-0.7c3,0.7,5.9,1.6,8.8,2.6l0.1-0.2C153.6,35.4,142.8,31.6,131,28.8z"/>
<path class="st0" d="M124.7,78.8h-2.2c-0.7-2.7-1-5.5-1-8.3c0-5.1,1.1-10.2,3.4-14.8c8.5,3.1,17,6.2,25.6,6.2
	c5.9,0,11.6-1.7,16.6-4.8c2.2,2.6,4.1,5.5,5.8,8.5C158.2,74.2,141.6,78.8,124.7,78.8z"/>
<path class="st0" d="M154.9,104.4c-14.4-0.2-26.3-9-31.4-22.4h0.6c17.6,0.1,34.9-4.5,50.2-13.2c0.8,2,1.6,4,2.2,6
	C164.6,80.6,159.5,93,154.9,104.4z"/>
<path class="st0" d="M181.2,92.2V89c0-4.2-0.4-8.4-1.3-12.5c2.8-0.9,5.8-1.5,8.8-1.8C187.7,81.1,185.2,87.1,181.2,92.2z"/>
<path class="st0" d="M165.2,54.8c-4.4,2.7-9.6,4.2-14.8,4.1c-8,0-16.1-2.9-23.9-5.9c1.4-2.2,2.9-4.3,4.7-6.2h0.5
	c5,0,13.3,3.7,17.4,6l0.2-0.2c-11.9-14-42.4-16.3-62.2-16.3h-5.6c8.1-2,16.5-2.9,24.8-2.9C128.3,33.4,151.6,39.8,165.2,54.8z"/>
<path class="st0" d="M177,96.5c-5.3,4.4-11.8,7.1-18.7,7.8c4.2-10.2,8.5-21.2,19-26.3c0.6,3,0.9,6,1,9
	C178.2,90.2,177.8,93.4,177,96.5z"/>
<polygon class="st0" points="149.4,27.2 155.5,25.2 160.1,30.4 159.6,23.5 165.5,21 159,18.8 158,12.1 154.7,17.6 148.2,16 
	152.5,21.5 "/>
<polygon class="st2" points="117.2,32.2 121.4,30 124.9,33.2 124.2,28.6 128.3,26.2 123.6,25.4 122.6,20.8 120.5,25 115.8,24.5 
	119,27.8 "/>
<polygon class="st2" points="69.8,41.4 72.6,40.1 74.9,42.1 74.5,39.1 77.2,37.6 74,37 73.4,34 72,36.7 69,36.4 71,38.6 "/>
<path class="st3" d="M174.6,83.3v-0.5l-3.8,6.5l1.1-5.8l-0.2-0.1c-5.8,7-7.9,11.9-9.7,18v0.4l0.2-0.1c4-1.3,7.8-3.3,11.2-5.9
	c1-2,1.3-6.2,1.3-11.4L174.6,83.3z"/>
<path class="st3" d="M161.6,68.2c-6.7,1.3-13.5,2-20.3,2c-1,0-1.9,0-2.9-0.1l14.3-4.3v-0.2c-9.5-0.5-16.8-0.6-26-4.9l-0.1-0.1
	l-0.1,0.1c-1.4,3-2.2,6.2-2.2,9.5c0,2,0.3,4,0.8,5.9h1.1c4.1,0,21.1-0.4,35.4-7.6L161.6,68.2z"/>
<path class="st3" d="M164.8,79.8c-7.2,5.4-12.7,9.7-23.3,11.6c9.8-5,16.4-8.6,22.7-15l-0.2-0.2c-11,6.5-25.4,9.2-35.5,9.6H128
	l0.2,0.2c8.3,13.2,18.8,14.4,22.3,14.4h1.2v-0.1C156.3,93.2,159.1,86.4,164.8,79.8L164.8,79.8z"/>
<path class="st4" d="M157.3,35.8c-0.5-0.3-1-0.6-1.6-0.7c8.5,2.5,14.3,5.8,17.5,8.3c-0.5,0.7-1.1,1.4-1.7,2
	C167.5,41.3,162.7,38,157.3,35.8z M183.6,83.6V83c0.5-2.2,0.8-4.5,0.8-6.8c0.6-0.2,1.3-0.4,1.9-0.4
	C185.7,78.5,184.8,81.1,183.6,83.6L183.6,83.6z M187.2,68.6c-1.1,0.1-2.1,0.2-3.1,0.5c-0.2-1.7-0.6-3.3-1.1-4.9
	c1.2-0.8,2.3-1.8,3.2-2.9C186.9,63.7,187.3,66.2,187.2,68.6L187.2,68.6z M183.5,54.6c-1.1,1-1.9,1.9-2.9,2.8c-1-2.2-2.2-4.4-3.6-6.4
	c0.7-1,1.4-1.8,2-2.8C180.8,50.2,182.3,52.3,183.5,54.6z"/>
</svg>
