<?xml version="1.0" encoding="utf-8"?>
<!-- Generator: Adobe Illustrator 24.1.1, SVG Export Plug-In . SVG Version: 6.00 Build 0)  -->
<svg version="1.1"
	 id="Layer_1" xmlns:cc="http://creativecommons.org/ns#" xmlns:dc="http://purl.org/dc/elements/1.1/" xmlns:rdf="http://www.w3.org/1999/02/22-rdf-syntax-ns#"
	 xmlns="http://www.w3.org/2000/svg" xmlns:xlink="http://www.w3.org/1999/xlink" x="0px" y="0px" viewBox="0 0 145.7 144.7"
	 style="enable-background:new 0 0 145.7 144.7;" xml:space="preserve">
<style type="text/css">
	.st0{fill:#000000;}
	.st1{fill:#FFFFFF;}
	.st2{fill:#C4CED4;}
	.st3{fill:#007DC5;}
</style>
<path class="st0" d="M133.7,35.5c-0.5-0.4-1.4-1-1.4-1c-0.2-0.1-0.4-0.3-0.5-0.5c-0.1-0.6-0.3-1.1-0.5-1.7
	c-6.3-8.1-14.4-14.8-23.5-19.6c-1-0.4-2-0.7-3.1-0.8c-0.2,0-0.4-0.1-0.6-0.2c-0.8-0.8-1.7-1.4-2.8-1.8c-8.8-3.6-18.2-5.4-27.7-5.4
	c-2.9,0-5.9,0.2-8.8,0.6L68.7,0c-15.1-0.5-26,11.4-26,11.4c-3.6,1.7-7.1,3.6-10.4,5.8C27.7,18.7,24,22,22,26.4c-2,1.6-6,6.8-6,6.8
	c-0.9,0.6-1.8,1.3-2.6,2c-3.5,3.8-5.9,8.4-7,13.4c-0.1,0.1-0.1,0.2-0.1,0.4c-0.1,0.4-0.1,0.8-0.2,1.3c-0.1,1-0.4,1.8-0.5,2.8L5.7,53
	c0,0.1,0,0.3-0.1,0.4c-0.5,1.5-1,3-1.3,4.6C4.1,58.6,2,64.8,2,64.8l0,0c-5.4,19,1.8,30.4,3,32.2c9.6,27.8,36.7,47.8,68.5,47.8
	c23.3,0.2,45.2-10.8,59-29.5c0.3-0.6,0.4-1.2,0.5-1.8c0-0.2,0.2-0.5,0.4-0.6c1-0.5,1.3-0.8,1.3-1c7.3-11.1,11.1-24.1,11-37.3
	C145.9,60.6,141.7,47,133.7,35.5z"/>
<path class="st1" d="M43.4,21.9c0.1-0.2,0.4-0.4,0.5-0.5l0.4-0.4h0.1c0-2.2,0.3-4.4,0.8-6.5C51.8,5.4,62.6,3,62.6,3
	c1.3-0.5,0.5,0.1,0.5,0.1C56.3,10.8,57,17,57,17l6.6,23.6c0,0-5.3-1.9-9.4-10.1c-1.9,16.6,13.8,30,13.8,30c0.6,0.6-0.5-0.1-0.5-0.1
	c-3.8-1.9-8.4-6.1-9.6-7.2c0.2,1.3,7.9,39.5,8,39.7c0,0.3,0.1,0.5,0.2,0.7l2.5-6.5l2.3,19.3c-10.1,9.2-20.6,5.6-21.2,5.4
	c0.1,0.2,0.3,0.4,0.4,0.6c0,0,8.6,16.8,43.8,15.1c0,0,0.8,0,0.7,0.1c-0.1,0-0.2,0.1-0.2,0.1c-0.5,0.2-1.1,0.3-1.7,0.4
	c-42.4,11.3-64.3-24.7-65.3-26.3c-1.4-1.9-2.5-4-3.5-6.1c0-0.1,0-0.4,0.1-0.1c0,0,4.4,4.6,17.3,5.8h0.1c-9.8-10.8-14-18.7-14.6-19.9
	c0,0-1.2-1.8-2.6-6.8c0,0,0.1-0.2,0.1,0c0.5,1,3.8,5.8,7.8,6.8c-3.4-5.4-5.5-13.9-5.8-15.1c4.6,6.4,12.7,6.8,12.7,6.8
	c0-0.1-0.1-0.1-0.1-0.1l0,0v0.1c-13.3-13.3-10.4-27.7-5-38.2C36.4,30.3,39.6,25.8,43.4,21.9z"/>
<polygon class="st2" points="83.2,109.6 74.5,118.7 85.3,110.4 79.6,91.2 82.1,68.2 77.8,90.1 "/>
<path class="st2" d="M81.1,62.8c0.2,0,0.3-0.1,0.5-0.2c0.9-0.5,1.7-1.1,2.4-1.9c2.4-2.5,3.6-5.8,3.5-9.2c0-2.4-0.4-4.9-1.2-7.2
	C86.1,47.4,85.1,59.3,81.1,62.8z"/>
<path class="st2" d="M85.1,23.5c3-4.6,8-4.9,10.2-4.9c-1.6-0.5-3.3-0.8-5-0.8c-1.8,0-3.5,0.2-5.2,0.8c-1,0.4-1.6,0.6-1.8,0.7
	C84,20.7,84.6,22.1,85.1,23.5z"/>
<path class="st2" d="M77.5,35.8L77.5,35.8L77.5,35.8z M81.2,33.3C81.3,33.3,81.3,33.4,81.2,33.3L81.2,33.3l0.1,1.4
	c0,9.8-2.5,20.6-3.6,24.5c3.2-7.3,4.8-15.1,4.8-23c0-2.9-0.2-5.8-0.7-8.6c-0.1-0.8-0.3-1.7-0.5-2.5c-1,7.4-3.8,10.8-3.8,10.8
	L77.4,36c-0.1,0-0.1,0-0.2-0.1c-2.7-4.8-6.2-9.1-10.4-12.7c-1.7-1.5-3.5-2.8-5.5-3.8c8.9,19.2,11.5,34,12.2,38.9v-1.7
	c-0.2-6-0.8-11.9-2-17.8c-1-5.2-2-8.9-2-8.9v-0.2h0.2c4,3.1,6.8,11.9,7.2,13.6c1.1-1.6,2-3.4,2.6-5.3c0.7-2.3,1.4-4.4,1.4-4.4
	L81.2,33.3z"/>
<path class="st2" d="M6.4,73.2c0,9.1,1.6,18.6,9.5,30.8c7.6,15.7,21.2,24.1,27.7,27.4c2.2,1,3.5,1.6,3.5,1.6
	c8.8,4.2,18.5,6.5,28.3,6.5c13.3-0.1,26.3-4.1,37.3-11.5c1.9-1.3,3-2.2,3-2.2l0,0l0.8-0.8c0,0.1-0.2,0.2-0.4,0.2l-0.7,0.5
	c-14,8.2-26.9,10.7-37.4,10.7c-16.6,0-27.1-6.1-27.1-6.1c-35-18.2-35.5-49.9-35.5-49.9c0-0.1,0.1-0.1,0.1-0.1l0,0h0.2
	c4.4,8.8,10,11.6,12.4,12.6c0.3,0.1,0.5,0.3,0.8,0.4c-10.1-12.9-13-23.7-13-31.7c0-10.8,5.2-16.8,5.2-16.8l0.1-0.1
	c0.1,0,0.1,0.1,0.1,0.1l0,0c-0.6,3.3-0.9,6.6-1,10c0,3.6,0.4,7.2,1.4,10.7c0.3,0.9,0.7,1.9,1.1,2.8c-0.3-2.5-0.5-5-0.5-7.4
	c0-15.5,6.1-30.4,17-41.4c-2.3,1-4.9,3.4-7.1,5.6c-2.4,2.4-4.3,4.8-4.3,4.8h-0.1c-0.1,0-0.1,0-0.1-0.1c0.2-1.9,0.8-3.8,1.8-5.4
	c-1.9,1.9-3.4,4.1-4.4,6.5c-0.7,1.5-1.3,3-1.8,4.6v0.1c-3.1,3.5-5.6,7.5-7.6,11.8c-0.9,1.8-1.6,3.7-2.2,5.6
	c-0.1,0.5-0.2,0.7-0.2,0.8c0,0,0,0.1-0.2,0.1S13,53.7,13,53.5v-0.1c0-0.2,0-0.5,0.1-0.7c0-4.6,1.9-9.5,2.6-11.4
	c-5.3,5.6-6.6,13.4-6.6,19.6c0,3.5,0.4,6.9,1.2,10.3c0.1,3.9,0.6,7.8,1.3,11.6C12.4,86.4,13,89,13,89c0.2,0.4,0.3,0.8,0.4,1.2v0.1
	h-0.1c-0.2,0-0.2-0.1-0.4-0.2c-0.1,0-0.1-0.1-0.2-0.4l-0.2-0.5c-3.8-5.8-5.6-15.1-6-17.4C6.4,72.3,6.4,72.8,6.4,73.2z"/>
<path class="st3" d="M124.4,32.9c0,0-17-22.8-49.1-22.8h-0.7c-0.2,0-0.4,0.1-0.5,0.2c0,0.2,0.2,0.4,0.5,0.5c2.6,2,5,4.3,7.2,6.7v0.1
	l0.1-0.1c0.7-0.3,1.3-0.5,2-0.7c1.8-0.5,3.7-0.7,5.5-0.7c3.6,0,7.2,0.9,10.3,2.6c-1.7,0.8-9.6,4.8-11.4,9.5l0.1,0.1
	c0,0,8,7.2,24.6,7.2c2.9,0,5.8-0.2,8.6-0.6c0.5,0,1-0.1,1.4-0.2c0.7-0.2,1.6-0.5,1.6-1.3C124.6,33.2,124.5,33.1,124.4,32.9z"/>
<path class="st3" d="M89.9,64.8c-0.1-0.1-0.2-0.1-0.2,0c-0.1,0-0.1,0.1,0,0.1c0.2,0.2,0.3,0.4,0.5,0.6c1,1.3,2.8,4.4,2.8,10
	c-0.1,5.2-1.4,10.3-3.7,14.9c0-1.8-0.2-3.5-0.6-5.3C88,82,86.9,78.7,84.4,78h-0.2l-1.4,13.6l5.4,20.2l-10.7,8.6
	c-0.1,0-0.1,0-0.1,0.1s0.1,0.1,0.1,0.1l0,0c3.7,1,7.5,1.4,11.3,1.3c4.6,0,9.1-0.5,13.6-1.4c0.8-0.2,1.4-0.8,1.7-1.6
	c0.8-4.4,1.2-8.9,1.2-13.3C105.3,93.7,102.8,76.8,89.9,64.8z"/>
<path class="st3" d="M107.6,118.9c-0.2-0.1-0.2-0.4-0.2-0.7v-0.6c0.4-1.5,0.7-2.9,0.8-4.4c0.6-3.7,0.9-7.4,0.8-11.2
	c0-12.1-2.9-29-16.4-42.1c-0.1-0.1-0.1-0.1-0.2-0.1L92,59.4c0-0.1,0.1-0.2,0.1-0.2h0.2c0.2,0,0.4,0,0.6,0.1c2.3,0.8,4.4,2.1,6.1,3.8
	c-0.1-0.6-0.4-1.9-0.7-3.6c-0.9-2.9-2.3-5.6-4.2-7.9l-0.4-0.4c-0.1-0.2-0.2-0.2-0.2-0.5v-0.2h0.2c0.1,0,0.2,0.1,0.6,0.4
	c0.8,0.4,34.9,16.8,36.1,49.9v0.6c0.1,1.2-0.4,2.4-1.2,3.4c-0.4,0.4-8.4,10.4-20.4,14.2c-0.2,0.1-0.5,0.2-0.7,0.2
	C108.1,119.2,107.7,119.2,107.6,118.9z"/>
<path class="st3" d="M133.1,94.7c-0.7-27.4-26.6-46-39.6-53.6c-2.3-1.4-4.7-2.7-7.2-3.8L85.7,37h0.8c3.1,0,6.1,1.4,8.2,3.7
	c0-1.2-0.2-2.4-0.6-3.5l-0.2-0.4l0.4,0.1c3.7,1.4,8.4,1.9,13.1,1.9c4.1,0,8.2-0.4,12.2-1c3.2-0.4,5.4-0.8,5.4-0.8h0.5
	c1.9,0,2.5,1.1,2.5,1.2c4.4,4.9,9.8,16.2,10.8,29.8c0.1,1.7,0.1,3.4,0.1,4.9c0,10.2-2.2,18.1-3.7,21.4c-0.6,1.2-1.1,1.8-1.6,1.8
	C133.3,96,133.1,95.5,133.1,94.7z"/>
<path class="st0" d="M58.4,6.3L58.4,6.3c-0.3,0-7.3,2.1-9.4,12.7c0,0,0,0.2,0.1,0c0.6-1,2.8-4.3,4.8-3.4v-0.2
	C54.1,14.5,54.8,10.8,58.4,6.3z"/>
<path class="st0" d="M53.1,102.4c-1.6-3-11.3-24.2-11.3-24.2c-3,1.1-6.7-1.4-6.7-1.4C39.9,89.4,51.2,100.4,53.1,102.4
	c0.1,0.5,0.1,0.3,0.1,0.3C53.1,102.6,53.1,102.4,53.1,102.4z"/>
<path class="st0" d="M43.4,33.5c-8.8,19.9,10.9,28.2,11.3,28.3l-1.1-4.7L53,54.6c-0.5-0.3-0.9-0.5-1.4-0.6c-0.1,0-0.2-0.1-0.4-0.2
	c-0.2,0-0.4-0.1-0.6-0.2C42,49,42.8,38.1,43.4,34.5v-0.4c0.1-0.2,0.1-0.5,0.1-0.7l0,0C43.5,33.1,43.5,33.4,43.4,33.5z"/>
<path class="st2" d="M56.3,89.7l-1.4-25.1l8.5,28C63.4,92.5,60.7,85.9,56.3,89.7z"/>
<path class="st2" d="M63.4,40.7l-6.5-23.6v0.5l1.8,15c0.1,0.2,0.1,0.4,0.1,0.6c0,0.8-0.5,1.9-4.6-2.3c-0.1-0.2-0.2-0.2-0.2-0.2
	C58.1,38.9,63.4,40.7,63.4,40.7z"/>
<path class="st2" d="M47.9,45c-0.5-1.1-0.8-2.3-0.8-3.5c0-2.2,1.1-4.3,2.8-5.6l0.1-0.1c-0.2-2-0.2-4,0-6c-2.2,3.1-6.7,10.7-1.2,16.6
	c-0.1-0.1-0.2-0.2-0.2-0.4C48.3,45.7,48.1,45.3,47.9,45z"/>
<path class="st0" d="M53.7,48c-2-3.8-3.3-7.9-3.7-12.1v-0.1c-1.7,1.4-2.7,3.5-2.8,5.8c0,1.2,0.3,2.3,0.7,3.4
	c0.3,0.3,0.5,0.7,0.6,1.1c0.1,0,0.2,0.2,0.2,0.4l0.4,0.4c1.3,1.3,3.1,2.1,5,2.2C54,48.6,53.8,48.3,53.7,48z"/>
<path class="st2" d="M61.5,92.9c0,0-4.2-1.1-3.8,7.6c0-0.3,0.1-0.5,0.2-0.7c1.2-2.9,2.4-4,3.5-4.1c0.8,0,1.6,0.8,2,1.9
	c0.5,1.3,1,2.6,1.3,4c0.3,1.1,0.6,2.3,0.7,3.5c0.1,0.8,0.2,1.5,0.1,2.3v0.1C65.7,106.5,67.5,94.6,61.5,92.9z"/>
<path class="st0" d="M65.6,107.4L65.6,107.4c-0.1-1.1-0.1-1.8-0.2-2.4c-0.1-1-0.4-2.2-0.6-3.4c-0.3-1.4-0.8-2.8-1.4-4.1
	c-0.5-1.1-1.2-1.8-2-1.8c-1.1,0-2.2,1.2-3.5,4c0,0.3-0.1,0.6-0.2,0.8l2.2,4.4C59.7,105,60.9,92.9,65.6,107.4z"/>
</svg>
