<?xml version="1.0" encoding="utf-8"?>
<!-- Generator: Adobe Illustrator 24.1.1, SVG Export Plug-In . SVG Version: 6.00 Build 0)  -->
<svg version="1.1"
	 id="Layer_1" xmlns:cc="http://creativecommons.org/ns#" xmlns:dc="http://purl.org/dc/elements/1.1/" xmlns:rdf="http://www.w3.org/1999/02/22-rdf-syntax-ns#"
	 xmlns="http://www.w3.org/2000/svg" xmlns:xlink="http://www.w3.org/1999/xlink" x="0px" y="0px" viewBox="0 0 100.5 100.5"
	 style="enable-background:new 0 0 100.5 100.5;" xml:space="preserve">
<style type="text/css">
	.st0{fill:#231F20;}
	.st1{fill:#FFFFFF;}
	.st2{fill:#000000;}
</style>
<circle class="st0" cx="50.2" cy="50.2" r="50.2"/>
<g>
	<path class="st1" d="M28.7,26.7L28.7,26.7c5.6,2.5,11,5.2,16.3,8.3c9.7,5.2,19.7,10.6,26.5,12.2c6,1.6,10.9,1.3,14.4-0.4v-0.2
		c-0.1-0.2-0.1-0.5-0.2-0.7C82.9,33.5,67.4,6.4,40.5,6.4c-1.1,0-2.2,0.1-3.4,0.1c-10,2.8-18.8,9.1-24.7,17.6c1.3-0.4,2.6-0.6,4-0.6
		C19.9,23.7,23.9,24.8,28.7,26.7z"/>
	<path class="st1" d="M22,64L22,64c10.9,3.6,16.9,4.7,24.8,4.7c2.9,0,6.2-0.1,10.3-0.5c11.6-1,23.9-4.8,30.5-8c0-3.2-0.3-6.4-1-9.6
		c-2.1,1.2-4.4,1.8-6.8,1.7c-2.8,0-6-0.5-11.4-1.8C62,48.9,53,43.5,45,38.9c-4.3-2.6-8.5-5-11.9-6.7C20,25.7,12.6,26.7,10.7,27
		C6,34.8,3.8,44,4.4,53.2C5.3,54.4,9.8,59.9,22,64z"/>
	<path class="st1" d="M88.7,44.9L88.7,44.9c0.6-0.7,1.1-1.5,1.6-2.4c3.2-6.2,0.5-13.2-0.8-15.6c-9.2-15-26.1-23.5-43.7-21.8
		C64.1,6.1,81.9,22.5,88.7,44.9z"/>
	<path class="st1" d="M89.6,48.4c0.8,3.3,1.2,6.7,1.2,10.1l0,0c0.1-0.1,0.2-0.1,0.4-0.2c2.5-1.9,4.2-4.6,5-7.7c0-3.7-0.5-7.4-1.4-11
		c0-0.2-0.1-0.4-0.2-0.5C94.1,42.7,92.3,46,89.6,48.4z"/>
	<path class="st1" d="M92,60.9L92,60.9c-0.2,0.2-0.4,0.2-0.5,0.5c-0.3,0.1-0.5,0.3-0.7,0.5c-0.3,2.9-0.8,5.7-1.7,8.5
		c1.4-0.5,2,0.1,2.2,0.5c0,0.1,0,0.1,0.1,0.1c2.4-4.7,4-9.8,4.6-15C95.1,57.9,93.7,59.6,92,60.9z"/>
	<path class="st1" d="M90.2,72.3c-0.1-0.1-0.1-0.1-0.2-0.1c-0.4,0-0.8,0.2-1.1,0.4c-0.1,0.1-0.2,0.2-0.4,0.2
		c-0.1,0.1-0.2,0.1-0.4,0.2c-1.1,3-2.6,5.9-4.4,8.5c2.6-2.7,4.8-5.6,6.6-8.9h-0.1V72.3z"/>
	<path class="st1" d="M43.1,91.7c5-0.6,9.9-2.1,14.4-4.4c0.8-0.3,1.5-0.7,2.2-1.2c0.6-0.2,1.2-0.6,1.8-0.8c4.2-2.2,8.6-4.6,14-7.6
		c2-1,3.8-2,5.8-3.1l2.2-1.2c0.8-0.5,1.7-0.8,2.4-1.3C86,72,86,72,86.1,72c0.7-2.7,1.2-5.5,1.4-8.3c-5.4,2.6-13.4,5-25.2,7.4
		c-15,3-29.8,1.7-43-4c-8.9-3.7-13.1-8.9-14.8-11.6c0.2,2,0.6,4,1.1,6c2.9,11,9.7,20.7,19.2,27v-0.1l1.2,0.7c1.3,0.7,2.6,1.3,4,1.7
		c2.8,0.8,5.7,1.2,8.6,1.2C40.1,92,41.6,91.9,43.1,91.7z"/>
	<path class="st1" d="M84.9,75.4c-0.6,0.5-1.2,0.8-1.9,1.3c-1.7,1.2-3.5,2.2-5.2,3.2c-0.8,0.6-1.7,1.1-2.5,1.6
		c-6.1,3.8-13.6,8-21.4,10.4c-2.1,0.6-4.3,1.2-6.5,1.6c-1.8,0.3-3.7,0.5-5.5,0.5h-0.4c-2.3,0-4.5-0.2-6.7-0.6
		c8.5,3,17.7,3.4,26.5,1.3c5.1-1.3,9.9-3.4,14.3-6.2c4.3-3.5,7.6-8,9.5-13.2C85,75.3,84.9,75.3,84.9,75.4z"/>
</g>
<path class="st1" d="M68.3,59.7c0-3.4,0-8.3-4-12.1c0.5-0.7,0.8-1.5,1.1-2.4c0.6-1.8,0.8-3.7,0.7-5.6v-9.4
	c-0.1-3.5-0.6-7.1-3.5-10.2c-2.5-2.9-6.4-4.4-10.9-4.4H39.3c-1.4,0-2.7,0.6-3.7,1.6c-0.9,1-1.5,2.3-1.4,3.6l0.1,60.5
	c0,1.8,0.9,3.5,2.5,4.4c0.8,0.5,1.8,0.8,2.8,0.8h12.7c4.2,0.1,8.2-1.3,11.4-4h0.1c4.2-3.7,4.6-8.2,4.7-12.4V70L68.3,59.7z"/>
<path class="st2" d="M51.5,44.8c-1,0.4-1.6,0.4-3.8,0.5h-2.4c-0.4,0-0.5-0.1-0.5-0.5V25.4c0-0.2,0.2-0.5,0.4-0.5h0.1h3.8
	c1.7-0.1,3.4,0.2,4.9,0.8c0.5,0.3,0.9,0.8,1.1,1.4c0.3,1.1,0.5,2.1,0.5,3.2v8.2C55.5,40.4,55.4,43.6,51.5,44.8z M56,76.1
	c-1,0.7-2.2,1.1-5,1.2h-5.4c-0.4,0-0.6-0.4-0.6-0.7V52.5c0-0.1,0-0.4,0.4-0.4h2.5c2.6,0.1,5.4,0.2,7.2,1.4c1,0.6,1.8,1.6,2.2,2.8
	c0.3,1.3,0.5,2.5,0.5,3.8V69C57.8,73,57.5,74.9,56,76.1L56,76.1z M65.1,60.2c0-3.5,0-7.6-3.5-10.4c-0.8-0.7-1.7-1.2-2.6-1.6
	c1.6-1.1,2.8-2.7,3.4-4.6c0.4-1.5,0.6-3,0.6-4.6v-9.6c-0.1-2.6-0.4-5.8-2.6-8.2c-1.8-2-4.8-3.1-8.4-3.1H38.8c-0.4,0-0.8,0.2-1.1,0.5
	c-0.2,0.3-0.4,0.7-0.4,1.1v63c0,0.5,0.3,1,0.7,1.3c0.3,0.2,0.5,0.2,0.8,0.2H52c3.4,0.1,6.7-1,9.4-3.1c3.1-2.9,3.5-6.2,3.6-10.1
	L65.1,60.2z"/>
</svg>
