<?xml version="1.0" encoding="utf-8"?>
<!-- Generator: Adobe Illustrator 24.1.1, SVG Export Plug-In . SVG Version: 6.00 Build 0)  -->
<svg version="1.1"
	 id="Layer_1" xmlns:cc="http://creativecommons.org/ns#" xmlns:dc="http://purl.org/dc/elements/1.1/" xmlns:rdf="http://www.w3.org/1999/02/22-rdf-syntax-ns#"
	 xmlns="http://www.w3.org/2000/svg" xmlns:xlink="http://www.w3.org/1999/xlink" x="0px" y="0px" viewBox="0 0 103.3 93.8"
	 style="enable-background:new 0 0 103.3 93.8;" xml:space="preserve">
<style type="text/css">
	.st0{fill:#BEC0C2;}
	.st1{fill:#002D62;}
	.st2{fill:#FDBB30;}
</style>
<path class="st0" d="M20.5,1L0,93.8h40.5c0,0,4.5-18.5,4.9-20.1h17.5c13.2,0.1,23.9-4.4,31.1-12.9c13.2-14.4,11-35.4,1-47.4
	C88,4.8,77.4-0.1,66.2,0H20.7L20.5,1z"/>
<path class="st1" d="M42.5,70l-4.9,20.1h-33l19-86.3h42.5c10.1-0.2,19.7,4.3,26.1,12.1c9.5,11.4,10.4,30.4-0.9,42.6
	c-6.9,8.1-17.2,11.7-28.4,11.6L42.5,70z"/>
<path class="st2" d="M19.2,23.6h18.6c2.1,0,4.4,1.7,3.5,4.5c-0.6,1.8-1.1,3.6-1.4,5.5c-0.1,1.4,1.4,2.3,2.3,2.3h38
	c0.7,0,1.1-0.2,1.1-0.6c0-0.8-0.1-1.6-0.2-2.4c-0.1-0.8-0.2-1-0.9-1c-4.7,0-6.7-2.1-11.7-5.3c-4.9-3.2-12.2-5.1-18.5-5.1H19.5
	L19.2,23.6z"/>
<path class="st2" d="M42.2,48.1c-0.7-1.5-1.2-3.1-1.6-4.7c-0.4-1.9-2.1-3.5-5.1-3.5h-20l0.6-2.2l64.8,0.1c0.6,0,0.5,0.3,0.4,1
	c0,0.7-0.2,2-0.3,2.8c-0.1,0.9-0.7,0.6-1.3,0.6c-2-0.1-4.1,0.5-5.8,1.6c-2.6,2.1-8.4,5.7-11.6,6.6C58.9,51.4,46,55.4,42.2,48.1z"/>
<path class="st2" d="M12,56.3h33.8c1.4,0,2.7,0.4,3.8,1.1c3.1,2.4,6.7,4.2,10.5,5.2c1.7,0.6,4.8-0.1,7.5-1.6
	c6.7-3.9,11.1-11.1,12.6-15.8c0.4-1.2-0.4-1.1-1.2-1.1c-2.9,0.2-5.9,2.8-9.8,5.4c-4,2.4-12,4.9-19.6,4.9H12.5L12,56.3z"/>
<path class="st2" d="M61.7,11c1-0.2,2.1-0.1,3.1,0.1c6.5,2.6,12.5,9.2,15.1,16.3c0.5,1.4,0.6,2.2,0,2.3c-2.9,0.4-4.2-1.1-7.8-3.4
	c-3.4-2.3-7.1-4.1-11-5.3c-4.4-1.4-12.2-1.6-13.2-1.6c-1,0-0.9-0.4-0.5-0.9C51.3,14.5,56.3,11.9,61.7,11z"/>
<path class="st2" d="M92.5,35.3c0,0.3-0.3,0.6-0.6,0.6h-7.4c-0.9,0-0.9-0.4-0.9-1c-0.2-0.8-0.2-1.5-0.2-2.3c0-0.6-0.3-1.3,0.6-1.6
	c2-1,3.7-2.7,4.9-4.7c0.2-0.6,0.7-1.5,1.2-0.7C91.8,28.4,92.4,31.9,92.5,35.3z"/>
<path class="st2" d="M89.9,48.6c-0.1,0.3-0.6,0.5-0.7,0c-1.1-2.5-3-4.6-5.4-5.8c-0.5-0.3-0.5-0.6-0.5-1.2c0.1-0.5,0.3-2.2,0.4-2.9
	c0-0.6,0.3-1,0.7-1H92c0.2,0,0.6,0.3,0.6,0.4C92.5,41.8,91.5,45.4,89.9,48.6z"/>
<path class="st2" d="M69.8,63.1c-0.6,0.1-1.8-0.1,0.1-1.1c5.6-3.3,10.7-10.9,12-15.3c0.6-1.7,0.6-1.8,1.3-1.6
	c1.3,0.6,2.5,1.6,3.3,2.8c1,1.4,1.5,4.3,0.9,5C83,58.4,76.8,62.1,69.8,63.1z"/>
<path class="st2" d="M84.1,28.5c-1.3,0.7-1.6,0.5-1.9-0.4c-2.4-8.5-9.7-14.9-12.6-16.8c-0.5-0.3-0.4-0.6,0-0.5c7,1,14,4.8,17.4,10
	C89.1,23.8,85.3,27.8,84.1,28.5z"/>
</svg>
