<?xml version="1.0" encoding="utf-8"?>
<!-- Generator: Adobe Illustrator 24.1.1, SVG Export Plug-In . SVG Version: 6.00 Build 0)  -->
<svg version="1.1" id="Layer_1" xmlns="http://www.w3.org/2000/svg" xmlns:xlink="http://www.w3.org/1999/xlink" x="0px" y="0px"
	 viewBox="0 0 561.3 218.1" style="enable-background:new 0 0 561.3 218.1;" xml:space="preserve">
<style type="text/css">
	.st0{fill:#B9975A;}
	.st1{fill:#CBB283;}
	.st2{fill:#CBB284;}
	.st3{fill:#061E3E;}
	.st4{fill:#887652;}
	.st5{fill:#FEFEFE;}
	.st6{fill:#C60629;}
	.st7{fill:#FDFDFD;}
	.st8{fill:#B89759;}
	.st9{fill:#C50629;}
	.st10{fill:#B8975A;}
	.st11{fill:#C40629;}
	.st12{fill:#B79659;}
	.st13{fill:#F7F7F7;}
	.st14{fill:#F6F6F6;}
	.st15{fill:#AE092C;}
	.st16{fill:#AA0A2C;}
	.st17{fill:#B6082B;}
	.st18{fill:#990D2F;}
	.st19{fill:#4C1637;}
	.st20{fill:#441738;}
</style>
<g>
	<path class="st0" d="M275.8,217.4c-14.1-0.5-26-6.1-36.5-15.2c-7.2-6.3-13-13.6-16.6-22.6c-0.8-1.9-1.8-1.3-2.9-0.9
		c-11.8,3.9-23.9,4.9-36.2,4.1c-11.1-0.7-22.1-2.8-32.8-5.9c-2.9-0.8-5.2-1.6-1.1-4.9c-10.3-1.3-19.7-3.8-28.6-7.9
		c-2.6-1.2-5.1-2.4-7.5-3.8c-0.7-0.4-3.7-0.9-0.5-2.7c1.5-0.9,0-1.6-1-1.7c-12.2-0.9-22.4-6.4-31.9-13.5c-1.2-0.9-2.2-2-3.3-3
		c-0.4-0.3-0.9-0.8-0.9-1.1c0-2,0-2.1-2.2-2.8c-10.6-3.4-19.4-9.4-26-18.4c-0.4-0.5-1.2-1.2-1.1-1.4c2.3-3.9-1.7-3.3-3-3.9
		c-7.9-3.5-14-9.1-19.1-15.9C24,95.3,22,94,24.2,92.7c0.6-0.4-0.3-1-0.8-1.1C12.5,87.7,5.5,79.8,0.7,69.7c-0.1-0.3-0.5-0.5-0.7-0.7
		c0-0.2,0-0.5,0-0.7c9.1-5,18.1-10.3,27.5-14.8c16.7-8,33.9-15,51.4-21.2c20.7-7.3,41.8-13.4,63.2-18.4c14.6-3.4,29.3-6.5,44.2-8.6
		c13-1.9,26-3.7,39.2-4.6c6.4-0.4,12.8-1.2,19.1,0.2c8.6,1.9,13.8,11.2,11.1,19.9c3.5-1.7,6-4.7,9.6-6c0.9-0.3,2.3-2.2,2.5,0.8
		c0.1,1.5,1.3,1,2.2,0.5c3-1.5,6.1-2.6,8.8-4.5c1.7-1.2,3-1,4.3-0.1c2.1,1.6,4.4,2.7,6.8,3.6c1.4,0.6,3.1,3.3,4.4-0.5
		c0.4-1.2,2.1,0.1,2.9,0.6c2.5,1.5,4.9,3.1,7.3,4.8c2.4,1.7,0.9-0.8,1.4-1.2c-0.5-1.8-0.5-3.6,0-5.4c0.9-8.7,7.1-12.9,15.4-13.3
		c10.5-0.5,21,1,31.4,2c12.6,1.3,25,3.3,37.5,5.5c11.8,2.1,23.4,5.1,35,7.8c20.8,4.9,41.2,11.1,61.3,18.3
		c14.3,5.1,28.2,10.8,42,17.2c10.7,4.9,20.9,10.7,31.2,16.3c2,1.1,2.1,2,1.1,3.7c-4.8,8.6-10.9,15.8-20.1,19.9
		c-1.2,0.6-4.5,0.3-2.6,3.7c0.4,0.6-1.6,2.8-2.8,4c-5.6,5.9-11.2,11.8-19.6,14c-1.2,0.3-1.4,0.8-0.5,2.2c0.7,1.1-0.4,1.2-0.7,1.6
		c-4.5,6-9.8,11.2-16.4,14.7c-4.5,2.4-9.1,4.7-15.1,5.6c3.1,1.3,2.2,2.4,0.7,3.7c-9.6,8.7-20.8,14.1-33.7,15.6
		c-0.7,0.1-1.6-0.1-2,0.7c-0.6,1,0.4,1.2,0.9,1.6c1.8,1.4,0,1.8-0.8,2.2c-9.1,5-18.7,8.5-28.8,10.5c-2.3,0.5-4.6,0.7-6.9,1.1
		c-0.5,1.8,2.1,2,1.9,3.8c-15.9,4.9-32.2,7.9-48.9,7.1c-7.7-0.3-15.4-1.5-22.8-3.9c-2.9-1-3.7,0.2-4.7,2.3
		c-3.1,7.2-7.5,13.6-13.2,18.9c-11.1,10.1-23.8,16.7-39.2,17.2C282.4,217.9,279.1,217.9,275.8,217.4z"/>
	<path class="st1" d="M275.8,217.4c3.3,0,6.6,0,9.9,0c-0.1,0.2-0.1,0.5-0.1,0.7c-3.2,0-6.5,0-9.7,0
		C275.9,217.9,275.9,217.6,275.8,217.4z"/>
	<path class="st2" d="M305.9,13.4c0,1.8,0,3.6,0,5.4C304.7,17,304.7,15.2,305.9,13.4z"/>
	<path class="st3" d="M397.4,167.2c2.1,1.7,4.2,3.4,6.8,5.5c-9.7,2.5-19,3.8-28.4,4.1c-12.8,0.5-25.5-0.4-37.4-5.9
		c-2.7-1.3-2.6,0.9-3,2.2c-7.7,20.8-22.4,33.6-44.1,38c-27.3,5.6-55.4-10.8-64.6-37.4c-1-3-1.8-3.4-4.8-2.2c-12.7,5.4-26.2,6-39.7,5
		c-8-0.6-16-1.7-24.6-3.9c3-2.4,5.5-4.3,8.9-7c-16.3,1.6-30.9-1.2-45.3-8.1c3-2.3,5.6-4.2,8.1-6.2c-11.9,0.5-23.1-0.8-33.6-6.2
		c-3.9-2-7.7-4.1-11-7.6c2.9-1.5,5.5-2.9,9-4.8c-15.5-0.7-28.4-5.3-38.4-17.1c3.7-1.8,7.1-3.6,11.3-5.7c-4.8-0.5-9-0.2-13-1.2
		c-7.8-1.9-14.4-5.6-19.7-11.6c-1.8-2-2.3-3.4,0.8-4.5c2-0.7,3.8-1.9,6.2-3.1c-3.6-0.5-6.6-0.7-9.5-1.4c-9-2.1-15.9-7.4-21.7-14.4
		c-1.9-2.3-1.7-3.4,1-5c21.6-12.1,44.3-21.9,67.6-30.2c38.8-13.8,78.6-23.5,119.3-29.4c12.8-1.9,25.8-3.3,38.8-3.3c2,0,4,0,6,0.3
		c6.1,1.2,9.2,6.7,7.6,13.2c-0.8,3.2-2.5,6-4.3,8.7c-4.9,7.3-8.8,15.1-9.9,24c-1.8,14.8,3,27.3,14.1,37.2c0.3,0.2,0.6,0.4,1,0.5
		c0.1,0,0.2,0,0.4,0c0.8-1.1-0.3-1.8-0.6-2.6c-7.6-17.8-6.9-35.2,2-52.3c1.7-3.3,4.1-6.3,6.8-8.9c1.6-1.5,2.8-3.5,6.1-2.1
		c2,0.9,4.8-1.2,6.8-2.6c5.7-4.3,11-4.1,16.9-0.1c2.4,1.6,5.3,4.4,9.1,1.9c0.3-0.2,1.8,1.1,2.6,1.8c8.3,7.6,12.6,17.3,14.3,28.1
		c1.7,11,1.1,21.9-3.5,32.3c-0.8,1.7-1.8,3.4-2.4,5.2c8.5-5.8,13.6-13.9,15.8-23.8c3-13.7-1-25.9-8.4-37.3
		c-2.1-3.2-4.3-6.4-5.2-10.3c-1.7-7.3,2.1-12.7,9.6-13.2c8.1-0.5,16.2,0.1,24.3,1c51.9,5.6,102.1,18,150.9,36.5
		c18.7,7.1,36.8,15.5,54.3,25.2c3.4,1.9,2.8,3.1,0.9,5.4c-7.9,9.6-17.8,15.1-31.5,15.3c2.8,1.5,4.8,2.7,6.9,3.5
		c2.8,1.1,2.5,2.4,0.8,4.3c-8.6,9.5-19.4,13.1-32.5,12.5c2.4,2.1,5.2,2.9,7.6,4.2c3.7,2,3.7,1.9,0.7,4.9
		c-7.6,7.6-16.9,11.8-27.5,13.2c-2.3,0.3-4.6,0.5-7.7,0.9c3.2,1.7,5.7,3.1,8.3,4.6c-7.3,8.8-22.1,13.2-45.1,13.4
		c2.6,1.9,4.5,3.6,6.7,4.9c2.1,1.4,2,2.1-0.3,3.1c-8.1,3.5-16.4,6-25.2,6.8c-3.8,0.4-7.7,0.4-11.6,0.6c-1.3-0.4-2.6-0.3-3.9-0.1
		c-0.2,0-0.7-0.2-0.6,0.2C396.8,166.6,397.2,166.9,397.4,167.2z"/>
	<path class="st4" d="M397.4,167.2c-0.5-0.3-1.3-0.6-1.4-1c-0.1-0.6,0.6-0.6,1.1-0.5c1.4,0.2,2.9-0.2,4.3,0.6
		C400,166.7,398.4,165.9,397.4,167.2z"/>
	<path class="st5" d="M222.7,25.9c-12.7,0.7-24.8,2.4-36.8,4.5c-45,7.8-88.4,20.9-130.6,38.3c-6.4,2.6-12.9,5.6-20.2,3.4
		c-0.8-0.2-1.7-0.5-2.5-0.8c-0.6-0.2-1.1-0.5-2-1c10.9-5.7,21.8-10.3,32.9-14.8c43.5-17.5,88.4-30.1,134.8-37.2
		c11.8-1.8,23.7-3.4,35.7-4c1,0,2-0.1,3,0c1.9,0.1,4,0.1,5,1.9c1,1.9-0.5,3.6-1.5,5.1c-8.2,11.4-14,23.8-15,38.1
		c-1,14.6,3.9,27.2,13,38.3c2.4,2.9,5.1,5.4,7.7,8.2c0.6,0.6,2,1,0.9,2.2c-0.9,1-1.9,1.4-3.2,0.4c-4.1-2.9-8-6-11.4-9.6
		c-16.3-17.2-19.5-37.5-13.8-59.7C219.6,34.8,221.2,30.6,222.7,25.9z"/>
	<path class="st5" d="M531.3,70.2c-6.5,3.4-12.7,3.1-18.8,0.7c-18.2-7.2-36.4-14.3-55-20.3c-35.8-11.5-72.3-20.1-109.8-24.1
		c-2.7-0.3-6.3-1.7-7.9,0c-1.4,1.5,1.2,4.6,1.9,7.1c5.1,16.7,6.4,33.3-1.3,49.6c-4.9,10.4-12.6,18.5-22,25c-1.3,0.9-2.4,1.4-3.5,0
		c-1.4-1.7,0.7-2.1,1.3-2.7c10-9.7,17.6-20.7,19.7-34.8c2.5-16.2-2.6-30.5-10.9-44c-1.3-2.1-2.9-4.1-4.2-6.2
		c-2.3-3.8-1.4-5.8,3.1-6.1c3-0.2,6-0.2,9,0.1c59.1,5.7,116,20.6,170.8,43.2C513,61.5,522.1,65.4,531.3,70.2z"/>
	<path class="st0" d="M201.5,53.8c-0.1,8.6-0.1,8.6-8.4,10.4c-22,4.9-43.8,11-65.5,17.1c-8.3,2.3-16.7,2.8-25-0.2
		c-3.5-1.3-6.4-3.3-8.8-6.1c-1.8-2.1-2.1-3.2,1.1-4.3c22.8-7.5,45.8-13.9,69.2-18.9c11.7-2.5,23.5-4.7,35.4-6.3
		c2.1-0.3,3.1-0.2,2.5,2.3C201.6,49.7,201.7,51.8,201.5,53.8z"/>
	<path class="st0" d="M447.1,83.1c-9,0.2-17.4-3.1-25.9-5.4c-19.2-5.2-38.5-10.5-58-14.6c-2.1-0.4-2.9-1-2.8-3.3
		c0.1-3.8-0.2-7.7-0.6-11.6c-0.2-2.4,0.4-2.9,2.8-2.6c22.5,3.1,44.6,8,66.6,13.9c12.6,3.4,25.1,7.3,37.6,11.2c3.3,1,3.1,2.2,1.2,4.4
		C463.6,80.3,456.4,83.1,447.1,83.1z"/>
	<path class="st0" d="M114.8,96.9c9.4-3.7,18.7-6.7,28.1-9.6c18.5-5.7,37.2-10.4,56.1-14.4c2.7-0.6,4-0.3,4.5,2.9
		c0.5,3.2,1.7,6.2,2.9,9.3c0.6,1.7,0.5,2.4-1.3,2.9c-19.2,6-38.2,12.5-57.7,17.2c-10.3,2.5-20.4,0.9-29.3-5.4
		c-0.7-0.5-1.4-1.1-2.1-1.6C115.6,97.9,115.3,97.5,114.8,96.9z"/>
	<path class="st0" d="M447,97.2c-8,7.3-17.3,9.7-27.5,8.8c-8.5-0.7-16.5-3.8-24.6-6.2c-12.5-3.8-25-7.7-37.5-11.5
		c-2.2-0.7-2.7-1.4-1.7-3.6c1.4-3,2.4-6.3,2.9-9.6c0.3-1.9,1-2.8,3.2-2.3c28.6,6,56.8,13.5,84.1,23.8
		C446.1,96.6,446.3,96.7,447,97.2z"/>
	<path class="st5" d="M280.8,50.5c-1.6,5.1-0.7,9.9-1.8,14.4c-0.4,1.5-0.4,3.4-1.9,3.8c-1.9,0.5-2.5-1.6-3.4-2.9
		c-1.5-2.3-2.9-4.7-4.4-6.9c-1.4-2.1-3.4-3.6-5.8-4.6c-1.3-0.5-2.8-1-4-0.2c-1.3,1,0.1,2.2,0.2,3.3c0.2,2.2,0.1,4.5,1,6.6
		c1.2,2.9,3.2,4.7,6.4,5c4.3,0.5,5.5,2.7,4,7.5c-1.4-0.4-2-1.7-3-2.5c-2.3-2-4.5-4.6-7.5-4.7c-3.7-0.1-4.2-2.4-4.8-4.9
		c-2.1-9.6-0.7-18.6,4.7-26.8c0.9-1.4,1.6-3,4-2.1c1.1,0.4,2.3-0.8,3.3-1.5c8.6-5.3,17.2-5.3,25.8,0c1.4,0.9,2.7,2.2,4.7,1.2
		c1-0.5,1.5,0.7,1.9,1.4c6.3,9.1,7.8,18.9,4.9,29.5c-0.5,1.7-1.1,3-3.4,3c-2.7,0-4.8,1.9-6.8,3.6c-1.5,1.3-2.9,2.6-4.5,4
		c-1.5-5.3-0.5-7,4.2-7.7c3.7-0.6,5.7-2.9,6.5-6.3c0.5-1.9,0.2-4.1,0.9-5.9c1.4-3.7-0.8-3.4-3-2.8c-3.5,0.9-5.8,3.3-7.6,6.2
		c-1.5,2.4-3,4.9-4.6,7.3c-1.4,2.1-2.8,2-3.6-0.6c-1.1-3.5-1.2-7.1-1.4-10.7C281.8,54.4,282,52.7,280.8,50.5z"/>
	<path class="st0" d="M342.4,105.5c1.6-1.9,2.9-3.4,4.2-5c4.4-5.5,4.4-5.5,11.3-3.2c19.2,6.2,38.4,12.5,57.4,19.5
		c1.1,0.4,2.9,0.3,3,1.7c0.1,1.3-1.4,1.9-2.5,2.6c-7.7,4.8-16.1,4.7-24.6,2.9c-10.9-2.3-20.9-7.3-31.3-11.3
		C354.2,110.5,348.6,108,342.4,105.5z"/>
	<path class="st0" d="M162.4,125.1c-6.9-0.1-12.3-1.2-17.1-4.6c-0.8-0.6-2-1.1-1.8-2.1c0.2-1.1,1.5-1.1,2.4-1.4
		c17.7-6.4,35.5-12.3,53.4-18.2c0.6-0.2,1.2-0.4,1.8-0.6c10.7-3.4,10.7-3.4,17.1,5.6c0.9,1.2,1,1.9-0.5,2.5
		c-15.8,6.1-31,13.7-47.5,17.9C167.2,124.8,164.2,125.3,162.4,125.1z"/>
	<path class="st6" d="M276.6,83.2c0.1-2-0.1-4.1,0.4-6c0.5-1.8,2-3.8,3.8-3.6c2,0.2,3.7,1.9,4.1,4.3c0.3,2.3,0,4.7,0.9,6.9
		c1.1-0.3,0.5-2,2-2.1c0.8,5.5-0.4,10.9-0.8,16.3c-1.7,21.3-3.8,42.5-3.6,63.9c0,6.6,0.2,13.2,2.1,19.6c0.8,2.5-1.2,3.9-2,5.8
		c-0.7,1.6-1.5,3.1-2.5,5c-1.6-3-3-5.8-4.5-8.4c-0.4-0.7-0.3-1.4-0.2-2.1c3.6-14.5,2.2-29.3,1.5-43.9c-0.9-17.4-2.4-34.8-4-52.2
		c-0.1-1.1-0.1-2.4,0.4-3.3c0.5-1,0.8,0,1.1,0.5C276.5,85.1,276.1,83.3,276.6,83.2z"/>
	<path class="st0" d="M266.2,125.9c3,14.6,7.5,28.9,7.4,44c0,3.2-0.8,6.4-1.3,9.6c-0.2,1.1-0.3,2.4-2,2.1c-1.5-0.3-4-0.1-4.1-1.8
		c-1.5-15.9-11.2-29-14.9-44.1c-0.1-0.2,0-0.5,0-0.7C253.6,130.3,262,125.1,266.2,125.9z"/>
	<path class="st0" d="M310.4,134.9c-0.7,5.9-3.4,11.2-5.6,16.5c-3.7,8.8-8,17.5-8.8,27.2c-0.2,2.9-2.7,2.5-4.5,2.9
		c-2.1,0.4-1.9-1.6-2.1-2.8c-1-5.9-1.9-11.8-0.8-17.8c2.2-11.7,4.3-23.5,7-35.1c0.3-0.2,0.7-0.5,1-0.4
		C302.1,127.3,307.4,129.4,310.4,134.9z"/>
	<path class="st0" d="M175.6,133.7c7-3.2,13.8-6.4,20.7-9.5c8.7-3.9,17.5-7.7,26.3-11.7c2.4-1.1,4.1-1,6.1,0.8
		c2.1,1.8,4.5,3.1,7,4.9c-16.8,12.3-33.7,23.3-56,17.5C178.4,135.3,177,135.2,175.6,133.7z"/>
	<path class="st0" d="M385.8,133.9c-12.9,8.4-41.8,0.7-59.5-15.8c2.8-1.9,5.5-3.8,8.2-5.8c1.2-0.9,2.2-0.8,3.5-0.3
		c15.7,6.9,31.5,13.8,47,21.2C385.3,133.4,385.5,133.7,385.8,133.9z"/>
	<path class="st0" d="M245.4,141.9c3.5,8.6,7,17.2,10.4,25.8c1.1,2.9,2,5.8,2.4,9.6c-8.6-4.5-14.9-10.5-19.7-18.2
		C238.8,152.5,240.3,146.5,245.4,141.9z"/>
	<path class="st0" d="M323.1,159c-4.6,7.9-11.1,13.6-19.8,18.4c2.7-12.8,8.7-23.3,13.1-34.5c1.3-0.2,2.2,0.6,2.7,1.6
		C321.4,149,323.9,153.6,323.1,159z"/>
	<path class="st5" d="M266.2,125.9c-5.7,1.8-10.3,5.4-14.9,9c-1.9-6.9-0.7-13.3,2.6-19.5c0.4-0.8,0.8-1.6,1.4-2.2
		c1.9-2,4.5-3.8,7.1-3.5c1.5,0.2,1.3,3.3,1.7,5.2C264.8,118.6,265.5,122.2,266.2,125.9z"/>
	<path class="st5" d="M310.4,134.9c-4.4-3.8-9.2-7.2-14.8-9.1c1-4.9,2-9.7,2.9-14.6c0.4-1.9,1.1-1.9,2.8-1.3c4.5,1.5,6.8,4.9,8.3,9
		C311.4,124.1,312.1,129.5,310.4,134.9z"/>
	<path class="st7" d="M245.4,141.9c-3.1,5.4-5,11.3-6.8,17.2c-7.1-9.6-6.5-19.3-0.1-29c1.4-2.2,2.6-4.5,5.1-6.8
		C243,129.9,243.6,136,245.4,141.9z"/>
	<path class="st7" d="M323.1,159c-1.8-5.5-2.7-11.4-6.7-16c1.1-6.1,3-12,2.5-18.4c5.3,5.4,8.6,11.9,9.7,19.1
		C329.5,149.4,326,154.2,323.1,159z"/>
	<path class="st8" d="M277.3,199.8c0.7,3.2-1,3.7-3.8,3.2c-4-0.8-8-1.8-11.8-3.4c-1.6-0.7-1.8-1.3-0.7-2.7c1.1-1.3,1.9-2.9,3-4.2
		c1.2-1.3,0.1-4.7,3-4.2c3.4,0.6,7.7,0.1,8.8,5.1C276.3,195.7,277.6,197.5,277.3,199.8z"/>
	<path class="st8" d="M284.4,200.2c0-3.7,1.5-6.7,3.1-9.4c1.2-2.1,3.9-1.1,5.7-2c3.2-1.4,3.3,1.1,4.1,2.9c0.8,2,2,3.7,3.5,5.3
		c1.3,1.3,0.9,1.9-0.6,2.6c-3.9,1.6-8,2.7-12.1,3.5C285.3,203.6,283.9,202.8,284.4,200.2z"/>
	<path class="st9" d="M289.3,128.1c0.9-12.4,1.7-24.9,2.6-37.3c0.2-2.4,1.1-4.3,2.8-5.9c1-0.9,1.9-2.3,3.4-1.4
		c1.3,0.7,0.9,2.2,0.7,3.4c-1.4,6.6-2.8,13.2-4.1,19.7c-1.6,7.7-3.1,15.4-4.6,23.1C288.7,129.6,289.1,128.8,289.3,128.1z"/>
	<path class="st10" d="M319.5,184.4c-2.2,3.9-5.8,6.4-9.1,9.2c-1.1,0.9-2,0.6-2.9-0.4c-1.2-1.2-2.4-2.5-3.2-4.1
		c-1.2-2.3-1.1-3.7,1.6-4.9c6.4-2.7,11.6-7.2,16.6-11.9c1.5,1.7,0.8,3.5,0.2,5.3C321.8,180.1,320.5,182.2,319.5,184.4z"/>
	<path class="st11" d="M271.6,128.1c-2.8-13.3-5.5-26.5-8.3-39.8c-0.1-0.6-0.2-1.2-0.2-1.9c-0.1-1.2-0.6-2.7,0.9-3.2
		c1.4-0.5,2.4,0.6,3.1,1.5c1.3,1.5,2.6,3,2.7,5.2c0.8,11.9,1.6,23.8,2.4,35.7C272.4,126.6,273.3,127.7,271.6,128.1z"/>
	<path class="st0" d="M239.3,172.4c5.2,5,10.9,9.5,17.6,12.5c1.7,0.8,1.8,1.8,1.2,3.3c-0.3,0.7-0.6,1.4-1,2c-3,4.9-4,5.1-8.3,1.3
		c-2.1-1.9-4.4-3.7-5.8-6.2c-1.5-2.4-2.9-4.9-3.8-7.6C238.5,175.9,237.6,174.1,239.3,172.4z"/>
	<path class="st12" d="M207.2,145.7c7-4.7,13.2-8.9,20.4-13.7c-1.4,5.3-3,9.5-3.6,13.8c-0.1,0.9-0.9,1-1.7,1.1
		C217.5,147.6,212.7,147.6,207.2,145.7z"/>
	<path class="st12" d="M334.1,132.1c7.4,4.5,13.6,8.8,20.2,13.5c-5.4,2.2-10.4,2-15.4,1.2c-0.7-0.1-1.1-0.6-1.2-1.3
		C337.1,141.3,335.8,137.2,334.1,132.1z"/>
	<path class="st13" d="M239.3,172.4c0.2,4.5,2.5,8.5,3.7,12.8c-5.1-5.7-8-12.5-9.3-20C235.5,167.6,237.4,170,239.3,172.4z"/>
	<path class="st14" d="M319.5,184.4c0.5-4.1,3.1-7.7,3-12c1.5-1.9,3.1-3.7,4.6-5.6c0.3,0.2,0.6,0.4,0.9,0.6
		C326.6,173.9,323.7,179.4,319.5,184.4z"/>
	<path class="st15" d="M292.6,65.1c3.1-0.5,3.3-2.8,4-5.3c1.7,2,1.3,3.4,0.5,4.5C296.1,65.5,295,66.5,292.6,65.1z"/>
	<path class="st16" d="M268.6,65.5c-2,0.8-3.1,0.1-3.8-1.1c-0.6-1-1.5-2.7-0.3-3.3c1.4-0.7,1.6,0.9,1.6,2.1
		C266.2,64.5,267.9,64.2,268.6,65.5z"/>
	<path class="st17" d="M271.6,128.1c0.7-0.7,0.6-1.6,0.7-2.4c1,2.2,0.5,4.6,0.7,7c0.2,0.8-0.1,0.9-0.7,0.6
		C272,131.6,271.8,129.8,271.6,128.1z"/>
	<path class="st18" d="M289.3,128.1c0.2,0.5,0.5,1,0.7,1.5c-0.3,1.5-0.5,3.1-0.8,4.6C288.7,132.1,288.4,130,289.3,128.1z"/>
	<path class="st19" d="M276.6,83.2c0,1,0,1.9,0,3c-1.2-0.4-1.2-1.4-1.3-2.3C275.7,83.6,276.1,83.4,276.6,83.2z"/>
	<path class="st20" d="M272.3,133.3c0.2-0.2,0.5-0.4,0.7-0.6c0.6,0.6,1,1.4,0.1,1.8C272.3,134.8,272.3,133.9,272.3,133.3z"/>
</g>
</svg>
