<?xml version="1.0" encoding="utf-8"?>
<!-- Generator: Adobe Illustrator 24.1.1, SVG Export Plug-In . SVG Version: 6.00 Build 0)  -->
<svg version="1.1"
	 id="Layer_1" xmlns:cc="http://creativecommons.org/ns#" xmlns:dc="http://purl.org/dc/elements/1.1/" xmlns:rdf="http://www.w3.org/1999/02/22-rdf-syntax-ns#"
	 xmlns="http://www.w3.org/2000/svg" xmlns:xlink="http://www.w3.org/1999/xlink" x="0px" y="0px" viewBox="0 0 175.1 175.1"
	 style="enable-background:new 0 0 175.1 175.1;" xml:space="preserve">
<style type="text/css">
	.st0{fill:#231F20;}
	.st1{fill:#BD1B21;}
</style>
<circle class="st0" cx="87.6" cy="87.6" r="87.6"/>
<path class="st1" d="M115.3,164.1c0.1,0.2,0.2,0.3,0.3,0.3c0.4,0,0.9-0.1,1.3-0.2l0.8-0.4l2.4-0.9l6-2.8l1-0.5l0.5-0.2l0.6-0.4
	l1-0.6l1.2-0.7l1.6-1l2.8-2l1.4-1.1l1.9-1.4l1.8-1.3l0.8-0.6l1.2-1.1l1.2-1.2l2-2.1l2.3-2.2l2.6-3l1.4-1.9l0.5-0.7l1.6-1.9l3-4.4
	l0.8-1.4l2-4l1.1-2.2l2-4l1.1-2.4l1.2-3.7c0,0,1.4-4.9,2.1-7.6c0.1-0.3,0.1-0.6-0.1-0.8c-0.4-0.6-0.7-1.3-1.1-2
	c-0.2-0.3-0.5-0.7-0.7-1s-0.7-0.9-0.9-1.2l-0.7-0.7c-0.6-0.6-1.2-1.2-1.7-1.6c-0.3-0.1-0.5-0.3-0.7-0.5c-1.6-1.3-3.4-2.3-5.2-3.1
	c-0.8-0.3-1.6-0.6-2.4-0.9c-0.7-0.2-1.4-0.4-2.1-0.5c-0.3-0.1-0.6-0.1-0.9,0.1c-0.3,0.2-0.3,0.6-0.3,1c-0.1,1-0.1,2.1-0.2,3.2
	s-0.2,2.1-0.3,3.2c-0.1,1-0.1,1.9-0.2,2.9c-0.1,1.3-0.3,2.6-0.6,3.8c-0.4,2.3-0.9,4.7-1.4,7.1c-0.1,0.7-0.2,1.3-0.5,1.9
	c-0.4,1-0.7,2.1-0.9,3.1c-0.5,2.2-1.1,4.4-2,6.5c-0.6,1.8-1.3,3.5-2.2,5c-0.1,0.1-0.1,0.2-0.1,0.3c-0.5,1.1-0.9,2.2-1.4,3.2
	c-0.4,0.7-0.7,1.3-1,2c-0.4,0.9-0.9,1.7-1.4,2.5c-0.8,1.3-1.7,2.5-2.4,3.8c-0.5,0.9-1.1,1.8-1.7,2.6c-0.2,0.2-0.3,0.4-0.4,0.7
	c-0.4,0.7-1,1.5-1.5,2.1c-1,1.3-2.1,2.6-3.2,3.9c-0.7,0.8-1.4,1.5-2.1,2.3c-0.6,0.7-1.3,1.4-2,2.1c-0.1,0.2-0.3,0.3-0.5,0.4
	c-0.4,0.3-0.8,0.6-1.2,1c-0.8,0.9-1.7,1.7-2.7,2.3c-0.4,0.3-0.9,0.6-1.3,0.9C117.7,162.8,116.6,163.5,115.3,164.1"/>
<path class="st1" d="M168.4,100.6c0.1-0.1,0.1-0.1,0.1-0.2c0-0.2,0.1-0.4,0.1-0.6l0.6-5.1l0.3-4.8v-5.5l-0.6-5.5
	c0,0-0.7-4.9-1.2-7.4c-0.2-0.8-0.7-1.4-1.4-1.7c-0.3-0.1-0.5-0.2-0.8-0.3c-0.5-0.2-1.1-0.4-1.6-0.6c-1.2-0.3-2.4-0.7-3.6-0.9
	c-1.5-0.2-2.9-0.4-4.4-0.5c-1.2-0.1-2.4-0.2-3.6-0.2h-2.5c-0.5,0-1.1,0-1.3,0.3c-0.2,0.5-0.2,1,0,1.5c0.2,1.2,0.4,1.8,0.6,2.9
	c0.7,3.5,1.1,7,1.3,10.5c0.1,1.6,0.2,3.2,0.2,4.7v1.2c0,0.3,0.1,0.6,0.2,0.8c0.1,0.2,0.4,0.3,0.6,0.3c0.3,0.1,0.6,0.1,0.9,0.2
	s0.9,0.2,1.2,0.3c1.4,0.5,2.9,1,4.2,1.5c1,0.4,1.9,0.9,2.8,1.4c0.1,0.1,0.2,0.1,0.3,0.2c0.5,0.4,1.1,0.8,1.6,1.2
	c1.4,0.8,2.6,1.9,3.6,3.1c0.2,0.2,0.4,0.5,0.6,0.7c0.4,0.3,1,1.6,1.5,2.1C168.3,100.5,168.3,100.6,168.4,100.6"/>
<path class="st1" d="M132,42.5c0.4,0,0.9,0,1.3-0.1c0.3,0,0.5,0,0.7-0.3c0.1-0.3,0-0.5-0.2-0.7c-0.1-0.2-1-1.9-1-1.9l-0.9-1.4
	l-3.8-5.6l-0.8-0.9l-0.7-1l-1.2-1.4l-3.1-3.4l-1.3-1.3l-4.8-4.4l-3.9-3l-1.4-0.7l-4.6-2.8l-3.2-1.7l-0.6-0.3l-2.6-1L95.7,9l-0.3-0.1
	l-1.2-0.3l-0.3-0.1l-1.1-0.3l-2.3-0.4h-1.1l-2.1-0.4l-2.5-0.2l-0.9-0.1h-1.5l-2.6,0.1l-2.5,0.3h-2l-1.7,0.2l-1.8,0.4l-1.4,0.4
	l-2.2,0.4h-0.5l-2.1,0.7l-1.2,0.3l-0.7,0.4l-1.8,0.5l-0.9,0.5l-1.1,0.4l-2.7,1.1l-3.4,1.3l-1.1,0.5L49.8,16l-2.1,1.4l-1.9,1
	l-0.7,0.4L43,19.9l-0.3,0.2l-2.4,1.9l-2,1.3l-0.4,0.3l-2.2,1.8l-0.8,0.7c0,0-1.2,1-1.2,1.2l0.8-0.3c0,0,1.5-0.6,1.6-0.6h0.3l2.2-0.9
	h0.3l2.4-1l1.3-0.4l1.3-0.5l1.8-0.6l4.4-1.7h0.4l2.2-0.8l1.8-0.7l0.2,0.2l3.4,0.1l2.2,0.2h0.1l4.4,0.3l0,0l6.2,0.3V21l2.2,1.9h0.2
	l2.2,2.1L76,25l3,0.1l0.1-0.1l7.7,0.4v0.2l3.4,2h0.1l6.1,2.9v0.3l3.4-1.3l5,1.7l0.8,1.4l1.8,0.1l1.8,2h0.2l1.4,1.6v0.1h0.2l3.9,0.9
	l1.5,2.2l3.6,1.3c2,0.5,3.9,0.9,6,1.2C128.1,42.6,130,42.7,132,42.5"/>
<path class="st1" d="M166.3,65.9c-0.1-0.6-0.3-1.2-0.5-1.8l-0.2-0.6l-0.2-0.8l-0.6-1.9l-0.6-1.7l-1.9-4.2l-0.8-2l-1.1-2.4l-1.3-2.1
	l-0.3-0.6l-0.9-1.7l-0.8-1.3l-0.3-0.4l-5.6-7.5c0,0-0.5-0.6-0.8-0.9c-0.1-0.2-0.2-0.3-0.3-0.3l0,0c0,0-1.7,2.7-2.4,3.5
	s-2.1,2.1-2.1,2.1s-1.2,1-1.4,1.1c-0.4,0.3-0.7,0.5-1.1,0.7l-1.2,0.7c0,0-0.9,0.4-1.1,0.5s-0.3,0.1-0.4,0.2s-0.1,0.2-0.1,0.4
	s0.1,0.3,0.2,0.5c0.5,1.1,1,2.1,1.5,3.2c0.8,1.6,1.5,3.2,2,4.8c0.2,0.5,0.4,1.1,0.6,1.6c0.5,1.4,0.9,2.8,1.3,4.2
	c0.2,0.6,0.4,1.2,0.6,1.9c0.2,0.6,0.3,1.3,0.5,1.9c0.1,0.4,0.4,0.6,0.8,0.6h1.2c1.5,0,2.9-0.1,4.4-0.1c0.4,0,3.3,0.3,3.3,0.3
	s1,0.1,1.5,0.2c1.1,0.2,2.2,0.5,3.3,0.7c0.9,0.2,1.9,0.5,2.7,0.9c0.4,0.2,0.9,0.3,1.3,0.4c0.1,0,0.3,0.1,0.4,0.1
	C166.2,66.1,166.3,66,166.3,65.9"/>
<path class="st1" d="M147,33.1c-0.1-0.3-0.2-0.6-0.4-0.8l-0.3-0.5l-0.8-0.9L145,30l-1-1l-0.3-0.3c-1.7-1.4-5.2-4.2-5.2-4.2l-1-0.8
	l-1.8-1.6l-9.1-5.5l-7.2-3.4l-3.8-1.5l-1.4-0.5l-4.7-1.6l-3.3-0.8L102.8,8h-0.5L102,8.3l0.1,0.1c0.2,0.1,0.3,0.2,0.5,0.2l3,1.2
	c0.6,0.3,1.3,0.6,1.9,0.8c0.5,0.1,0.9,0.3,1.3,0.5l4.5,2.7c0.9,0.5,1.8,1.2,2.5,1.9c0.6,0.6,1.2,1,1.9,1.4c0.3,0.2,0.6,0.5,0.9,0.7
	c0.2,0.1,0.3,0.3,0.5,0.4c0.9,0.7,1.8,1.4,2.6,2.2c0.8,0.9,1.7,1.8,2.6,2.6c0.9,0.8,1.7,1.7,2.4,2.6c0.6,0.8,1.2,1.5,1.9,2.2
	c1.3,1.3,2.3,2.8,3.5,4.2c0.1,0.2,0.2,0.4,0.4,0.6c0.8,1.2,1.5,2.5,2.4,3.6c0.6,0.8,1.2,1.6,1.7,2.5c0.3,0.6,0.6,1.1,1,1.6
	c0.2,0.2,0.4,0.4,0.7,0.4c0.2,0,0.4-0.1,0.5-0.2l0.6-0.3c0,0,0.8-0.4,1.1-0.5c0.4-0.2,0.8-0.4,1.1-0.6c0.2-0.2,1.1-0.8,1.5-1.2
	c0.5-0.5,1-1,1.4-1.6l0.7-0.9l1.2-2C146.9,33.5,147,33.3,147,33.1"/>
<path class="st1" d="M143.2,63.3c-0.5-1.5-0.9-2.9-1.4-4.4c-0.4-1.2-0.8-2.4-1.3-3.6c-0.3-0.7-0.5-1.5-0.8-2.2
	c-0.1-0.4-0.3-0.7-0.4-1.1c-0.7-1.8-1.6-3.5-2.5-5.2c0-0.1-0.1-0.2-0.2-0.3c-0.1-0.2-0.2-0.3-0.4-0.4c-0.2-0.1-0.4,0-0.8,0
	c-0.8,0.1-1.7,0.2-2.1,0.2s-1.9,0.1-3.1,0.2l-0.3-0.1h-1.5l-3.9-0.5c-1.4-0.2-4.7-1-4.7-1l-2.4-0.8l-2.9-1l-0.2,0.1l-4.6-0.4
	l-0.1,0.1l-2.6-2h-0.3l-1.6-1.5l-0.1-0.3l-1.8-0.3l-0.2,0.1l-1.5-0.5l-0.2-0.2l-3.4,0.2L94.4,37l-10.7,0.6l-0.2-0.1l-2,0.1l-0.2,0.2
	L76,38.2l-0.1-0.1l-7.5,4.3l-0.1,0.3L68,43.1l-0.2-0.1l-3.7-0.4l-0.2,0.1h-6.7l-0.1-0.1l-1.9-0.1l-0.6-0.3l-7,5.5v0.1l-2.4,1.9
	l-2.7-1.3l-0.2,0.1l-1-0.3c0,0-5,1.3-4.9,1.3l-4.7-0.7l-0.3-0.3l-0.9,0.9l-1.9,0.9v0.2l-3.7,2.8l-5.3,3.8l-6.1,4.4l-2.7,2l-0.1,1.1
	l-1.1,2.6l-0.5,2.2L8.2,74l-0.4,2l-0.2,2.4l-0.6,4.9L6.6,94.3l0.3,0.6l0.2,3c0,0,0,0.5,0.2,0.5l0,0l13.3-13.7L25,83l3.6-0.2l2.2-2.5
	l0.2-0.5l0.3,0.1l6-0.7l0.3-0.2h2.2l0.3,0.1l0.7-0.9l2.7-1.6l2.8-2l8.1,0.1l0.1,0.2l3.1,0.3l2.4-0.5l4.5-4.6h0.1l3.6-3.4l5.3-0.7
	l0.2-0.1l0.2,0.2l2.8,1.3l0.2-0.2l2.5-0.3l0.1-0.1l2.3-0.4l0.2-0.1l2.5,2.1l0.1-0.2l5.2-0.1l0.4-0.3l4.1,0.2L95,68l0.6-0.2l0.1-0.2
	l1.7-0.7h0.2l1.9-0.9l0.2-0.2l2-0.8l0.1-0.2l5.7-2.2v-0.1l1-0.3l0.2-0.2l0.3,0.3l1.6,0.8h0.5l1.8,1l0.1-0.2l0.6-0.3h0.1l0.9-0.4V63
	l1.3-0.3l3.4,0.9l0.7-0.2l0.6,0.4l2.5,0.4l2.4,0.9l1.4-0.1l0.5,0.3l0.4-0.2c0,0,4.8-0.6,7.3-0.8c1.6-0.1,3.1-0.3,4.7-0.4
	c0.9-0.1,1.8-0.2,2.6-0.3C143.2,64.1,143.4,63.9,143.2,63.3"/>
<path class="st1" d="M146.7,88.1c0-0.3-0.1-0.5-0.1-0.9c-0.1-0.9-0.1-1.9-0.1-2.8c0-0.3-0.1-0.6-0.1-0.9c-0.1-1.1-0.1-2.3-0.2-3.4
	c-0.1-1.5-0.4-2.9-0.6-4.3c-0.2-1.1-0.4-2.2-0.6-3.3c-0.2-1.2-0.4-2.2-0.7-3.4s-0.5-1.3-1.7-1.2c-0.1,0-0.2,0-0.3,0.1
	c-0.4,0.1-1.1,0.1-1.5,0.2c-2.3,0.3-4.5,0.4-7,0.7l-6.8,2.3l-9.8-0.3l-1.1-0.3v0.2l-2.9,2.1h-0.4l-2.3,2.1l-0.1,0.3l-5.9,0.8
	l-5.3,4.1h-0.6l-2.8,1.7l-1.1,0.1l-1.1,0.9l-0.3-0.2l-5.5-0.4l-0.9,1.1v0.2l-4.7,5.1L82,89h-0.2l-6.1,6.9h-1.6L74.1,96l-4.9,0.8
	h-0.4l-0.1,0.2l-8.2,4.5l-3.6-0.4l-0.8,0.3l-3.6-0.2l-3.6,3.9l-2.1,0.4l-1.2-0.1l-1.3,0.5l-0.8-0.1v0.2l-4.4,3.4l-0.4,0.1l-7,5.5
	l0.1,0.3l-4.3,10.5l0.2,0.4l-7.2,0.6l-2.3,2l-0.2,0.8l3.2,4.4l2.3,3.6l2,2.6l3.3,3.6c0,0.1,0,0.2,0.1,0.3c0.1,0,0.4,0,0.4,0.1l2,0.7
	l2.4,0.8c0,0.1,0,0.1,0.1,0.1c0,0,0,0,0,0h0.2l4,1.6h0.3l0.2,0.3h0.4l0.9,0.6l1.7-0.9h0.1l0.8-0.5l6.2,1.5l4.5-2.3l10-1l4.1-6.6
	L69,137h0.2l1.4-1.3v-0.2l2.5-2.3l1.2-1.2l0.3-0.2l1.4-1.4l1.1-1.1l0.3-0.1l-0.3-1l1.1-4.2l2.2-0.7l0.1-0.1l0.7-0.1v-0.4l3-4.8
	l0.3-0.1l1.2-2.4l2-1.1l0.3-0.3l0.4,0.1l1.2-0.7h0.1l2.2-1l0.2-0.3l7.4-3.3h0.4l0.1-0.4l0.3-0.2l0.7-2.5l2.3-1l2.7-0.3l2.4-1.7
	l3.4,0.1l0.3,0.3l0.2-0.2l4.8-2.1v-0.6l1.2-2.2l2.4-0.6l0.1-0.2l3.2-0.7l1.2-1.5h0.2c0.2-0.3,0.5-0.5,0.8-0.7l2.2,0.3l0.1,0.1
	l1.2,0.2l0.8,0.1c0,0,3.3-1.5,4.6-2.1c0.6-0.2,1.1-0.4,1.7-0.6c0.8-0.3,1.5-0.5,2.3-0.8c0.4-0.1,0.8-0.2,1.1-0.3l1.5-0.3l1.8-0.3
	l1.1-0.1c0.2,0,0.5-0.1,0.7-0.1c0.3,0,0.5,0,0.7-0.2c0.2-0.2,0.2-0.4,0.3-0.6C146.8,88.8,146.7,88.4,146.7,88.1"/>
<path class="st1" d="M146.6,94.5c0-0.3,0-0.6-0.2-0.9c-0.2-0.2-0.4-0.3-0.6-0.3c-0.2,0-1,0.1-1,0.1l-1.4,0.2c-0.2,0-0.3,0-0.5,0.1
	c-0.8,0.2-1.7,0.4-2.5,0.6c-0.9,0.2-1.8,0.5-2.7,0.9c-0.9,0.4-2,0.7-2.9,1.2c-0.3,0.2-3.5,1.7-4.9,2.4l-1.8,1.9l-0.1,0.4l-0.2-0.1
	l-1.1,0.1l-0.1,0.1l-3.7,1.2v0.4l-0.4,0.4v0.2l-1.7,3h-0.2v0.3c-0.3,0.4-0.5,0.8-0.7,1.2l-7.9,5h-0.2l-1.2,1l-0.8,3.3l-0.8,0.7
	l-3,11.4l0.4,1.3l-4.5,2.2h-0.7L100,137l-0.1,0.1l-1.1,3.6l0.1,0.2l-0.5,3.1l-0.2,0.2l0.1,0.3l-4.3,7l-0.3,0.1l-1.1,1.7v0.3
	l-3.7,5.2l-3.9,2.3l0.2,0.3l-0.2,1.6l0.3,0.6l-0.6,0.2l-2.8,1.7l-0.3-0.1l-4.2,2.5l-0.5,0.8c0.5,0.1,1.1,0.2,1.6,0.2l2.7,0.2
	l1.8,0.1h6.4l5.9-0.7l3.5-0.6l2.6-0.7l2.8-0.8l3.6-1.4l0.3-0.2l1-0.6c1.5-0.8,2.9-1.6,4.2-2.5c2.2-1.7,4.5-3.4,6.7-5.3
	c0.7-0.7,1.4-1.3,2.1-2c0.7-0.6,1.3-1.3,2-2c0.1-0.1,0.3-0.2,0.3-0.4c0.2-0.5,0.6-0.9,1-1.3c0.3-0.3,0.6-0.6,0.8-0.9
	c0.5-0.7,1.1-1.3,1.7-1.8c0.5-0.5,0.9-1,1.3-1.5c0.7-1,1.3-2,2-3c0.9-1.3,1.8-2.6,2.6-4c0.8-1.5,1.6-3,2.4-4.4
	c0.7-1.2,1.4-2.5,2-3.8c0.9-2.2,1.9-4.3,2.7-6.7c0.9-2.4,1.6-4.8,2.2-7.3c0.5-1.8,0.8-3.7,1.4-5.5c0.1-0.2,0.1-0.5,0.2-0.7
	c0.3-1.5,0.5-3,0.7-4.4s0.4-2.8,0.6-4.2c0.1-1,0.3-1.9,0.4-2.9c0.1-1.3,0.2-2.7,0.2-4V95C146.7,94.9,146.7,94.7,146.6,94.5"/>
</svg>
