<?xml version="1.0" encoding="utf-8"?>
<!-- Generator: Adobe Illustrator 24.1.1, SVG Export Plug-In . SVG Version: 6.00 Build 0)  -->
<svg version="1.1"
	 id="Layer_1" xmlns:cc="http://creativecommons.org/ns#" xmlns:dc="http://purl.org/dc/elements/1.1/" xmlns:rdf="http://www.w3.org/1999/02/22-rdf-syntax-ns#"
	 xmlns="http://www.w3.org/2000/svg" xmlns:xlink="http://www.w3.org/1999/xlink" x="0px" y="0px" viewBox="0 0 224 297"
	 style="enable-background:new 0 0 224 297;" xml:space="preserve">
<style type="text/css">
	.st0{fill:#000000;}
	.st1{fill:#CE1141;}
</style>
<path class="st0" d="M150.4,138l0.3-26.6c0-12.4-13-14.5-22.6-14.4c6.4-2.2,14.1-5.7,19.7-11.8c5.9-5.4,10.1-13.1,9.3-23.8
	c-1.2-18-23.8-27-61.1-23.4c-0.6,0.1-1.2,0.1-1.8,0.2c-1.6-13-4.5-25.8-8.6-38.1l-1.8,1.8c-4.3,12.8-7.5,25.8-9.7,39.1
	c-12.8,2.1-25.5,5.1-37.9,8.9l-1.8,1.8c0,0,18-1.6,38.5-1.4c-2.3,23.4,0.1,45.6,0,87.4c-33.2-1-62.3,4.5-69.4,13.5
	c-2.3,1.9-3.6,4.1-3.5,6.3c0.4,10.1,30.6,19.5,72.9,23.1l1.8,57.6l1.8-1.8l3-39.1c0-0.6,0.1-1.1,0.2-1.7c0.9,0.2,1.8,1.3,1.8,3.3
	l1.3,51.5l1.8-1.8l3.2-41.9c0-0.8,0.1-1.6,0.2-2.3c0.9,0.2,1.8,1.4,1.7,3.8l1.4,53.6l1.8-1.8l2.6-78c4.9,0.2,9.8,0.2,14.9,0.2
	c5.3,0,10.6-0.1,15.8-0.2l2.6,81.4l1.8-1.8l2.2-42.6c0-0.7,0.1-1.5,0.2-2.2c0.8,0.2,1.6,1.4,1.6,3.7l2.2,59.8l1.8-1.8l2.2-51.6
	c0-0.6,0.1-1.2,0.3-1.8c1,0,2.2,1.3,2.2,3.8l1.8,68.4l1.8-1.8l2.7-114.6c36.2-3.2,63.8-10.5,70.6-18.9c2.2-1.9,3.5-3.9,3.5-5.9
	C223.5,144.7,189.9,136.1,150.4,138 M72.6,168.7c-29-2.8-48.7-8.7-48.7-16.1c0-0.6,0.2-1.1,0.5-1.6c6.8-4.8,27.7-7.8,48.6-10.9
	c0,8.2-0.2,17.2-0.4,27V168.7z M131.8,68.6c1.1,8.2-1.3,14.4-5.5,19.1c-7.6,6.9-19.5,10-29.1,11.4c0.2-15.5-0.1-31.6-1.4-47.4
	C114.4,53.8,130.5,58.5,131.8,68.6 M126.3,170.3c-4.5,0.2-9.2,0.2-14,0.2c-5.6,0-11.1-0.1-16.4-0.3l0.2-6.6
	c-0.5-16.8,0.6-37.8,0.9-60.3c13.6,1.6,30,5.4,29.8,15L126.3,170.3z M198.6,157.3c-6.8,5.3-24.7,9.5-48.5,11.6l0.3-28.6
	c27.2,3.5,49.3,7.5,49.3,14C199.7,155.5,199.3,156.5,198.6,157.3"/>
<path class="st1" d="M224,155.9c-0.5-11.2-34.1-19.8-73.6-17.9l0.3-26.6c-0.1-16.4-22.6-14.8-30.2-13.8c8.9-1.6,38.5-9,36.6-36.1
	c-1.2-18-23.8-27-61.1-23.4c-0.6,0.1-1.2,0.1-1.8,0.2c-1.6-13-4.5-25.8-8.6-38.1c-5.2,16.1-8.2,28.8-9.9,40.6
	C62.4,42.9,49.2,46,36.2,50c0,0,18-1.6,38.5-1.4c-2.3,23.7,0.1,46.2,0,89.4c-39.3-1.4-73.3,6.2-72.9,17.9
	C2.2,166,32.4,175.4,74.8,179l1.8,57.6l3-39.1c0.1-4.9,3.8-4.4,3.8-0.2l1.4,51.5l3.2-41.9c-0.1-5.7,3.9-5.3,3.8-0.3l1.4,53.6
	l2.6-79.9c5.4,0.2,11,0.3,16.7,0.3c5.3,0,10.6-0.1,15.8-0.2l2.6,81.4l2.2-42.6c0-5.4,3.7-5.2,3.7-0.3l2.2,59.8l2.2-51.6
	c0.2-5.1,4.2-4.9,4.3,0l1.8,68.4l2.7-116.2V179C192.9,175.4,224,166,224,155.9 M133.6,66.8c3,22.5-19.9,29.9-36.5,32.4
	c0.3-16.5-0.2-33-1.6-49.5C115.1,51.6,132.2,56.3,133.6,66.8 M23.9,152.6c0-6.9,25.5-10.5,50.9-14.4c0,8.2-0.2,17.2-0.4,27l0.1,3.8
	C44.4,166.1,23.9,160.1,23.9,152.6 M96,170.2l0.2-6.6c-0.5-17.3,0.6-39.1,0.9-62.3c13.9,1.4,31.8,5.2,31.5,15.2l-0.5,53.8
	c-5.1,0.2-10.4,0.2-15.8,0.2C106.8,170.4,101.3,170.3,96,170.2 M150.1,168.9l0.4-30.6c28,3.6,51.1,7.7,51.1,14.3
	C201.5,160.1,180.5,166.2,150.1,168.9"/>
</svg>
