<?xml version="1.0" encoding="utf-8"?>
<!-- Generator: Adobe Illustrator 24.1.1, SVG Export Plug-In . SVG Version: 6.00 Build 0)  -->
<svg version="1.1"
	 id="Layer_1" xmlns:cc="http://creativecommons.org/ns#" xmlns:dc="http://purl.org/dc/elements/1.1/" xmlns:rdf="http://www.w3.org/1999/02/22-rdf-syntax-ns#"
	 xmlns="http://www.w3.org/2000/svg" xmlns:xlink="http://www.w3.org/1999/xlink" x="0px" y="0px" viewBox="0 0 112.7 137.1"
	 style="enable-background:new 0 0 112.7 137.1;" xml:space="preserve">
<style type="text/css">
	.st0{fill:#FFFFFF;}
	.st1{fill:#C4CED4;}
	.st2{fill:#000000;}
</style>
<path class="st0" d="M29.1,74.5h8.4l-2.5,6.4L29.1,74.5z M19,103.1L5.6,122.9l22-7.2l8.9,21.4l6.7-23l24.7,6.4l-16-18.5L71.1,86
	L54,87.1l11.3-12.7h22.1l25.3-44.8V0h-18l-8.6,15.3l-1.6,11.5L71.7,49.7H59.8l11.6-20.5V0.1H52.8l-8.3,15.2L43,26.9L22.8,63l3.1,8
	L22,66.8l1.6,21.8L0,89.6L19,103.1z"/>
<polygon class="st2" points="45.7,27.9 25.8,63.3 29.1,71.6 41.5,71.6 35.8,85.9 25.3,74.4 26.5,91.3 8.2,92.1 22.8,102.3 12.4,117.7 
	29.1,112.3 36,128.9 41.3,110.8 59.9,115.5 47.8,101.6 62.6,89.4 47.3,90.4 63.9,71.6 85.7,71.6 109.8,28.9 109.8,2.9 96.2,2.9 
	88.4,16.7 87.1,27.9 73.1,52.8 54.9,52.8 68.5,28.7 68.5,3 54.4,3 46.9,16.7 "/>
<polygon class="st1" points="104.7,6.8 98.4,6.8 93.5,15.3 100.1,15.3 "/>
<polygon class="st1" points="63.5,6.8 56.7,6.8 51.9,15.3 59.1,15.3 "/>
<polygon class="st1" points="50.7,61.5 36.5,93.9 30.1,87 30.8,95.7 21.2,96.1 28.8,101.5 23.5,109.5 32.2,106.6 35.8,115.2 
	38.4,105.8 48.2,108.3 41.9,101.1 49.6,94.7 38.8,95.4 38,95.4 60.4,61.6 79.8,61.6 97.1,30.9 90.4,30.9 75.9,56.2 41.1,56.2 
	55.7,30.9 48.9,30.9 31.3,61.6 50.7,61.6 "/>
<polygon class="st1" points="57.3,18.9 51,18.9 50.2,26.3 56.7,26.3 "/>
<polygon class="st1" points="98.7,18.9 92.5,18.9 91.7,26.3 98,26.3 "/>
<path class="st2" d="M33.5,103.5c1.5,0,2.8-1.2,2.9-2.7c0,0,0-0.1,0-0.1c0-1.6-1.3-2.8-2.8-2.9l0,0c0,0,0,0,0,0c-1.6,0-2.8,1.4-2.8,2.9
	C30.7,102.3,32,103.5,33.5,103.5z"/>
</svg>
