<?xml version="1.0" encoding="utf-8"?>
<!-- Generator: Adobe Illustrator 24.1.1, SVG Export Plug-In . SVG Version: 6.00 Build 0)  -->
<svg version="1.1"
	 id="Layer_1" xmlns:cc="http://creativecommons.org/ns#" xmlns:dc="http://purl.org/dc/elements/1.1/" xmlns:rdf="http://www.w3.org/1999/02/22-rdf-syntax-ns#"
	 xmlns="http://www.w3.org/2000/svg" xmlns:xlink="http://www.w3.org/1999/xlink" x="0px" y="0px" viewBox="0 0 181.7 148.8"
	 style="enable-background:new 0 0 181.7 148.8;" xml:space="preserve">
<style type="text/css">
	.st0{fill:#F9A01B;}
	.st1{fill:#E56020;}
	.st2{fill:#000000;}
</style>
<polygon class="st0" points="0,148.8 87.5,100.9 28.1,148.8 100.2,107.4 99,115.8 111,109.1 138.1,134.8 152.5,91.3 173.4,90 
	162.8,63.7 181.7,49 157.2,39.4 163.4,13.1 142.7,22.6 131.9,0 115.2,16.6 85.2,3.1 81.1,29.9 54.4,35.8 70.2,45.2 54.2,53.3 
	67.8,54.5 12.1,97.7 68.2,67.9 8.2,113.6 72,80.4 3.7,131.6 79,91.6 "/>
<path class="st1" d="M160.1,64.1c-1,24-21.3,42.7-45.4,41.6c-24-1-42.7-21.3-41.6-45.4c1-24,21.3-42.6,45.2-41.6
	C142.4,19.7,161.1,40,160.1,64.1z"/>
<path class="st2" d="M160.1,62.8c0.1-1.5,0-3-0.1-4.6c-2.7-1.9-5.8-3.2-9-3.6c-0.7,0-1.3-0.1-2-0.1c-0.4-2.9-1-5.7-1.9-8.5
	c0.4,0.1,0.9,0.1,1.3,0.1c3.1,0.2,6.1,0.6,9.1,1.1c-0.4-1.1-0.9-2.3-1.4-3.4c-3.2-0.5-6.7-0.8-10.2-1.1l0,0c-1.1-2.8-2.4-5.6-4-8.2
	c2.2-0.4,4.2-1.4,5.8-2.9c-0.8-0.8-1.7-1.6-2.5-2.4c-1.5,1.3-3.3,2.1-5.3,2.3c-0.4-0.5-0.7-1-1-1.3c-2.9-3.8-6.3-7.1-10.2-9.8
	c-3.4-1-6.8-1.6-10.3-1.7h-0.5c6.8,2.7,12.7,7.2,17.3,12.8c-5.1-0.7-10.1-1.9-15-3.5c-1.6-0.5-3-0.8-4.4-1.3
	C109,24.8,102,24,95,24.4c-3.8,2.2-7.2,4.9-10.2,8c5.5-2.3,16.6-6.1,30-2.4c1.4,0.4,2.9,0.7,4.4,1.2c5.9,1.8,12.6,3.7,18.4,3.7
	c1.5,2.4,2.9,4.9,4.1,7.6c-1.1-0.1-2.2-0.1-3.4-0.1c-28.1-0.5-52,7.8-65.3,21.2c0,2.6,0.3,5.2,0.8,7.8C77.6,66,83.3,61.1,90.5,57
	c13.4-7.6,31.4-11.5,50.5-11.3c0.7,0,1.3,0.1,2,0.1c1,2.8,1.7,5.6,2.2,8.5c-12.4,0.6-20.3,8.2-29.5,16.4
	c-8.2,7.3-18.2,14.6-32.9,19.1c1.4,1.7,2.9,3.2,4.6,4.7c13.8-5.5,22.9-14.2,30.7-21.1c8.9-7.9,16.4-15.5,27.5-15.8
	c0.4,3.1,0.4,6.3,0,9.4c-1.4,17-11.4,31.6-24.8,38.8c3.4-0.3,6.7-1.1,10-2.2c1.1-1,2.2-1.9,3.1-2.9c9-8.9,14.5-20.7,15.5-33.4
	c0.4-3.2,0.4-6.4,0-9.6c0.6,0.1,1.2,0.1,1.7,0.2C154.4,58.5,157.6,60.2,160.1,62.8z"/>
</svg>
