<?xml version="1.0" encoding="utf-8"?>
<!-- Generator: Adobe Illustrator 24.1.1, SVG Export Plug-In . SVG Version: 6.00 Build 0)  -->
<svg version="1.1"
	 id="Layer_1" xmlns:cc="http://creativecommons.org/ns#" xmlns:dc="http://purl.org/dc/elements/1.1/" xmlns:rdf="http://www.w3.org/1999/02/22-rdf-syntax-ns#"
	 xmlns="http://www.w3.org/2000/svg" xmlns:xlink="http://www.w3.org/1999/xlink" x="0px" y="0px" viewBox="0 0 245.4 141.4"
	 style="enable-background:new 0 0 245.4 141.4;" xml:space="preserve">
<style type="text/css">
	.st0{fill:#007AC1;}
	.st1{fill:#F05133;}
	.st2{fill:#FFFFFF;}
	.st3{fill:#FDBB30;}
	.st4{fill:#002D62;}
</style>
<path class="st0" d="M12.6,141.4C27.7,128,44,115.9,61.1,105.2c3.4-1.7,6.7-3.4,10.1-5c1.3-0.6,4.1-1.9,7.4-3.6
	c2.4,2.6,4.7,5.2,7.2,7.6C60.2,116,35.8,128.5,12.6,141.4z M194.9,50.3c16.6-3.7,33.5-6.3,50.5-7.7c-18.1,5.5-36.6,11.6-55.2,18.5
	C191.9,57.6,193.3,54,194.9,50.3z"/>
<path class="st1" d="M0,90.8c17.6-11.1,36.1-20.7,55.3-28.7c0.6,1.3,1.3,2.6,2,4c-1.1,2.2-2.2,4.4-3.2,6.6
	C35.5,78.5,17.4,84.5,0,90.8z M202,29c14.4-0.6,28.9-0.4,43.3,0.6c-15,2.2-30.2,4.6-45.7,7.4C200.4,34.4,201.2,31.8,202,29z"/>
<path class="st2" d="M122.6,5.2c28.2,0,50.3,6.6,75.4,19.1c-12.2,46-34.7,77-75.4,102.1c-15.2-9.5-28.3-20-39.1-32
	c4.8-2.3,10.2-4.9,15-7.1c2,0.1,3.8,0.2,5.6,0.2c0,2.2-0.9,4.4-2.4,6c0.8,1,1.6,1.8,2.4,2.6c2.2-1.9,3.5-4.7,3.6-8.6
	c4.8,0,9.5-0.5,14.2-1.6c-0.1,7.3-1.2,12.6-3.2,14.8c-0.1,0-0.1,0.1-0.1,0.1c0,0,0,0,0,0c-0.4,0.5-0.9,0.9-1.4,1.3
	c2-0.4,4.1-0.8,5.9-1.3c2.5-5.2,2.5-14.2,2.5-15.7c4.7-1.2,8.8-2.4,12.5-3.6c0.1,4.2,1.9,8.2,5.2,9.7c1.4-1.1,2.8-2.2,4.2-3.2
	c-0.8,0.1-5.9,0.5-5.8-7.7c10.8-4.2,17.9-9,24.1-16.4c1.7-3.7,2.9-7.6,3.8-11.6c-7.4,11.8-14.2,18.6-27.6,24
	c0.5-2.9,1.2-5.7,2.2-8.5c4-1.7,8-3.6,10.4-4.7l5.9-6.1c1.6-5.6,2.9-11.3,4.3-17l-4.6,1.4l5.4-5.6c1.2-4.4,2.3-8.9,3.4-13.3
	c-2.6,0.4-5.4,0.8-8,1.2c0.5-2.3,0.7-4.4,1-6.6c-1.3-0.2-2.6-0.7-4-0.8c-0.3,2.7-0.8,5.5-1.4,8.2l-0.4,0.1c-2.7,0.4-5.2,1.5-7.3,3.1
	l0.7-2.2c-4.3,0.7-8.6,1.6-13,2.4l-4.3,4.6l0.1-0.5l1.4-3.6c-4.2,1-8.5,1.8-12.8,2.8c-0.8-5.8-1.8-10.9-2.5-15.1l-3.6,0.4
	c0.7,4.3,1.7,9.6,2.6,15.5l-3,0.7l-3.8,4.1c-2.6-2.9-8.2-1.1-11.6-0.2c-3.7,1-7.4,2-11.2,3c-1.1,0.2-2.2,0.6-3.2,1
	c-2.9-4-5.4-8.2-7.7-12.6l-0.4-0.8c-1.1,0.5-2.2,0.8-3.4,1.4l0.5,1c2.1,4.3,4.6,8.5,7.3,12.5c-4.1,1.8-7.9,4.5-10.9,7.8
	c0,0-5.3,5.4-5.9,6.1c-1.3,1.5-2.5,3.2-3.5,4.9C55,48.9,50.6,36.8,47.5,24.2C72.4,11.8,94.4,5.2,122.6,5.2z M125.4,74.9
	c2.6-1.1,5.2-2.3,7.8-3.4l1.2-1.3c0.6,0.1,1.2,0.1,1.8,0.1c1.2-0.2,2.4-0.5,3.6-1c-0.8,2.7-1.3,5.5-1.7,8.3
	c-3.6,1.3-7.8,2.6-12.5,3.8C125.5,79.2,125.5,77.2,125.4,74.9L125.4,74.9z M107.4,83l2.5-1.2l6.2-5l1.4-3.7c0.8,1.8,1.3,2.5,2.3,4.3
	l2-1v5.8c-4.7,1.1-9.6,1.7-14.4,1.7L107.4,83z"/>
<path class="st1" d="M137.9,14.6c5.9,0,11.8,0.3,17.6,1c4.4,0.9,8.8,2,13.1,3.4c1.7,5.9,2.5,12.1,2.5,18.2c0,5.1-0.6,10.2-1.7,15.1
	c-7.4,11.8-14.3,18.5-27.6,23.9c0.5-2.9,1.2-5.7,2.2-8.5c4-1.7,7.9-3.6,10.4-4.6l5.9-6.1c1.4-5.8,2.9-11.4,4.3-17l-4.6,1.4l5.4-5.6
	c1.1-4.4,2.3-8.9,3.4-13.3c-2.6,0.4-5.4,0.8-8,1.2c0.4-2.3,0.7-4.4,1-6.6c-1.3-0.4-2.6-0.7-4-1c-0.3,2.8-0.8,5.6-1.4,8.3l-0.4,0.1
	c-2.7,0.3-5.3,1.4-7.4,3.1l0.8-2.2c-4.4,0.7-8.6,1.6-13.1,2.4l-4.2,4.4l0.1-0.4l1.4-3.6c-4.3,1-8.5,1.8-12.8,2.8
	c-0.8-5.9-1.8-11-2.5-15.2C124.8,15,131.3,14.6,137.9,14.6z M165.6,64c-4.2,9.3-10.4,17.6-18.2,24.1c-0.8,0.1-6,0.5-5.9-7.7
	C152.3,76.2,159.4,71.3,165.6,64L165.6,64z M143,91.3c-6.1,4.3-12.9,7.6-20,9.6c2.4-5.2,2.5-14.2,2.5-15.7c4.6-1.2,8.6-2.4,12.5-3.6
	C138.1,85.8,139.8,89.9,143,91.3L143,91.3z M117.1,102.2c-2,0.4-4.2,0.6-6.2,0.8c-2.3-2.3-4.6-4.7-6.7-7c2.2-1.9,3.5-4.7,3.6-8.6
	c4.8,0,9.5-0.5,14.2-1.6c-0.1,7.3-1.2,12.6-3.2,14.8c-0.1,0-0.1,0.1-0.1,0.1c0,0,0,0,0,0C118,101.4,117.5,101.9,117.1,102.2
	L117.1,102.2z M101.8,93.5c-1.6-1.8-3.1-3.7-4.6-5.6l1.3-0.6c2,0.1,3.8,0.2,5.6,0.2C104.1,89.7,103.3,91.8,101.8,93.5L101.8,93.5z
	 M73.2,46.2c-2.1-5.1-3.9-10.4-5.4-15.7c1.7-0.8,3.4-1.6,5.2-2.3l0.4,1c2.2,4.3,4.7,8.5,7.4,12.5C78,42.8,75.5,44.3,73.2,46.2z
	 M76.2,26.8c12.3-5.1,25.2-8.7,38.4-10.6c0.7,4.3,1.7,9.6,2.5,15.5l-3,0.7l-3.7,4.1c-2.8-2.9-8.3-1.1-11.6-0.2c-3.7,1-7.4,2-11.2,3
	c-1.1,0.2-2.2,0.6-3.2,1c-2.8-4-5.4-8.2-7.6-12.6L76.2,26.8z M125.4,74.9c2.6-1.1,5.2-2.3,7.8-3.4l1.2-1.3c0.6,0.1,1.2,0.1,1.8,0.1
	c1.2-0.2,2.4-0.5,3.6-1c-0.8,2.7-1.4,5.5-1.7,8.3c-3.7,1.3-7.8,2.6-12.6,3.8C125.5,79.2,125.5,77.2,125.4,74.9z M107.4,83l2.5-1.2
	l6.2-5l1.4-3.7c0.8,1.8,1.3,2.5,2.3,4.3l2-0.8v5.8c-4.7,1.1-9.6,1.6-14.4,1.7L107.4,83z"/>
<path class="st3" d="M124,118.7c-11.9-8-22.6-17.5-31.9-28.4l5.2-2.4c1.6,1.9,3.1,3.8,4.7,5.6c0.7,0.9,1.5,1.8,2.4,2.6
	c6.9,7.6,14.5,14.5,22.7,20.5C126,117.4,125,118.1,124,118.7z M67.3,51.8c-3.5-7.7-6.4-15.7-8.8-23.9c20.5-9.8,42.8-15.2,65.5-15.8
	c10.6,0.1,21.1,1.2,31.4,3.4c-5.9-0.6-11.7-0.9-17.6-1c-6.6,0-13.2,0.4-19.7,1.2c-1.2,0.1-2.4,0.4-3.6,0.5
	c-13.2,1.9-26.1,5.4-38.4,10.4c-1.1,0.5-2.3,1-3.4,1.4c-1.7,0.7-3.4,1.6-5,2.4c1.5,5.3,3.2,10.6,5.3,15.7c-1.1,1-2.3,2-3.4,3.1
	L67.3,51.8z"/>
<path class="st4" d="M41.4,21.5C68.4,7.7,92,0,122.8,0c30.6,0,54.4,7.7,81.4,21.5c-12.6,50.5-36.6,84.1-81.5,111
	c-16.9-10.2-31.7-22.1-43.9-35.9c-3.4,1.7-6.1,3-7.6,3.7c-4.2,2.2-8.4,4.2-12.6,6.4c-4.8,2.4-10.1,6.1-15.6,4.7c-6-2.6-2-10-0.2-14
	c4.7-10.4,9.6-20.9,14.6-31.2c-6.3-11.8-11.1-24.3-14.2-37.3L41.4,21.5z M122.6,5.2c-28.2,0-50.3,6.6-75.4,19.1
	c3,12.5,7.4,24.6,13.1,36.1c1.1-1.7,2.3-3.4,3.6-4.9c0.6-0.6,5.8-6.1,5.8-6.1c3.1-3.3,6.9-6,11-7.8c-2.8-4-5.3-8.1-7.4-12.5l-0.4-1
	c1.1-0.5,2.2-1,3.4-1.4l0.4,0.8c2.2,4.4,4.7,8.7,7.6,12.7c1.1-0.4,2.2-0.7,3.4-1.1c3.7-1,7.3-1.9,11.2-2.9c3.4-1,8.9-2.8,11.5,0.1
	l3.8-4.1l3-0.6c-1-6-1.8-11.3-2.6-15.5c1.2-0.1,2.4-0.4,3.6-0.5c0.7,4.2,1.7,9.5,2.5,15.1c4.3-0.8,8.5-1.8,12.8-2.6l-1.4,3.6
	l-0.1,0.4l4.3-4.6c4.3-0.7,8.5-1.6,13-2.4l-0.7,2.3c2.1-1.7,4.6-2.8,7.3-3.2h0.4c0.7-2.7,1.2-5.5,1.6-8.3c1.3,0.2,2.6,0.6,3.8,0.8
	c-0.1,2.2-0.5,4.4-1,6.6c2.8-0.4,5.4-0.7,8.2-1.2c-1.2,4.4-2.3,9-3.4,13.4l-5.4,5.6l4.6-1.4c-1.6,5.6-3,11.3-4.3,17l-5.9,6.1
	c-2.5,1.1-6.6,3-10.4,4.6c-0.9,2.8-1.7,5.6-2.2,8.5c13.3-5.4,20.2-12.2,27.6-23.9c-1,4-2.3,7.9-4,11.6c-6.2,7.3-13.2,12.2-24.1,16.3
	c-0.1,8.3,5.2,7.9,5.9,7.7c-1.3,1.2-2.8,2.3-4.3,3.2c-3.2-1.4-4.9-5.5-5-9.7c-3.7,1.3-7.8,2.4-12.5,3.6c-0.1,1.6-0.1,10.6-2.5,15.7
	c-1.9,0.5-3.9,1-5.9,1.3c0.5-0.4,0.9-0.9,1.3-1.3l0.1-0.1c2.2-2.2,3.1-7.4,3.4-14.8c-4.7,1-9.4,1.6-14.2,1.7c-0.1,4-1.4,6.7-3.6,8.5
	c-0.8-0.8-1.6-1.7-2.4-2.5c1.4-1.7,2.3-3.8,2.3-6c-1.7-0.1-3.6-0.2-5.5-0.4C93.5,89.4,88,92,83.2,94.2c11.5,12.5,24.7,23.3,39.2,32
	c40.7-25.1,63-56,75.2-102.1C172.9,11.8,150.8,5.2,122.6,5.2z M125.4,74.9c0.1,2.3,0.1,4.3,0.1,6.5c4.8-1.2,8.9-2.4,12.6-3.7
	c0.3-2.8,0.9-5.7,1.7-8.4c-1.2,0.4-2.4,0.8-3.6,1c-0.6,0.1-1.2,0.1-1.8,0l-1.2,1.2C130.6,72.6,128,73.8,125.4,74.9L125.4,74.9z
	 M107.4,83l0.1,0.8c4.8,0,9.7-0.6,14.4-1.7v-5.8l-2,1c-1-1.8-1.3-2.5-2.3-4.3l-1.4,3.7l-6.2,5L107.4,83z"/>
<path class="st2" d="M88,41.3c-6.4,1.8-12,4.4-16.6,9.5c-2.5,3-4.6,6.3-6.2,9.8c-5,10.4-10,20.9-14.6,31.3c-1.2,2.8-4.9,9.4-1,11.2
	c4.4,1.1,10-2.6,13.8-4.6c4.2-2.2,8.5-4.3,12.7-6.4c7.2-3.6,13.7-7.9,18.1-14.9c1.6-3,3.1-6.2,4.3-9.4c2.8-6.8,5.5-13.6,8.4-20.3
	c1.1-2.6,3-5.8,2.4-8.5c-1.2-3.7-7.6-1.4-10.2-0.7C95.4,39.4,91.7,40.3,88,41.3z M79.9,80c-3.4,1.6-6.6,3-10,4.6
	c4.8-11.2,9.8-22.3,15.1-33.5c2.9-0.8,5.9-1.9,8.9-2.8C89,58.9,84.4,69.5,79.9,80z M137.4,29.6c-4.7,6.1-9.2,12.2-13.8,18.4
	c2.2-5.5,4.3-11.2,6.5-16.8c-4.8,1-9.7,2-14.4,3.1c-1.3,2.9-2.5,5.8-3.7,8.8c1-0.3,2-0.6,3-0.8c-3.7,9.1-7.4,18.2-11,27.5
	c-1.6,3.7-3,7.6-4.4,11.3c4.8-2.3,9.7-4.6,14.5-6.7c2.2-6.1,4.3-12.1,6.6-18.2c2,4.2,4.1,8.3,6.1,12.4c3.1-1.3,6.2-2.8,9.4-4.1
	c-1.9-4.3-3.8-8.6-5.8-13c3.5-5.3,7-10.6,10.4-15.7c1-0.2,2-0.4,3-0.6c0.8-2.3,1.6-4.6,2.3-6.8C143.2,28.7,140.3,29.2,137.4,29.6z
	 M156.1,26.5c-2.6,0.3-5,1.5-7,3.2c-1.5,1.7-2.5,3.7-3.1,5.9c-2,6.5-4.1,13-6.2,19.4c-0.8,2.5-2.2,7.2,1.9,7
	c1.4-0.3,2.8-0.8,4.1-1.4c4.2-1.8,8.4-3.5,12.6-5.2c1-4.1,2-8.2,3.1-12.2c-2.2,0.6-4.3,1.3-6.6,2c-0.6,1.9-1.1,3.7-1.6,5.6
	c-1.6,0.5-3.1,1.1-4.6,1.6c1.9-6.6,3.7-13.1,5.8-19.7c1.3-0.4,2.6-0.6,4-1c-0.2,1.2-0.6,2.3-1,3.5c2-0.5,4-1,6-1.4
	c0.7-2.9,1.4-5.9,2.2-8.9C162.6,25.4,159.4,26,156.1,26.5z"/>
<path class="st0" d="M173.6,20.4c1.9,0.7,3.8,1.3,5.8,2c4.6,1.8,8.6,3.5,12.1,5.2c-10.1,35.4-32.1,66.3-62.2,87.5l-2.4,1.7
	c-4.9-3.7-9.7-7.7-14.2-11.9l4.2-0.6c36.8-6.2,61.6-41,55.6-77.8c-0.1-0.5-0.2-1-0.4-1.4l-0.1-0.5l-0.1-0.1l-0.5-1.7l-0.1-0.2
	l-0.1-0.5l-0.1-0.1v-0.2c-0.1-0.7-0.3-1.4-0.6-2C171.6,19.9,172.6,20.1,173.6,20.4z M174,20.9c1.8,0.6,3.7,1.3,5.5,1.9
	C177.7,22.2,175.8,21.5,174,20.9L174,20.9z"/>
</svg>
