<?xml version="1.0" encoding="utf-8"?>
<!-- Generator: Adobe Illustrator 24.1.1, SVG Export Plug-In . SVG Version: 6.00 Build 0)  -->
<svg version="1.1"
	 id="Layer_1" xmlns:cc="http://creativecommons.org/ns#" xmlns:dc="http://purl.org/dc/elements/1.1/" xmlns:rdf="http://www.w3.org/1999/02/22-rdf-syntax-ns#"
	 xmlns="http://www.w3.org/2000/svg" xmlns:xlink="http://www.w3.org/1999/xlink" x="0px" y="0px" viewBox="0 0 192.6 204.8"
	 style="enable-background:new 0 0 192.6 204.8;" xml:space="preserve">
<style type="text/css">
	.st0{fill:#0C2340;}
	.st1{fill:#236192;}
	.st2{fill:#78BE20;}
	.st3{fill:#9EA2A2;}
</style>
<ellipse class="st0" cx="96.3" cy="96.1" rx="96.3" ry="96.1"/>
<path class="st1" d="M96.8,10.8c-6.5,0-13,0.7-19.3,2.1c-0.6,1.9-1.4,5.5,0,8.8c0.8,2,2.3,3.6,4.5,4.9c5.9-2.4,12.3-4.9,18.5-6.9
	c7.8-2.9,14.8-4.4,20.1-5.3c-0.1,0-0.3-0.1-0.4-0.1c-3.8-1.1-7.7-2-11.5-2.5C104.7,11.1,100.7,10.8,96.8,10.8L96.8,10.8z M71.6,14.5
	c-12.2,3.7-23.5,10.1-32.9,18.7c0.4,0,0.9,0,1.3,0c8.1-0.5,19.6-0.1,26.2,0.1c2.8-1.2,6.2-2.7,9.9-4.3c-1.6-1.5-2.9-3.3-3.7-5.3
	C71.1,20.4,71.2,17.1,71.6,14.5L71.6,14.5z M132.3,18.8L132.3,18.8c-0.2,0.1-18.2-0.3-40.4,10.5c-0.4,0.2-0.8,0.5-1.2,0.7
	c7,2,12.7,2.5,16.8,2.7c1,0.1,1.8,0.1,2.6,0.2l0.6,0.1c2.7,0.2,6.4,0.7,10.9,1.4c3.3-4,7.3-6.5,9.9-7.1c3.2,1.2,4.8,3,5.9,5.6
	c4.4,1.8,7.3,5.1,9.2,8.9c10.1,4.4,20.3,10.9,28,20.6C166.6,43.6,151.8,27.8,132.3,18.8L132.3,18.8z M86,34.2c-1.8,2-3.4,4.2-4.5,6
	c2.3,2.4,6.7,7,8.9,9.5c3.8,2.3,7.6,4.7,11.3,7.4c6-6.7,11.3-12.2,16.5-17.7c-2.5-0.4-5.2-0.7-7.9-0.9l-0.7-0.1
	c-0.7-0.1-1.5-0.1-2.4-0.2C102.5,37.8,95,37.3,86,34.2L86,34.2z M38.5,38.7c-2.2,0-4.1,0.1-5.5,0.2c-7.1,7.8-12.8,17-16.7,27.4
	c8.7-9,21.7-18.6,36.3-15.8c1.1-2,2.3-4.1,3.4-5.9c-4.5-3-7.4-5.1-15.2-5.8C40,38.7,39.2,38.7,38.5,38.7L38.5,38.7z M149,48.6
	c2.6,11.6-0.3,24.8-0.3,24.8S155,77,156.5,84c0,0,0.8,0.4,1.5,1.4c1.8,2.2,4,7.2,0.4,17c0,0-2.1-4.6-6.7,0.4
	c-0.4,0.5-0.8,1.1-1.1,1.6c8.7,11.9,15.3,24.3,18.6,36.5c3.9-6.3,7-13.2,9.1-20.7c3-10.4,4-20.8,3.1-31
	C179.2,79.1,172.1,60.4,149,48.6L149,48.6z M69.7,50.6c-2.3,1.1-4.9,2.4-7.4,3.8c7,4.6,12.1,12.3,16.1,21.3c5.5-1.9,9.3-2,9.3-2
	c3.7-4.7,7.1-8.9,10.4-12.6c-3.7-2.6-7.5-5-11.2-7.3C82.8,52.4,73,51,69.7,50.6L69.7,50.6z M46.7,55.4C31.5,55.9,18,71.8,12.6,79.2
	c-3.8,18.5-1.3,37,6.2,53.1c4-3.8,7.9-7.7,11.6-11.6c-0.3-12.3,1.4-24.1,4.9-35.4c3-9.5,7.1-17.5,11.4-24.1c0.7-1.3,1.7-3.3,3-5.7
	C48.7,55.4,47.7,55.4,46.7,55.4L46.7,55.4z M57.1,57.7c-1.3,0.9-2.5,1.9-3.5,2.9c-9.9,14-17,32.3-17.7,54.1
	C46.6,103,55.3,92.1,61.3,86.4c4.1-4,8.3-6.7,12.1-8.6C69.4,68.7,64.2,61.3,57.1,57.7L57.1,57.7z M147.3,109.4
	c-5.6,9.1-8.3,17.6-8.6,32.5c-0.2,8.2,3.9,14.5,6.9,24.2c7.4-5.2,14-11.6,19.5-19.1C162.6,134.8,156.2,121.9,147.3,109.4
	L147.3,109.4z"/>
<path class="st2" d="M131.3,31c-1.6,0-3.8,1.4-6.3,6.1c5.5-5.9,10.4-2.1,10.4-2.1C134.8,33.6,133.5,31.1,131.3,31z M79.6,32.2
	l-11.8,5.9c0,0-8.5-0.7-12.9-0.8c4.1,2.6,7.6,5.6,7.6,5.6l-5.2,8.7l11.2-6.1c0,0,7.1,1.2,13.5,2.5c-3.7-4.2-8.1-7.3-8.1-7.3
	L79.6,32.2L79.6,32.2z M84.4,83.4c-6.5,3.2-16.2,12.9-16.2,12.9c4.7-3.2,14.4-4.6,14.4-4.6C82.8,87.7,84.4,83.4,84.4,83.4L84.4,83.4
	z"/>
<path class="st3" d="M96.2,0C48.4,0,7.5,35.7,0.9,83.1c-2.7,19.7,0.6,39.3,9.4,56.6c1.1-0.9,2.2-1.9,3.3-2.8
	c-8.1-16.4-11.1-34.7-8.6-53.2C11.3,38.4,50.5,4.2,96.2,4.2c4.2,0,8.5,0.3,12.7,0.9c24.3,3.4,45.9,16,60.8,35.6
	c14.9,19.6,21.2,43.8,17.9,68.2c-3.7,26.8-18.9,49.8-40.2,64c0.3,1.4,0.5,2.9,0.8,4.5c23.1-14.8,39.7-39.2,43.6-68
	c3.5-25.4-3.1-50.7-18.7-71.3c-15.5-20.5-38.1-33.7-63.6-37.3C105,0.3,100.6,0,96.2,0L96.2,0z M138.2,39.9c0.2,0.6,0,2.7-0.2,4.4
	c0,0,0,0,0,0c-3.9,0.7-12.4-0.3-15.1-1.7c-10.4,11.2-21.8,26.8-30.4,41.1c-3.7,7.6-7.4,16.5-8.3,23.7c0,0-1.2-3.3-1.5-7.6
	c-4.7,1.8-20.9,9.8-24.3,34.1c0,0,10.3-10.6,21.6-14.7c0,0-7.2,18.8,6.5,52.1c0,0,5.5-20.4,17.1-25.6c7,34.9,27.6,35.4,33.6,59.2
	c0,0,6.3-12.3-1.3-33.2c0,0,2.6,0.7,4.8,3.3c0,0-0.3-6.1-6.1-19.3c-3.7-7.1-4.9-16.6-4.9-16.6c-3.3,3-4.2,13.3-4.2,13.3
	c-10.2-27.7,18.8-55.2,24.1-59.3c2.6-2,4.2-2,5.1-1.5c1-2.1,0.9-3.4-0.3-4.2c0,0-0.5-0.3-0.6-0.4c-3.1-1.6-8.6,3.1-12.2,5.1
	c-3.6,2-8.8,6.2-11.4,0.4c-2.6-5.8,3.3-14.9,5.4-20.6c4.5-12.7,4.7-20.1,3.7-24.2c4.2,4.7,5.5,13.7,5.5,13.7S146.5,44.4,138.2,39.9
	L138.2,39.9z M48,136.5c0,0-19.3,14.2-39.1,15.3c0,0,19.6,4.6,27.8,1.2c-0.8-0.5-1.7-1.3-2.6-2.4c0,0,8-5.1,13.8-14
	C48,136.6,48,136.5,48,136.5L48,136.5z"/>
</svg>
