<?xml version="1.0" encoding="utf-8"?>
<!-- Generator: Adobe Illustrator 24.1.1, SVG Export Plug-In . SVG Version: 6.00 Build 0)  -->
<svg version="1.1"
	 id="Layer_1" xmlns:cc="http://creativecommons.org/ns#" xmlns:dc="http://purl.org/dc/elements/1.1/" xmlns:rdf="http://www.w3.org/1999/02/22-rdf-syntax-ns#"
	 xmlns="http://www.w3.org/2000/svg" xmlns:xlink="http://www.w3.org/1999/xlink" x="0px" y="0px" viewBox="0 0 220.5 220.5"
	 style="enable-background:new 0 0 220.5 220.5;" xml:space="preserve">
<style type="text/css">
	.st0{fill:#1D428A;}
	.st1{fill:#FDB927;}
</style>
<path class="st0" d="M220.5,110.3c0,60.9-49.4,110.3-110.3,110.3S0,171.2,0,110.3S49.4,0,110.3,0c0,0,0,0,0,0
	C171.2,0,220.5,49.4,220.5,110.3"/>
<path class="st1" d="M182.4,38.1C142.6-1.7,78-1.7,38.2,38.1s-39.8,104.4,0,144.2c0,0,0,0,0,0c39.8,39.8,104.4,39.8,144.2,0
	S222.2,78,182.4,38.1C182.4,38.2,182.4,38.1,182.4,38.1 M42.1,42c37.7-37.6,98.8-37.6,136.5,0.2c28.2,28.3,36.1,71.1,19.7,107.6
	c-11.7-4-23.2-8.4-34.5-13.4c-1.5-0.7-3-1.3-4.4-2l-4.4-2.1l-2.2-1.1l-2.2-1.1l-4.3-2.2c-1.4-0.7-2.9-1.5-4.3-2.3l-2.2-1.2
	c-0.7-0.4-1.4-0.8-2.1-1.2l-4.2-2.4l-4.2-2.5c-11.2-6.5-22-13.9-32.1-21.9c-5.1-4-10-8.2-14.7-12.7c-2.4-2.2-4.6-4.5-6.8-6.9
	c-0.5-0.6-1.1-1.2-1.6-1.8c-0.5-0.6-1.1-1.2-1.6-1.8s-1.1-1.2-1.5-1.8c0,0,0,0,0-0.1c-0.2-7.1-0.3-11.3-0.3-11.3l-4.8-1.2v6.5h-4.1
	v-6.8L56.3,60l0,2.5L54,63.8c0,2,0.1,4.7,0.1,7.8c-2,3.4-23.3,40.3-39.3,51.7c-0.6-4.4-0.9-8.8-0.9-13.2C13.8,84.6,23.9,60,42.1,42
	 M168.8,157.5l-9.9,0.3l-8.1-21l1.6,0.8l4.4,2.2c1.5,0.7,3,1.4,4.5,2.1c0.4,0.2,0.9,0.4,1.3,0.6L168.8,157.5z M166.4,144.4
	c4,1.8,8,3.6,12.1,5.3l3.3,7.4l-10,0.3L166.4,144.4z M155.8,158l-10.2,0.3l-10.6-30c0.7,0.4,1.3,0.8,2,1.2l2.2,1.2
	c1.4,0.8,2.9,1.6,4.3,2.4l3.3,1.8L155.8,158z M142.7,158.4l-9.1,0.3l-13.2-39.4c2,1.3,4,2.6,6.1,3.9l4.2,2.6l0.6,0.3L142.7,158.4z
	 M130.6,158.8l-9.5,0.3l-15.7-50.3c3.6,2.7,7.3,5.3,11,7.9L130.6,158.8z M118.1,159.3l-9.2,0.3L90.3,96.8c1.3,1.2,2.7,2.3,4,3.4
	c2.4,2,4.7,3.9,7.2,5.7L118.1,159.3z M106,159.7L95.9,160L73.6,80.5c1.9,2.2,4,4.2,6,6.3c2.2,2.2,4.4,4.2,6.6,6.3L106,159.7z
	 M92.9,160.1l-8.8,0.3l-12.2-46.7c-0.4-12-0.7-23.1-1-32.1L92.9,160.1z M81.2,160.5l-7.6,0.2c-0.5-11.1-0.9-22.7-1.3-34.1
	L81.2,160.5z M188.2,167.2c-0.7,0.9-1.3,1.8-2,2.7L74,167.6l0-1.1L188.2,167.2z M184.9,157l-2.6-5.8c4.2,1.7,8.5,3.4,12.8,4.9
	c-0.1,0.1-0.2,0.3-0.3,0.5L184.9,157z M65.5,86.5v5.9h-4.5v5.5h4.5v5.9h-4.5v5.5h4.5v11.1h-4.5v5.5h4.5v11.5h-4.5v5.5h4.5v18
	l-4.1,0.1V77.2h4.1v3.7H61v5.5L65.5,86.5L65.5,86.5z M22.3,149.8l12.6-42.4c6.1-8.2,11.7-16.9,16.6-25.9l-22.6,80.5
	C26.4,158.2,24.2,154.1,22.3,149.8 M20.5,145.7c-2.2-5.7-3.9-11.5-5-17.5c5.3-4.4,10.2-9.3,14.6-14.7L20.5,145.7z M54.1,82.7
	c0,8.5-0.1,18.8-0.3,29.7l-13,49.4l-9,0.3L54.1,82.7z M53.4,124.8c-0.3,12.2-0.8,24.9-1.4,36.6l-8.3,0.3L53.4,124.8z M36.2,172.2
	l15.2,0.5c-0.3,4.7-0.6,9.1-1,13.3c-2.9-2.3-5.7-4.8-8.4-7.5C40,176.4,38.1,174.3,36.2,172.2 M110.3,206.7
	c-11.8,0-23.6-2.1-34.6-6.4c-0.4-6.6-0.9-14.5-1.3-23.1l-8.8-3v21.5c-1.4-0.7-2.8-1.5-4.1-2.3V173l4.1,0.1v0.1H70l8.1,0.3l101.5,3.6
	c-0.4,0.4-0.8,0.8-1.2,1.3C160.4,196.6,135.9,206.8,110.3,206.7"/>
</svg>
