<?xml version="1.0" encoding="utf-8"?>
<!-- Generator: Adobe Illustrator 24.1.1, SVG Export Plug-In . SVG Version: 6.00 Build 0)  -->
<svg version="1.1"
	 id="Layer_1" xmlns:cc="http://creativecommons.org/ns#" xmlns:dc="http://purl.org/dc/elements/1.1/" xmlns:rdf="http://www.w3.org/1999/02/22-rdf-syntax-ns#"
	 xmlns="http://www.w3.org/2000/svg" xmlns:xlink="http://www.w3.org/1999/xlink" x="0px" y="0px" viewBox="0 0 153.9 153.9"
	 style="enable-background:new 0 0 153.9 153.9;" xml:space="preserve">
<style type="text/css">
	.st0{fill:#C4CED4;}
	.st1{fill:#FFFFFF;}
	.st2{fill:#E31837;}
	.st3{fill:#002B5C;}
</style>
<circle class="st0" cx="76.9" cy="76.9" r="76.9"/>
<ellipse class="st1" cx="76.9" cy="76.6" rx="75" ry="75"/>
<path class="st2" d="M76.9,1.6c-5.5,0-10.8,0.6-15.9,1.7c3.8,2,7.6,5.5,10,12.1l6-8.8l6,8.8C85.3,8.8,89,5.2,92.8,3.3
	C87.7,2.2,82.4,1.6,76.9,1.6L76.9,1.6z M53.1,5.4C31.1,12.8,13.6,30.1,6,52.1c10.1-15.2,29.9-32.4,60.1-35.8
	C63.4,9.8,58,6.8,53.1,5.4L53.1,5.4z M100.6,5.4c-4.8,1.4-10.2,4.4-12.8,10.8c30,3.4,49.7,20.4,59.9,35.5
	C140,29.9,122.6,12.7,100.6,5.4L100.6,5.4z"/>
<path class="st3" d="M102.7,25c-2.7,0.1-4,0.9-4,0.9L90,30.8l0.4,1.6l1.9,6.9c0,0,3.6,10,12.1,18.5c16.1,15.9,36.7,39.3,34.6,60.6
	c7.8-11.6,12.5-25.6,12.8-40.6c-1.3-7.6-3.7-14.2-6.8-20.1c-5.6-10.8-16.5-21-29.9-28.9C109.5,25.7,105.4,24.9,102.7,25L102.7,25z
	 M51.1,25c-2.7-0.1-6.8,0.7-12.5,4C25.3,36.9,14.4,47.1,8.8,57.9c-3.1,6-5.6,12.9-6.9,20.7c0.4,14.8,5.1,28.6,12.9,40.1
	c-2.2-21.4,18.4-44.8,34.6-60.8c8.5-8.5,12.1-18.5,12.1-18.5l1.9-6.9l0.4-1.6l-8.7-4.9C55.1,25.9,53.9,25.1,51.1,25L51.1,25z
	 M76.9,40.8c-0.9,0.6-28.6,20.5-40.7,40.3c-16.5,26.6-14.3,42-10.1,50.7c10.6,9.8,24,16.5,38.9,18.9l6.4-90.9l5.3-5.4l0.1-0.1h0
	l0.1,0.1l5.4,5.4l6.5,90.9l-0.1,0c15-2.4,28.5-9.2,39.2-19c4.2-8.8,6.2-24.1-10.2-50.5C105.5,61.3,77.8,41.4,76.9,40.8L76.9,40.8z"
	/>
<path class="st0" d="M76.9,12.4L76,14.2l-1.7,3.6h0l-0.1,0.1l-0.1,0.1L73.2,20l-0.1,0.2l0,0l-2.3,0.1c-3.3,0.2-6.6,0.7-9.9,1.2
	c-1.4,0.2-2.9,0.5-4.3,0.8l4.6,2.5l4.6,2.5l1.4,0.8l1.4,0.8l-0.9,3.1l-0.1,0.2l-0.4,1.4l-2.6,9.3l5.8-4.3l3.9-2.9l1.2-0.9l1.2-0.9v0
	l0,0l0,0v0l1.2,0.9l1.2,0.9l9.8,7.2l-2.6-9.3l-0.2-0.8l-0.2-0.8l-0.9-3.1l0.9-0.5l1.9-1l6.2-3.3l3-1.6c-1.4-0.3-2.9-0.5-4.3-0.8
	c-3.3-0.6-6.5-1-9.8-1.2l-2.3-0.1l0-0.1L80.6,20l-0.9-1.9l-0.1-0.1L76.9,12.4L76.9,12.4z M76.9,54.4l0.1,99.1l11.7-2.9l0.1,0
	l-6.5-90.9L76.9,54.4L76.9,54.4z"/>
</svg>
